<svg width="36" height="36" viewBox="0 0 36 36" fill="none" xmlns="http://www.w3.org/2000/svg">
<path d="M7.74805 7.38075V9.13027H9.66158V11.0985H13.3246V9.13027H15.2928V7.38075H17.097V5.63124H19.0105V7.38075H20.76V9.13027H22.6736V11.0985H26.2819V9.13027H28.3595V7.38075H26.2819V5.63124H24.3684V3.71771H22.6736V1.85886H20.76V0H15.2928V1.85886H13.3246V3.71771H11.3564V5.63124H9.66158V7.38075H7.74805Z" fill="#EFB71D"/>
<path d="M28.3047 27.8282L28.3047 26.0787L26.3912 26.0787L26.3912 24.1105L22.7281 24.1105L22.7281 26.0787L20.7599 26.0787L20.7599 27.8282L18.9557 27.8282L18.9557 29.5777L17.0422 29.5777L17.0422 27.8282L15.2927 27.8282L15.2927 26.0787L13.3792 26.0787L13.3792 24.1105L9.77079 24.1105L9.7708 26.0787L7.69325 26.0787L7.69325 27.8282L9.7708 27.8282L9.7708 29.5777L11.6843 29.5777L11.6843 31.4912L13.3792 31.4912L13.3792 33.3501L15.2927 33.3501L15.2927 35.2089L20.7599 35.2089L20.7599 33.3501L22.7281 33.3501L22.7281 31.4912L24.6963 31.4912L24.6963 29.5777L26.3912 29.5777L26.3912 27.8282L28.3047 27.8282Z" fill="#EFB71D"/>
<path d="M2.28073 16.6203H0.421875V18.5338H2.28073V20.2834H4.03024V22.1969H5.94377V20.2834H7.8573V18.5338H9.66148V16.6203H7.8573V14.7615H5.94377V12.9573H4.03024V14.7615H2.28073V16.6203Z" fill="#EFB71D"/>
<path d="M15.3471 16.5111H13.4883V18.4246H15.3471V20.1741H17.0966V22.0876H19.0102V20.1741H20.9237V18.4246H22.7279V16.5111H20.9237V14.6522H19.0102V12.848H17.0966V14.6522H15.3471V16.5111Z" fill="#EFB71D"/>
<path d="M28.4155 16.4017H26.5566V18.3152H28.4155V20.0647H30.165V21.9783H32.0785V20.0647H33.9921V18.3152H35.7963V16.4017H33.9921V14.5428H32.0785V12.7386H30.165V14.5428H28.4155V16.4017Z" fill="#EFB71D"/>
</svg>
