<svg width="25" height="34" viewBox="0 0 25 34" fill="none" xmlns="http://www.w3.org/2000/svg">
<path d="M3.49658 16.1153H1.82227V17.9291H3.49658V19.3942H6.77545V21.0685H10.2636V22.6033H11.5891V24.2776H13.3332V22.6033H15.147V21.0685H18.1468V19.3942H21.4257V17.5106H23.1698V16.1153H21.4257V12.8364H19.5421V9.55755H18.1468V6.41821H16.6121V4.88342H15.147V1.39526H13.3332V0H11.5891V1.39526H10.2636V4.88342H8.58929V6.41821H6.77545V9.55755H5.38019V12.8364H3.49658V16.1153Z" fill="#EFB71D"/>
<path d="M0.496094 19.3943H2.03088V20.9291H5.30975V22.4639H8.58862V24.0684H10.1932V25.8823H14.9371V24.0684H16.6811V22.4639H19.8903V20.9291H23.3086V19.3943H24.9132V20.9291H23.3086V22.4639H21.6343V24.0684H19.8903V27.4171H18.2857V28.9518H16.6811V30.6262H14.9371V32.1609H13.4023V33.905H11.728V32.1609H10.1932V30.6262H8.2398V28.9518H7.05383V27.4171H5.30975V24.487H3.91449V22.4639H2.03088V20.9291H0.496094V19.3943Z" fill="#EFB71D"/>
</svg>
