<svg width="336" height="25" viewBox="0 0 336 25" fill="none" xmlns="http://www.w3.org/2000/svg">
<path d="M4.75124 1.20451C4.18357 0.672615 3.90212 0.355389 3.90212 0.255212C3.90212 0.0882509 4.05239 0.00477043 4.35292 0.00477043H28.5575C29.8574 0.00477043 30.9331 0.338693 31.7822 1.00415C32.6314 1.672 33.0583 2.52111 33.0583 3.55389C33.0583 3.85442 33.0249 4.15495 32.9581 4.45309L28.8079 20.0067C28.5074 21.2399 27.6989 22.2917 26.3822 23.1575C25.0656 24.0257 23.6393 24.4574 22.1056 24.4574H0.651148C0.217049 24.4574 0 24.3072 0 24.0066C0 23.9399 0 23.8898 0 23.8564L5.60035 2.85265C5.60035 2.78587 5.60035 2.70239 5.60035 2.60221C5.60035 2.20389 5.3189 1.7364 4.75124 1.20451ZM16.72 2.85742L11.7159 21.6096C11.7159 21.6763 11.7111 21.7264 11.7016 21.7598C11.7016 22.0914 11.9186 22.2559 12.3527 22.2559H16.3526C16.8535 22.2559 17.1684 22.0389 17.3019 21.6048L22.2535 2.85265C22.2869 2.81926 22.3036 2.76917 22.3036 2.70239C22.3036 2.40186 22.0866 2.25159 21.6549 2.25159H17.6669C17.1326 2.25398 16.8178 2.45433 16.72 2.85742Z" fill="white"/>
<path d="M33.5544 24.4574C33.1203 24.4574 32.9033 24.3072 32.9033 24.0066C32.9033 23.9399 32.9033 23.8898 32.9033 23.8564L38.5036 2.85265C38.5036 2.78587 38.5036 2.70239 38.5036 2.60221C38.5036 2.2015 38.2198 1.7364 37.6545 1.20212C37.0868 0.67023 36.8054 0.353004 36.8054 0.252827C36.8054 0.0858661 36.9557 0.00238567 37.2562 0.00238567H49.6089C50.0096 0.00238567 50.21 0.169347 50.21 0.503269C50.21 0.536661 50.21 0.58675 50.21 0.653534L44.0563 23.8564C43.9227 24.2571 43.6055 24.4574 43.107 24.4574H33.5544Z" fill="white"/>
<path d="M63.1113 8.9038H73.4629C74.7628 8.9038 75.8385 9.22818 76.6876 9.87933C77.5367 10.5305 77.9637 11.3724 77.9637 12.4052C77.9637 12.7391 77.9136 13.0564 77.8134 13.3545L76.0627 20.0043C75.7288 21.2375 74.9131 22.2893 73.6132 23.1551C72.3132 24.0233 70.8798 24.455 69.3127 24.455H47.8582C47.6245 24.455 47.5076 24.405 47.5076 24.3048C47.5076 24.238 47.5911 24.1378 47.758 24.0043C49.5588 22.8379 50.7252 22.2535 51.2595 22.2535H63.5621C64.094 22.2535 64.4112 22.0365 64.5114 21.6024C65.4774 17.9364 65.9616 16.0855 65.9616 16.0521C65.9616 15.7182 65.7612 15.5512 65.3605 15.5512H55.0089C53.709 15.5512 52.6333 15.2269 51.7842 14.5757C50.9351 13.9246 50.5081 13.085 50.5081 12.0498C50.5081 11.7493 50.5582 11.4488 50.6584 11.1506L52.4091 4.45071C52.743 3.25097 53.5587 2.20866 54.8587 1.32615C56.1586 0.44364 57.592 0 59.1591 0H80.6112C80.845 0 80.9618 0.0500886 80.9618 0.150265C80.9618 0.250442 80.8783 0.350618 80.7114 0.450795C78.9106 1.65053 77.7443 2.25159 77.21 2.25159H64.9073C64.3731 2.25159 64.0582 2.45194 63.958 2.85265C62.9897 6.52103 62.5079 8.36953 62.5079 8.40292C62.5102 8.73923 62.7106 8.9038 63.1113 8.9038Z" fill="white"/>
<path d="M4.75124 1.20451C4.18357 0.672615 3.90212 0.355389 3.90212 0.255212C3.90212 0.0882509 4.05239 0.00477043 4.35292 0.00477043H28.5575C29.8574 0.00477043 30.9331 0.338693 31.7822 1.00415C32.6314 1.672 33.0583 2.52111 33.0583 3.55389C33.0583 3.85442 33.0249 4.15495 32.9581 4.45309L28.8079 20.0067C28.5074 21.2399 27.6989 22.2917 26.3822 23.1575C25.0656 24.0257 23.6393 24.4574 22.1056 24.4574H0.651148C0.217049 24.4574 0 24.3072 0 24.0066C0 23.9399 0 23.8898 0 23.8564L5.60035 2.85265C5.60035 2.78587 5.60035 2.70239 5.60035 2.60221C5.60035 2.20389 5.3189 1.7364 4.75124 1.20451ZM16.72 2.85742L11.7159 21.6096C11.7159 21.6763 11.7111 21.7264 11.7016 21.7598C11.7016 22.0914 11.9186 22.2559 12.3527 22.2559H16.3526C16.8535 22.2559 17.1684 22.0389 17.3019 21.6048L22.2535 2.85265C22.2869 2.81926 22.3036 2.76917 22.3036 2.70239C22.3036 2.40186 22.0866 2.25159 21.6549 2.25159H17.6669C17.1326 2.25398 16.8178 2.45433 16.72 2.85742Z" fill="white"/>
<path d="M33.5544 24.4574C33.1203 24.4574 32.9033 24.3072 32.9033 24.0066C32.9033 23.9399 32.9033 23.8898 32.9033 23.8564L38.5036 2.85265C38.5036 2.78587 38.5036 2.70239 38.5036 2.60221C38.5036 2.2015 38.2198 1.7364 37.6545 1.20212C37.0868 0.67023 36.8054 0.353004 36.8054 0.252827C36.8054 0.0858661 36.9557 0.00238567 37.2562 0.00238567H49.6089C50.0096 0.00238567 50.21 0.169347 50.21 0.503269C50.21 0.536661 50.21 0.58675 50.21 0.653534L44.0563 23.8564C43.9227 24.2571 43.6055 24.4574 43.107 24.4574H33.5544Z" fill="white"/>
<path d="M63.1113 8.9038H73.4629C74.7628 8.9038 75.8385 9.22818 76.6876 9.87933C77.5367 10.5305 77.9637 11.3724 77.9637 12.4052C77.9637 12.7391 77.9136 13.0564 77.8134 13.3545L76.0627 20.0043C75.7288 21.2375 74.9131 22.2893 73.6132 23.1551C72.3132 24.0233 70.8798 24.455 69.3127 24.455H47.8582C47.6245 24.455 47.5076 24.405 47.5076 24.3048C47.5076 24.238 47.5911 24.1378 47.758 24.0043C49.5588 22.8379 50.7252 22.2535 51.2595 22.2535H63.5621C64.094 22.2535 64.4112 22.0365 64.5114 21.6024C65.4774 17.9364 65.9616 16.0855 65.9616 16.0521C65.9616 15.7182 65.7612 15.5512 65.3605 15.5512H55.0089C53.709 15.5512 52.6333 15.2269 51.7842 14.5757C50.9351 13.9246 50.5081 13.085 50.5081 12.0498C50.5081 11.7493 50.5582 11.4488 50.6584 11.1506L52.4091 4.45071C52.743 3.25097 53.5587 2.20866 54.8587 1.32615C56.1586 0.44364 57.592 0 59.1591 0H80.6112C80.845 0 80.9618 0.0500886 80.9618 0.150265C80.9618 0.250442 80.8783 0.350618 80.7114 0.450795C78.9106 1.65053 77.7443 2.25159 77.21 2.25159H64.9073C64.3731 2.25159 64.0582 2.45194 63.958 2.85265C62.9897 6.52103 62.5079 8.36953 62.5079 8.40292C62.5102 8.73923 62.7106 8.9038 63.1113 8.9038Z" fill="white"/>
<path d="M4.75124 1.20451C4.18357 0.672615 3.90212 0.355389 3.90212 0.255212C3.90212 0.0882509 4.05239 0.00477043 4.35292 0.00477043H28.5575C29.8574 0.00477043 30.9331 0.338693 31.7822 1.00415C32.6314 1.672 33.0583 2.52111 33.0583 3.55389C33.0583 3.85442 33.0249 4.15495 32.9581 4.45309L28.8079 20.0067C28.5074 21.2399 27.6989 22.2917 26.3822 23.1575C25.0656 24.0257 23.6393 24.4574 22.1056 24.4574H0.651148C0.217049 24.4574 0 24.3072 0 24.0066C0 23.9399 0 23.8898 0 23.8564L5.60035 2.85265C5.60035 2.78587 5.60035 2.70239 5.60035 2.60221C5.60035 2.20389 5.3189 1.7364 4.75124 1.20451ZM16.72 2.85742L11.7159 21.6096C11.7159 21.6763 11.7111 21.7264 11.7016 21.7598C11.7016 22.0914 11.9186 22.2559 12.3527 22.2559H16.3526C16.8535 22.2559 17.1684 22.0389 17.3019 21.6048L22.2535 2.85265C22.2869 2.81926 22.3036 2.76917 22.3036 2.70239C22.3036 2.40186 22.0866 2.25159 21.6549 2.25159H17.6669C17.1326 2.25398 16.8178 2.45433 16.72 2.85742Z" fill="white"/>
<path d="M33.5544 24.4574C33.1203 24.4574 32.9033 24.3072 32.9033 24.0066C32.9033 23.9399 32.9033 23.8898 32.9033 23.8564L38.5036 2.85265C38.5036 2.78587 38.5036 2.70239 38.5036 2.60221C38.5036 2.2015 38.2198 1.7364 37.6545 1.20212C37.0868 0.67023 36.8054 0.353004 36.8054 0.252827C36.8054 0.0858661 36.9557 0.00238567 37.2562 0.00238567H49.6089C50.0096 0.00238567 50.21 0.169347 50.21 0.503269C50.21 0.536661 50.21 0.58675 50.21 0.653534L44.0563 23.8564C43.9227 24.2571 43.6055 24.4574 43.107 24.4574H33.5544Z" fill="white"/>
<path d="M63.1113 8.9038H73.4629C74.7628 8.9038 75.8385 9.22818 76.6876 9.87933C77.5367 10.5305 77.9637 11.3724 77.9637 12.4052C77.9637 12.7391 77.9136 13.0564 77.8134 13.3545L76.0627 20.0043C75.7288 21.2375 74.9131 22.2893 73.6132 23.1551C72.3132 24.0233 70.8798 24.455 69.3127 24.455H47.8582C47.6245 24.455 47.5076 24.405 47.5076 24.3048C47.5076 24.238 47.5911 24.1378 47.758 24.0043C49.5588 22.8379 50.7252 22.2535 51.2595 22.2535H63.5621C64.094 22.2535 64.4112 22.0365 64.5114 21.6024C65.4774 17.9364 65.9616 16.0855 65.9616 16.0521C65.9616 15.7182 65.7612 15.5512 65.3605 15.5512H55.0089C53.709 15.5512 52.6333 15.2269 51.7842 14.5757C50.9351 13.9246 50.5081 13.085 50.5081 12.0498C50.5081 11.7493 50.5582 11.4488 50.6584 11.1506L52.4091 4.45071C52.743 3.25097 53.5587 2.20866 54.8587 1.32615C56.1586 0.44364 57.592 0 59.1591 0H80.6112C80.845 0 80.9618 0.0500886 80.9618 0.150265C80.9618 0.250442 80.8783 0.350618 80.7114 0.450795C78.9106 1.65053 77.7443 2.25159 77.21 2.25159H64.9073C64.3731 2.25159 64.0582 2.45194 63.958 2.85265C62.9897 6.52103 62.5079 8.36953 62.5079 8.40292C62.5102 8.73923 62.7106 8.9038 63.1113 8.9038Z" fill="white"/>
<path d="M4.75124 1.20451C4.18357 0.672615 3.90212 0.355389 3.90212 0.255212C3.90212 0.0882509 4.05239 0.00477043 4.35292 0.00477043H28.5575C29.8574 0.00477043 30.9331 0.338693 31.7822 1.00415C32.6314 1.672 33.0583 2.52111 33.0583 3.55389C33.0583 3.85442 33.0249 4.15495 32.9581 4.45309L28.8079 20.0067C28.5074 21.2399 27.6989 22.2917 26.3822 23.1575C25.0656 24.0257 23.6393 24.4574 22.1056 24.4574H0.651148C0.217049 24.4574 0 24.3072 0 24.0066C0 23.9399 0 23.8898 0 23.8564L5.60035 2.85265C5.60035 2.78587 5.60035 2.70239 5.60035 2.60221C5.60035 2.20389 5.3189 1.7364 4.75124 1.20451ZM16.72 2.85742L11.7159 21.6096C11.7159 21.6763 11.7111 21.7264 11.7016 21.7598C11.7016 22.0914 11.9186 22.2559 12.3527 22.2559H16.3526C16.8535 22.2559 17.1684 22.0389 17.3019 21.6048L22.2535 2.85265C22.2869 2.81926 22.3036 2.76917 22.3036 2.70239C22.3036 2.40186 22.0866 2.25159 21.6549 2.25159H17.6669C17.1326 2.25398 16.8178 2.45433 16.72 2.85742Z" fill="white"/>
<path d="M33.5544 24.4574C33.1203 24.4574 32.9033 24.3072 32.9033 24.0066C32.9033 23.9399 32.9033 23.8898 32.9033 23.8564L38.5036 2.85265C38.5036 2.78587 38.5036 2.70239 38.5036 2.60221C38.5036 2.2015 38.2198 1.7364 37.6545 1.20212C37.0868 0.67023 36.8054 0.353004 36.8054 0.252827C36.8054 0.0858661 36.9557 0.00238567 37.2562 0.00238567H49.6089C50.0096 0.00238567 50.21 0.169347 50.21 0.503269C50.21 0.536661 50.21 0.58675 50.21 0.653534L44.0563 23.8564C43.9227 24.2571 43.6055 24.4574 43.107 24.4574H33.5544Z" fill="white"/>
<path d="M63.1113 8.9038H73.4629C74.7628 8.9038 75.8385 9.22818 76.6876 9.87933C77.5367 10.5305 77.9637 11.3724 77.9637 12.4052C77.9637 12.7391 77.9136 13.0564 77.8134 13.3545L76.0627 20.0043C75.7288 21.2375 74.9131 22.2893 73.6132 23.1551C72.3132 24.0233 70.8798 24.455 69.3127 24.455H47.8582C47.6245 24.455 47.5076 24.405 47.5076 24.3048C47.5076 24.238 47.5911 24.1378 47.758 24.0043C49.5588 22.8379 50.7252 22.2535 51.2595 22.2535H63.5621C64.094 22.2535 64.4112 22.0365 64.5114 21.6024C65.4774 17.9364 65.9616 16.0855 65.9616 16.0521C65.9616 15.7182 65.7612 15.5512 65.3605 15.5512H55.0089C53.709 15.5512 52.6333 15.2269 51.7842 14.5757C50.9351 13.9246 50.5081 13.085 50.5081 12.0498C50.5081 11.7493 50.5582 11.4488 50.6584 11.1506L52.4091 4.45071C52.743 3.25097 53.5587 2.20866 54.8587 1.32615C56.1586 0.44364 57.592 0 59.1591 0H80.6112C80.845 0 80.9618 0.0500886 80.9618 0.150265C80.9618 0.250442 80.8783 0.350618 80.7114 0.450795C78.9106 1.65053 77.7443 2.25159 77.21 2.25159H64.9073C64.3731 2.25159 64.0582 2.45194 63.958 2.85265C62.9897 6.52103 62.5079 8.36953 62.5079 8.40292C62.5102 8.73923 62.7106 8.9038 63.1113 8.9038Z" fill="white"/>
<path d="M4.75124 1.20451C4.18357 0.672615 3.90212 0.355389 3.90212 0.255212C3.90212 0.0882509 4.05239 0.00477043 4.35292 0.00477043H28.5575C29.8574 0.00477043 30.9331 0.338693 31.7822 1.00415C32.6314 1.672 33.0583 2.52111 33.0583 3.55389C33.0583 3.85442 33.0249 4.15495 32.9581 4.45309L28.8079 20.0067C28.5074 21.2399 27.6989 22.2917 26.3822 23.1575C25.0656 24.0257 23.6393 24.4574 22.1056 24.4574H0.651148C0.217049 24.4574 0 24.3072 0 24.0066C0 23.9399 0 23.8898 0 23.8564L5.60035 2.85265C5.60035 2.78587 5.60035 2.70239 5.60035 2.60221C5.60035 2.20389 5.3189 1.7364 4.75124 1.20451ZM16.72 2.85742L11.7159 21.6096C11.7159 21.6763 11.7111 21.7264 11.7016 21.7598C11.7016 22.0914 11.9186 22.2559 12.3527 22.2559H16.3526C16.8535 22.2559 17.1684 22.0389 17.3019 21.6048L22.2535 2.85265C22.2869 2.81926 22.3036 2.76917 22.3036 2.70239C22.3036 2.40186 22.0866 2.25159 21.6549 2.25159H17.6669C17.1326 2.25398 16.8178 2.45433 16.72 2.85742Z" fill="white"/>
<path d="M33.5544 24.4574C33.1203 24.4574 32.9033 24.3072 32.9033 24.0066C32.9033 23.9399 32.9033 23.8898 32.9033 23.8564L38.5036 2.85265C38.5036 2.78587 38.5036 2.70239 38.5036 2.60221C38.5036 2.2015 38.2198 1.7364 37.6545 1.20212C37.0868 0.67023 36.8054 0.353004 36.8054 0.252827C36.8054 0.0858661 36.9557 0.00238567 37.2562 0.00238567H49.6089C50.0096 0.00238567 50.21 0.169347 50.21 0.503269C50.21 0.536661 50.21 0.58675 50.21 0.653534L44.0563 23.8564C43.9227 24.2571 43.6055 24.4574 43.107 24.4574H33.5544Z" fill="white"/>
<path d="M63.1113 8.9038H73.4629C74.7628 8.9038 75.8385 9.22818 76.6876 9.87933C77.5367 10.5305 77.9637 11.3724 77.9637 12.4052C77.9637 12.7391 77.9136 13.0564 77.8134 13.3545L76.0627 20.0043C75.7288 21.2375 74.9131 22.2893 73.6132 23.1551C72.3132 24.0233 70.8798 24.455 69.3127 24.455H47.8582C47.6245 24.455 47.5076 24.405 47.5076 24.3048C47.5076 24.238 47.5911 24.1378 47.758 24.0043C49.5588 22.8379 50.7252 22.2535 51.2595 22.2535H63.5621C64.094 22.2535 64.4112 22.0365 64.5114 21.6024C65.4774 17.9364 65.9616 16.0855 65.9616 16.0521C65.9616 15.7182 65.7612 15.5512 65.3605 15.5512H55.0089C53.709 15.5512 52.6333 15.2269 51.7842 14.5757C50.9351 13.9246 50.5081 13.085 50.5081 12.0498C50.5081 11.7493 50.5582 11.4488 50.6584 11.1506L52.4091 4.45071C52.743 3.25097 53.5587 2.20866 54.8587 1.32615C56.1586 0.44364 57.592 0 59.1591 0H80.6112C80.845 0 80.9618 0.0500886 80.9618 0.150265C80.9618 0.250442 80.8783 0.350618 80.7114 0.450795C78.9106 1.65053 77.7443 2.25159 77.21 2.25159H64.9073C64.3731 2.25159 64.0582 2.45194 63.958 2.85265C62.9897 6.52103 62.5079 8.36953 62.5079 8.40292C62.5102 8.73923 62.7106 8.9038 63.1113 8.9038Z" fill="white"/>
<path d="M4.75124 1.20451C4.18357 0.672615 3.90212 0.355389 3.90212 0.255212C3.90212 0.0882509 4.05239 0.00477043 4.35292 0.00477043H28.5575C29.8574 0.00477043 30.9331 0.338693 31.7822 1.00415C32.6314 1.672 33.0583 2.52111 33.0583 3.55389C33.0583 3.85442 33.0249 4.15495 32.9581 4.45309L28.8079 20.0067C28.5074 21.2399 27.6989 22.2917 26.3822 23.1575C25.0656 24.0257 23.6393 24.4574 22.1056 24.4574H0.651148C0.217049 24.4574 0 24.3072 0 24.0066C0 23.9399 0 23.8898 0 23.8564L5.60035 2.85265C5.60035 2.78587 5.60035 2.70239 5.60035 2.60221C5.60035 2.20389 5.3189 1.7364 4.75124 1.20451ZM16.72 2.85742L11.7159 21.6096C11.7159 21.6763 11.7111 21.7264 11.7016 21.7598C11.7016 22.0914 11.9186 22.2559 12.3527 22.2559H16.3526C16.8535 22.2559 17.1684 22.0389 17.3019 21.6048L22.2535 2.85265C22.2869 2.81926 22.3036 2.76917 22.3036 2.70239C22.3036 2.40186 22.0866 2.25159 21.6549 2.25159H17.6669C17.1326 2.25398 16.8178 2.45433 16.72 2.85742Z" fill="white"/>
<path d="M33.5544 24.4574C33.1203 24.4574 32.9033 24.3072 32.9033 24.0066C32.9033 23.9399 32.9033 23.8898 32.9033 23.8564L38.5036 2.85265C38.5036 2.78587 38.5036 2.70239 38.5036 2.60221C38.5036 2.2015 38.2198 1.7364 37.6545 1.20212C37.0868 0.67023 36.8054 0.353004 36.8054 0.252827C36.8054 0.0858661 36.9557 0.00238567 37.2562 0.00238567H49.6089C50.0096 0.00238567 50.21 0.169347 50.21 0.503269C50.21 0.536661 50.21 0.58675 50.21 0.653534L44.0563 23.8564C43.9227 24.2571 43.6055 24.4574 43.107 24.4574H33.5544Z" fill="white"/>
<path d="M63.1113 8.9038H73.4629C74.7628 8.9038 75.8385 9.22818 76.6876 9.87933C77.5367 10.5305 77.9637 11.3724 77.9637 12.4052C77.9637 12.7391 77.9136 13.0564 77.8134 13.3545L76.0627 20.0043C75.7288 21.2375 74.9131 22.2893 73.6132 23.1551C72.3132 24.0233 70.8798 24.455 69.3127 24.455H47.8582C47.6245 24.455 47.5076 24.405 47.5076 24.3048C47.5076 24.238 47.5911 24.1378 47.758 24.0043C49.5588 22.8379 50.7252 22.2535 51.2595 22.2535H63.5621C64.094 22.2535 64.4112 22.0365 64.5114 21.6024C65.4774 17.9364 65.9616 16.0855 65.9616 16.0521C65.9616 15.7182 65.7612 15.5512 65.3605 15.5512H55.0089C53.709 15.5512 52.6333 15.2269 51.7842 14.5757C50.9351 13.9246 50.5081 13.085 50.5081 12.0498C50.5081 11.7493 50.5582 11.4488 50.6584 11.1506L52.4091 4.45071C52.743 3.25097 53.5587 2.20866 54.8587 1.32615C56.1586 0.44364 57.592 0 59.1591 0H80.6112C80.845 0 80.9618 0.0500886 80.9618 0.150265C80.9618 0.250442 80.8783 0.350618 80.7114 0.450795C78.9106 1.65053 77.7443 2.25159 77.21 2.25159H64.9073C64.3731 2.25159 64.0582 2.45194 63.958 2.85265C62.9897 6.52103 62.5079 8.36953 62.5079 8.40292C62.5102 8.73923 62.7106 8.9038 63.1113 8.9038Z" fill="white"/>
<path d="M111.367 15.5536L110.167 20.0043C109.866 21.2375 109.058 22.2893 107.741 23.1551C106.425 24.0233 104.982 24.4551 103.415 24.4551H82.0125C81.5784 24.4551 81.3613 24.3048 81.3613 24.0043C81.3613 23.9375 81.3613 23.8874 81.3613 23.854L86.9617 2.85027C86.9617 2.78348 86.9617 2.7 86.9617 2.59983C86.9617 2.19912 86.6778 1.73401 86.1126 1.19974C85.5449 0.667845 85.2634 0.350621 85.2634 0.250444C85.2634 0.0834827 85.4137 0 85.7142 0H109.919C111.219 0 112.294 0.333926 113.144 0.999386C113.993 1.66723 114.42 2.51635 114.42 3.54912C114.42 3.84965 114.386 4.15018 114.319 4.44832L113.12 8.89903C112.853 9.99859 111.77 11.1172 109.869 12.2502C110.935 13.1828 111.469 13.9842 111.469 14.6497C111.467 14.955 111.433 15.2531 111.367 15.5536ZM97.7187 22.2559C98.2172 22.2559 98.5321 22.0389 98.6657 21.6048C99.999 16.4695 100.664 13.8864 100.664 13.853C100.664 13.5191 100.466 13.3545 100.068 13.3545H96.0873C95.5554 13.3545 95.2406 13.5739 95.1428 14.0104C93.7761 19.1457 93.0915 21.7288 93.0915 21.7622C93.0915 22.0914 93.3062 22.2559 93.7379 22.2559H97.7187ZM98.0884 2.85742C96.7122 8.02368 96.0253 10.6235 96.0253 10.6545C96.0253 10.986 96.2399 11.1506 96.6717 11.1506H100.655C101.153 11.1506 101.468 10.9336 101.602 10.4971C102.976 5.36422 103.663 2.76679 103.663 2.7C103.663 2.39947 103.448 2.24921 103.016 2.24921H99.033C98.5035 2.25159 98.1886 2.45433 98.0884 2.85742Z" fill="white"/>
<path d="M119.316 20.6054L116.967 23.8564C116.7 24.2571 116.299 24.4574 115.767 24.4574H111.817C111.483 24.4574 111.317 24.3573 111.317 24.1569C111.317 24.0901 116.185 17.29 125.918 3.75424C126.119 3.45371 126.219 3.13887 126.219 2.80495C126.219 2.5712 126.145 2.20389 125.995 1.70539C125.845 1.2045 125.771 0.839577 125.771 0.605831C125.771 0.271909 125.988 0.104948 126.422 0.104948L138.925 0.00477236C139.457 0.00477236 139.774 0.205124 139.874 0.605831L145.076 23.9088V24.009C145.076 24.3096 144.859 24.4598 144.425 24.4598H132.072C131.571 24.4598 131.273 24.2762 131.173 23.9088L130.324 20.6078C130.224 20.2071 129.923 20.0067 129.425 20.0067H120.573C120.034 20.0043 119.617 20.2047 119.316 20.6054ZM127.819 9.20195C127.786 9.03499 127.719 8.95151 127.619 8.95151C127.486 8.95151 127.369 9.03499 127.268 9.20195L121.768 17.2042C121.702 17.3377 121.668 17.4379 121.668 17.5047C121.668 17.705 121.818 17.8052 122.119 17.8052H128.969C129.37 17.8052 129.57 17.6383 129.57 17.3043L127.819 9.20195Z" fill="white"/>
<path d="M148.122 24.4551C147.688 24.4551 147.471 24.3048 147.471 24.0043C147.471 23.9375 147.471 23.8874 147.471 23.854L153.071 2.85027C153.105 2.78348 153.121 2.7 153.121 2.59983C153.121 2.19912 152.828 1.73401 152.246 1.19974C151.661 0.667845 151.371 0.350621 151.371 0.250444C151.371 0.0834827 151.521 0 151.821 0H164.174C164.575 0 164.775 0.166965 164.775 0.500888C164.775 0.53428 164.775 0.584364 164.775 0.651149L159.175 21.6048C159.175 21.6716 159.175 21.7217 159.175 21.755C159.175 22.089 159.392 22.2559 159.826 22.2559H172.129C172.396 22.2559 172.529 22.306 172.529 22.4062C172.529 22.473 172.429 22.5732 172.229 22.7067L170.228 24.0066C169.793 24.3072 169.328 24.4574 168.827 24.4574H148.122V24.4551Z" fill="white"/>
<path d="M181.025 20.6054L178.676 23.8564C178.409 24.2571 178.008 24.4574 177.476 24.4574H173.526C173.192 24.4574 173.025 24.3573 173.025 24.1569C173.025 24.0901 177.893 17.29 187.627 3.75424C187.828 3.45371 187.928 3.13887 187.928 2.80495C187.928 2.5712 187.854 2.20389 187.704 1.70539C187.553 1.2045 187.479 0.839577 187.479 0.605831C187.479 0.271909 187.696 0.104948 188.131 0.104948L200.634 0.00477236C201.165 0.00477236 201.483 0.205124 201.583 0.605831L206.783 23.9088V24.009C206.783 24.3096 206.565 24.4598 206.131 24.4598H193.779C193.278 24.4598 192.98 24.2762 192.879 23.9088L192.03 20.6078C191.93 20.2071 191.63 20.0067 191.131 20.0067H182.28C181.743 20.0043 181.326 20.2047 181.025 20.6054ZM189.528 9.20195C189.495 9.03499 189.428 8.95151 189.328 8.95151C189.194 8.95151 189.077 9.03499 188.977 9.20195L183.477 17.2042C183.41 17.3377 183.377 17.4379 183.377 17.5047C183.377 17.705 183.527 17.8052 183.828 17.8052H190.678C191.079 17.8052 191.279 17.6383 191.279 17.3043L189.528 9.20195Z" fill="white"/>
<path d="M213.881 1.20212C213.313 0.670231 213.032 0.353007 213.032 0.25283C213.032 0.0858689 213.182 0.00238618 213.482 0.00238618H225.785C226.317 0.00238618 226.668 0.186041 226.835 0.553356L233.136 16.1547C233.17 16.2549 233.236 16.3384 233.336 16.4051C233.437 16.4051 233.503 16.305 233.537 16.1046L237.537 0.651149C237.637 0.219435 237.954 0 238.486 0H242.486C242.92 0 243.137 0.166965 243.137 0.500888C243.137 0.53428 243.12 0.584364 243.087 0.651149L236.936 23.854C236.836 24.2547 236.518 24.4551 235.986 24.4551H226.434C225.9 24.4551 225.566 24.2714 225.434 23.9041L219.083 8.30274C219.049 8.20257 218.983 8.13578 218.882 8.10239C218.816 8.10239 218.749 8.20257 218.682 8.40292L214.732 23.8564C214.599 24.2571 214.281 24.4574 213.783 24.4574H209.783C209.349 24.4574 209.132 24.3072 209.132 24.0066C209.132 23.9399 209.132 23.8898 209.132 23.8564L214.732 2.85265C214.732 2.78587 214.732 2.70239 214.732 2.60221C214.73 2.20151 214.448 1.7364 213.881 1.20212Z" fill="white"/>
<path d="M262.137 11.153C261.703 11.153 261.486 10.9861 261.486 10.6521C261.486 9.98667 261.827 8.63428 262.512 6.60212C263.194 4.56997 263.537 3.26767 263.537 2.70239C263.537 2.40186 263.337 2.25159 262.939 2.25159H258.948C258.416 2.25159 258.102 2.45433 258.001 2.85504L252.995 21.6072C252.995 21.674 252.993 21.724 252.985 21.7574C252.985 22.0914 253.202 22.2559 253.637 22.2559H257.586C258.118 22.2559 258.436 22.0389 258.536 21.6048L260.587 14.0033C260.687 13.5716 261.004 13.3521 261.536 13.3521H271.089C271.52 13.3521 271.74 13.5191 271.74 13.853C271.74 13.9198 271.189 15.971 270.089 20.0043C269.755 21.2375 268.94 22.2893 267.64 23.1551C266.34 24.0233 264.906 24.4551 263.339 24.4551H246.686C245.386 24.4551 244.311 24.1307 243.461 23.4795C242.612 22.8284 242.185 21.9888 242.185 20.9536C242.185 20.6531 242.236 20.3383 242.336 20.0043L246.436 4.45071C246.77 3.25097 247.585 2.20866 248.885 1.32615C250.185 0.443642 251.619 0 253.186 0H269.839C271.139 0 272.215 0.333926 273.064 0.999386C273.913 1.66723 274.34 2.51635 274.34 3.54912C274.34 3.84965 274.306 4.15018 274.24 4.44832L272.639 10.4995C272.506 10.9336 272.188 11.1506 271.69 11.1506H262.137V11.153Z" fill="white"/>
<path d="M304.395 0.00238618C304.827 0.00238618 305.046 0.169348 305.046 0.50327C305.046 1.66961 304.629 2.25398 303.796 2.25398H291.491C290.957 2.25398 290.642 2.45433 290.542 2.85504C289.175 7.99029 288.491 10.5901 288.491 10.6569C288.491 10.9908 288.708 11.1578 289.142 11.1578H301.445C301.712 11.1578 301.845 11.2079 301.845 11.308C301.845 11.3748 301.745 11.4583 301.545 11.5585L299.544 12.9085C299.11 13.209 298.625 13.3593 298.094 13.3593H288.541C288.007 13.3593 287.692 13.5763 287.592 14.0104C286.225 19.1457 285.54 21.7288 285.54 21.7622C285.54 22.0961 285.757 22.2631 286.192 22.2631H298.494C298.761 22.2631 298.895 22.3132 298.895 22.4134C298.895 22.4801 298.795 22.5803 298.594 22.7139L296.593 24.0138C296.159 24.3143 295.694 24.4646 295.193 24.4646H274.49C274.056 24.4646 273.839 24.3143 273.839 24.0138C273.839 23.947 273.839 23.8969 273.839 23.8635L279.439 2.85981C279.439 2.79303 279.439 2.70954 279.439 2.60937C279.439 2.20866 279.155 1.74355 278.59 1.20928C278.022 0.677386 277.741 0.360161 277.741 0.259985C277.741 0.0930234 277.891 0.00954068 278.192 0.00954068H304.395V0.00238618Z" fill="white"/>
<path d="M335.898 4.4531L333.549 13.3545C333.282 14.3539 332.564 15.2626 331.398 16.0808C330.231 16.8989 328.979 17.4236 327.648 17.655C327.681 17.8219 328.149 18.9143 329.048 20.9298C329.947 22.9476 330.398 23.9899 330.398 24.0543C330.398 24.3215 330.198 24.4551 329.799 24.4551H320.254C319.722 24.4551 319.388 24.2714 319.255 23.9041L317.306 18.3538C317.139 17.9865 316.839 17.8028 316.407 17.8028C315.939 17.8028 315.641 18.0032 315.508 18.4039L314.107 23.8588C313.974 24.2571 313.657 24.4551 313.156 24.4551H303.594C303.16 24.4551 302.943 24.3048 302.943 24.0043C302.943 23.9375 302.943 23.8874 302.943 23.854L308.543 2.85027C308.543 2.78348 308.543 2.7 308.543 2.59983C308.543 2.19912 308.259 1.73401 307.694 1.19974C307.126 0.667845 306.845 0.350621 306.845 0.250444C306.845 0.0834827 306.995 0 307.295 0H331.5C332.8 0 333.876 0.333926 334.725 0.999386C335.574 1.66723 336.001 2.51635 336.001 3.54912C335.999 3.85204 335.965 4.15257 335.898 4.4531ZM321.051 15.5536C321.583 15.5536 321.897 15.3533 321.998 14.9526L325.198 2.85027C325.232 2.81687 325.249 2.76679 325.249 2.7C325.249 2.39947 325.032 2.24921 324.6 2.24921H320.609C320.078 2.24921 319.76 2.45195 319.663 2.85265L316.462 14.955C316.462 14.9883 316.447 15.0408 316.421 15.1076C316.421 15.4034 316.636 15.5512 317.067 15.5512H321.051V15.5536Z" fill="white"/>
<path d="M111.367 15.5536L110.167 20.0043C109.866 21.2375 109.058 22.2893 107.741 23.1551C106.425 24.0233 104.982 24.4551 103.415 24.4551H82.0125C81.5784 24.4551 81.3613 24.3048 81.3613 24.0043C81.3613 23.9375 81.3613 23.8874 81.3613 23.854L86.9617 2.85027C86.9617 2.78348 86.9617 2.7 86.9617 2.59983C86.9617 2.19912 86.6778 1.73401 86.1126 1.19974C85.5449 0.667845 85.2634 0.350621 85.2634 0.250444C85.2634 0.0834827 85.4137 0 85.7142 0H109.919C111.219 0 112.294 0.333926 113.144 0.999386C113.993 1.66723 114.42 2.51635 114.42 3.54912C114.42 3.84965 114.386 4.15018 114.319 4.44832L113.12 8.89903C112.853 9.99859 111.77 11.1172 109.869 12.2502C110.935 13.1828 111.469 13.9842 111.469 14.6497C111.467 14.955 111.433 15.2531 111.367 15.5536ZM97.7187 22.2559C98.2172 22.2559 98.5321 22.0389 98.6657 21.6048C99.999 16.4695 100.664 13.8864 100.664 13.853C100.664 13.5191 100.466 13.3545 100.068 13.3545H96.0873C95.5554 13.3545 95.2406 13.5739 95.1428 14.0104C93.7761 19.1457 93.0915 21.7288 93.0915 21.7622C93.0915 22.0914 93.3062 22.2559 93.7379 22.2559H97.7187ZM98.0884 2.85742C96.7122 8.02368 96.0253 10.6235 96.0253 10.6545C96.0253 10.986 96.2399 11.1506 96.6717 11.1506H100.655C101.153 11.1506 101.468 10.9336 101.602 10.4971C102.976 5.36422 103.663 2.76679 103.663 2.7C103.663 2.39947 103.448 2.24921 103.016 2.24921H99.033C98.5035 2.25159 98.1886 2.45433 98.0884 2.85742Z" fill="white"/>
<path d="M119.316 20.6054L116.967 23.8564C116.7 24.2571 116.299 24.4574 115.767 24.4574H111.817C111.483 24.4574 111.317 24.3573 111.317 24.1569C111.317 24.0901 116.185 17.29 125.918 3.75424C126.119 3.45371 126.219 3.13887 126.219 2.80495C126.219 2.5712 126.145 2.20389 125.995 1.70539C125.845 1.2045 125.771 0.839577 125.771 0.605831C125.771 0.271909 125.988 0.104948 126.422 0.104948L138.925 0.00477236C139.457 0.00477236 139.774 0.205124 139.874 0.605831L145.076 23.9088V24.009C145.076 24.3096 144.859 24.4598 144.425 24.4598H132.072C131.571 24.4598 131.273 24.2762 131.173 23.9088L130.324 20.6078C130.224 20.2071 129.923 20.0067 129.425 20.0067H120.573C120.034 20.0043 119.617 20.2047 119.316 20.6054ZM127.819 9.20195C127.786 9.03499 127.719 8.95151 127.619 8.95151C127.486 8.95151 127.369 9.03499 127.268 9.20195L121.768 17.2042C121.702 17.3377 121.668 17.4379 121.668 17.5047C121.668 17.705 121.818 17.8052 122.119 17.8052H128.969C129.37 17.8052 129.57 17.6383 129.57 17.3043L127.819 9.20195Z" fill="white"/>
<path d="M148.122 24.4551C147.688 24.4551 147.471 24.3048 147.471 24.0043C147.471 23.9375 147.471 23.8874 147.471 23.854L153.071 2.85027C153.105 2.78348 153.121 2.7 153.121 2.59983C153.121 2.19912 152.828 1.73401 152.246 1.19974C151.661 0.667845 151.371 0.350621 151.371 0.250444C151.371 0.0834827 151.521 0 151.821 0H164.174C164.575 0 164.775 0.166965 164.775 0.500888C164.775 0.53428 164.775 0.584364 164.775 0.651149L159.175 21.6048C159.175 21.6716 159.175 21.7217 159.175 21.755C159.175 22.089 159.392 22.2559 159.826 22.2559H172.129C172.396 22.2559 172.529 22.306 172.529 22.4062C172.529 22.473 172.429 22.5732 172.229 22.7067L170.228 24.0066C169.793 24.3072 169.328 24.4574 168.827 24.4574H148.122V24.4551Z" fill="white"/>
<path d="M181.025 20.6054L178.676 23.8564C178.409 24.2571 178.008 24.4574 177.476 24.4574H173.526C173.192 24.4574 173.025 24.3573 173.025 24.1569C173.025 24.0901 177.893 17.29 187.627 3.75424C187.828 3.45371 187.928 3.13887 187.928 2.80495C187.928 2.5712 187.854 2.20389 187.704 1.70539C187.553 1.2045 187.479 0.839577 187.479 0.605831C187.479 0.271909 187.696 0.104948 188.131 0.104948L200.634 0.00477236C201.165 0.00477236 201.483 0.205124 201.583 0.605831L206.783 23.9088V24.009C206.783 24.3096 206.565 24.4598 206.131 24.4598H193.779C193.278 24.4598 192.98 24.2762 192.879 23.9088L192.03 20.6078C191.93 20.2071 191.63 20.0067 191.131 20.0067H182.28C181.743 20.0043 181.326 20.2047 181.025 20.6054ZM189.528 9.20195C189.495 9.03499 189.428 8.95151 189.328 8.95151C189.194 8.95151 189.077 9.03499 188.977 9.20195L183.477 17.2042C183.41 17.3377 183.377 17.4379 183.377 17.5047C183.377 17.705 183.527 17.8052 183.828 17.8052H190.678C191.079 17.8052 191.279 17.6383 191.279 17.3043L189.528 9.20195Z" fill="white"/>
<path d="M213.881 1.20212C213.313 0.670231 213.032 0.353007 213.032 0.25283C213.032 0.0858689 213.182 0.00238618 213.482 0.00238618H225.785C226.317 0.00238618 226.668 0.186041 226.835 0.553356L233.136 16.1547C233.17 16.2549 233.236 16.3384 233.336 16.4051C233.437 16.4051 233.503 16.305 233.537 16.1046L237.537 0.651149C237.637 0.219435 237.954 0 238.486 0H242.486C242.92 0 243.137 0.166965 243.137 0.500888C243.137 0.53428 243.12 0.584364 243.087 0.651149L236.936 23.854C236.836 24.2547 236.518 24.4551 235.986 24.4551H226.434C225.9 24.4551 225.566 24.2714 225.434 23.9041L219.083 8.30274C219.049 8.20257 218.983 8.13578 218.882 8.10239C218.816 8.10239 218.749 8.20257 218.682 8.40292L214.732 23.8564C214.599 24.2571 214.281 24.4574 213.783 24.4574H209.783C209.349 24.4574 209.132 24.3072 209.132 24.0066C209.132 23.9399 209.132 23.8898 209.132 23.8564L214.732 2.85265C214.732 2.78587 214.732 2.70239 214.732 2.60221C214.73 2.20151 214.448 1.7364 213.881 1.20212Z" fill="white"/>
<path d="M262.137 11.153C261.703 11.153 261.486 10.9861 261.486 10.6521C261.486 9.98667 261.827 8.63428 262.512 6.60212C263.194 4.56997 263.537 3.26767 263.537 2.70239C263.537 2.40186 263.337 2.25159 262.939 2.25159H258.948C258.416 2.25159 258.102 2.45433 258.001 2.85504L252.995 21.6072C252.995 21.674 252.993 21.724 252.985 21.7574C252.985 22.0914 253.202 22.2559 253.637 22.2559H257.586C258.118 22.2559 258.436 22.0389 258.536 21.6048L260.587 14.0033C260.687 13.5716 261.004 13.3521 261.536 13.3521H271.089C271.52 13.3521 271.74 13.5191 271.74 13.853C271.74 13.9198 271.189 15.971 270.089 20.0043C269.755 21.2375 268.94 22.2893 267.64 23.1551C266.34 24.0233 264.906 24.4551 263.339 24.4551H246.686C245.386 24.4551 244.311 24.1307 243.461 23.4795C242.612 22.8284 242.185 21.9888 242.185 20.9536C242.185 20.6531 242.236 20.3383 242.336 20.0043L246.436 4.45071C246.77 3.25097 247.585 2.20866 248.885 1.32615C250.185 0.443642 251.619 0 253.186 0H269.839C271.139 0 272.215 0.333926 273.064 0.999386C273.913 1.66723 274.34 2.51635 274.34 3.54912C274.34 3.84965 274.306 4.15018 274.24 4.44832L272.639 10.4995C272.506 10.9336 272.188 11.1506 271.69 11.1506H262.137V11.153Z" fill="white"/>
<path d="M304.395 0.00238618C304.827 0.00238618 305.046 0.169348 305.046 0.50327C305.046 1.66961 304.629 2.25398 303.796 2.25398H291.491C290.957 2.25398 290.642 2.45433 290.542 2.85504C289.175 7.99029 288.491 10.5901 288.491 10.6569C288.491 10.9908 288.708 11.1578 289.142 11.1578H301.445C301.712 11.1578 301.845 11.2079 301.845 11.308C301.845 11.3748 301.745 11.4583 301.545 11.5585L299.544 12.9085C299.11 13.209 298.625 13.3593 298.094 13.3593H288.541C288.007 13.3593 287.692 13.5763 287.592 14.0104C286.225 19.1457 285.54 21.7288 285.54 21.7622C285.54 22.0961 285.757 22.2631 286.192 22.2631H298.494C298.761 22.2631 298.895 22.3132 298.895 22.4134C298.895 22.4801 298.795 22.5803 298.594 22.7139L296.593 24.0138C296.159 24.3143 295.694 24.4646 295.193 24.4646H274.49C274.056 24.4646 273.839 24.3143 273.839 24.0138C273.839 23.947 273.839 23.8969 273.839 23.8635L279.439 2.85981C279.439 2.79303 279.439 2.70954 279.439 2.60937C279.439 2.20866 279.155 1.74355 278.59 1.20928C278.022 0.677386 277.741 0.360161 277.741 0.259985C277.741 0.0930234 277.891 0.00954068 278.192 0.00954068H304.395V0.00238618Z" fill="white"/>
<path d="M335.898 4.4531L333.549 13.3545C333.282 14.3539 332.564 15.2626 331.398 16.0808C330.231 16.8989 328.979 17.4236 327.648 17.655C327.681 17.8219 328.149 18.9143 329.048 20.9298C329.947 22.9476 330.398 23.9899 330.398 24.0543C330.398 24.3215 330.198 24.4551 329.799 24.4551H320.254C319.722 24.4551 319.388 24.2714 319.255 23.9041L317.306 18.3538C317.139 17.9865 316.839 17.8028 316.407 17.8028C315.939 17.8028 315.641 18.0032 315.508 18.4039L314.107 23.8588C313.974 24.2571 313.657 24.4551 313.156 24.4551H303.594C303.16 24.4551 302.943 24.3048 302.943 24.0043C302.943 23.9375 302.943 23.8874 302.943 23.854L308.543 2.85027C308.543 2.78348 308.543 2.7 308.543 2.59983C308.543 2.19912 308.259 1.73401 307.694 1.19974C307.126 0.667845 306.845 0.350621 306.845 0.250444C306.845 0.0834827 306.995 0 307.295 0H331.5C332.8 0 333.876 0.333926 334.725 0.999386C335.574 1.66723 336.001 2.51635 336.001 3.54912C335.999 3.85204 335.965 4.15257 335.898 4.4531ZM321.051 15.5536C321.583 15.5536 321.897 15.3533 321.998 14.9526L325.198 2.85027C325.232 2.81687 325.249 2.76679 325.249 2.7C325.249 2.39947 325.032 2.24921 324.6 2.24921H320.609C320.078 2.24921 319.76 2.45195 319.663 2.85265L316.462 14.955C316.462 14.9883 316.447 15.0408 316.421 15.1076C316.421 15.4034 316.636 15.5512 317.067 15.5512H321.051V15.5536Z" fill="white"/>
<path d="M111.367 15.5536L110.167 20.0043C109.866 21.2375 109.058 22.2893 107.741 23.1551C106.425 24.0233 104.982 24.4551 103.415 24.4551H82.0125C81.5784 24.4551 81.3613 24.3048 81.3613 24.0043C81.3613 23.9375 81.3613 23.8874 81.3613 23.854L86.9617 2.85027C86.9617 2.78348 86.9617 2.7 86.9617 2.59983C86.9617 2.19912 86.6778 1.73401 86.1126 1.19974C85.5449 0.667845 85.2634 0.350621 85.2634 0.250444C85.2634 0.0834827 85.4137 0 85.7142 0H109.919C111.219 0 112.294 0.333926 113.144 0.999386C113.993 1.66723 114.42 2.51635 114.42 3.54912C114.42 3.84965 114.386 4.15018 114.319 4.44832L113.12 8.89903C112.853 9.99859 111.77 11.1172 109.869 12.2502C110.935 13.1828 111.469 13.9842 111.469 14.6497C111.467 14.955 111.433 15.2531 111.367 15.5536ZM97.7187 22.2559C98.2172 22.2559 98.5321 22.0389 98.6657 21.6048C99.999 16.4695 100.664 13.8864 100.664 13.853C100.664 13.5191 100.466 13.3545 100.068 13.3545H96.0873C95.5554 13.3545 95.2406 13.5739 95.1428 14.0104C93.7761 19.1457 93.0915 21.7288 93.0915 21.7622C93.0915 22.0914 93.3062 22.2559 93.7379 22.2559H97.7187ZM98.0884 2.85742C96.7122 8.02368 96.0253 10.6235 96.0253 10.6545C96.0253 10.986 96.2399 11.1506 96.6717 11.1506H100.655C101.153 11.1506 101.468 10.9336 101.602 10.4971C102.976 5.36422 103.663 2.76679 103.663 2.7C103.663 2.39947 103.448 2.24921 103.016 2.24921H99.033C98.5035 2.25159 98.1886 2.45433 98.0884 2.85742Z" fill="white"/>
<path d="M119.316 20.6054L116.967 23.8564C116.7 24.2571 116.299 24.4574 115.767 24.4574H111.817C111.483 24.4574 111.317 24.3573 111.317 24.1569C111.317 24.0901 116.185 17.29 125.918 3.75424C126.119 3.45371 126.219 3.13887 126.219 2.80495C126.219 2.5712 126.145 2.20389 125.995 1.70539C125.845 1.2045 125.771 0.839577 125.771 0.605831C125.771 0.271909 125.988 0.104948 126.422 0.104948L138.925 0.00477236C139.457 0.00477236 139.774 0.205124 139.874 0.605831L145.076 23.9088V24.009C145.076 24.3096 144.859 24.4598 144.425 24.4598H132.072C131.571 24.4598 131.273 24.2762 131.173 23.9088L130.324 20.6078C130.224 20.2071 129.923 20.0067 129.425 20.0067H120.573C120.034 20.0043 119.617 20.2047 119.316 20.6054ZM127.819 9.20195C127.786 9.03499 127.719 8.95151 127.619 8.95151C127.486 8.95151 127.369 9.03499 127.268 9.20195L121.768 17.2042C121.702 17.3377 121.668 17.4379 121.668 17.5047C121.668 17.705 121.818 17.8052 122.119 17.8052H128.969C129.37 17.8052 129.57 17.6383 129.57 17.3043L127.819 9.20195Z" fill="white"/>
<path d="M148.122 24.4551C147.688 24.4551 147.471 24.3048 147.471 24.0043C147.471 23.9375 147.471 23.8874 147.471 23.854L153.071 2.85027C153.105 2.78348 153.121 2.7 153.121 2.59983C153.121 2.19912 152.828 1.73401 152.246 1.19974C151.661 0.667845 151.371 0.350621 151.371 0.250444C151.371 0.0834827 151.521 0 151.821 0H164.174C164.575 0 164.775 0.166965 164.775 0.500888C164.775 0.53428 164.775 0.584364 164.775 0.651149L159.175 21.6048C159.175 21.6716 159.175 21.7217 159.175 21.755C159.175 22.089 159.392 22.2559 159.826 22.2559H172.129C172.396 22.2559 172.529 22.306 172.529 22.4062C172.529 22.473 172.429 22.5732 172.229 22.7067L170.228 24.0066C169.793 24.3072 169.328 24.4574 168.827 24.4574H148.122V24.4551Z" fill="white"/>
<path d="M181.025 20.6054L178.676 23.8564C178.409 24.2571 178.008 24.4574 177.476 24.4574H173.526C173.192 24.4574 173.025 24.3573 173.025 24.1569C173.025 24.0901 177.893 17.29 187.627 3.75424C187.828 3.45371 187.928 3.13887 187.928 2.80495C187.928 2.5712 187.854 2.20389 187.704 1.70539C187.553 1.2045 187.479 0.839577 187.479 0.605831C187.479 0.271909 187.696 0.104948 188.131 0.104948L200.634 0.00477236C201.165 0.00477236 201.483 0.205124 201.583 0.605831L206.783 23.9088V24.009C206.783 24.3096 206.565 24.4598 206.131 24.4598H193.779C193.278 24.4598 192.98 24.2762 192.879 23.9088L192.03 20.6078C191.93 20.2071 191.63 20.0067 191.131 20.0067H182.28C181.743 20.0043 181.326 20.2047 181.025 20.6054ZM189.528 9.20195C189.495 9.03499 189.428 8.95151 189.328 8.95151C189.194 8.95151 189.077 9.03499 188.977 9.20195L183.477 17.2042C183.41 17.3377 183.377 17.4379 183.377 17.5047C183.377 17.705 183.527 17.8052 183.828 17.8052H190.678C191.079 17.8052 191.279 17.6383 191.279 17.3043L189.528 9.20195Z" fill="white"/>
<path d="M213.881 1.20212C213.313 0.670231 213.032 0.353007 213.032 0.25283C213.032 0.0858689 213.182 0.00238618 213.482 0.00238618H225.785C226.317 0.00238618 226.668 0.186041 226.835 0.553356L233.136 16.1547C233.17 16.2549 233.236 16.3384 233.336 16.4051C233.437 16.4051 233.503 16.305 233.537 16.1046L237.537 0.651149C237.637 0.219435 237.954 0 238.486 0H242.486C242.92 0 243.137 0.166965 243.137 0.500888C243.137 0.53428 243.12 0.584364 243.087 0.651149L236.936 23.854C236.836 24.2547 236.518 24.4551 235.986 24.4551H226.434C225.9 24.4551 225.566 24.2714 225.434 23.9041L219.083 8.30274C219.049 8.20257 218.983 8.13578 218.882 8.10239C218.816 8.10239 218.749 8.20257 218.682 8.40292L214.732 23.8564C214.599 24.2571 214.281 24.4574 213.783 24.4574H209.783C209.349 24.4574 209.132 24.3072 209.132 24.0066C209.132 23.9399 209.132 23.8898 209.132 23.8564L214.732 2.85265C214.732 2.78587 214.732 2.70239 214.732 2.60221C214.73 2.20151 214.448 1.7364 213.881 1.20212Z" fill="white"/>
<path d="M262.137 11.153C261.703 11.153 261.486 10.9861 261.486 10.6521C261.486 9.98667 261.827 8.63428 262.512 6.60212C263.194 4.56997 263.537 3.26767 263.537 2.70239C263.537 2.40186 263.337 2.25159 262.939 2.25159H258.948C258.416 2.25159 258.102 2.45433 258.001 2.85504L252.995 21.6072C252.995 21.674 252.993 21.724 252.985 21.7574C252.985 22.0914 253.202 22.2559 253.637 22.2559H257.586C258.118 22.2559 258.436 22.0389 258.536 21.6048L260.587 14.0033C260.687 13.5716 261.004 13.3521 261.536 13.3521H271.089C271.52 13.3521 271.74 13.5191 271.74 13.853C271.74 13.9198 271.189 15.971 270.089 20.0043C269.755 21.2375 268.94 22.2893 267.64 23.1551C266.34 24.0233 264.906 24.4551 263.339 24.4551H246.686C245.386 24.4551 244.311 24.1307 243.461 23.4795C242.612 22.8284 242.185 21.9888 242.185 20.9536C242.185 20.6531 242.236 20.3383 242.336 20.0043L246.436 4.45071C246.77 3.25097 247.585 2.20866 248.885 1.32615C250.185 0.443642 251.619 0 253.186 0H269.839C271.139 0 272.215 0.333926 273.064 0.999386C273.913 1.66723 274.34 2.51635 274.34 3.54912C274.34 3.84965 274.306 4.15018 274.24 4.44832L272.639 10.4995C272.506 10.9336 272.188 11.1506 271.69 11.1506H262.137V11.153Z" fill="white"/>
<path d="M304.395 0.00238618C304.827 0.00238618 305.046 0.169348 305.046 0.50327C305.046 1.66961 304.629 2.25398 303.796 2.25398H291.491C290.957 2.25398 290.642 2.45433 290.542 2.85504C289.175 7.99029 288.491 10.5901 288.491 10.6569C288.491 10.9908 288.708 11.1578 289.142 11.1578H301.445C301.712 11.1578 301.845 11.2079 301.845 11.308C301.845 11.3748 301.745 11.4583 301.545 11.5585L299.544 12.9085C299.11 13.209 298.625 13.3593 298.094 13.3593H288.541C288.007 13.3593 287.692 13.5763 287.592 14.0104C286.225 19.1457 285.54 21.7288 285.54 21.7622C285.54 22.0961 285.757 22.2631 286.192 22.2631H298.494C298.761 22.2631 298.895 22.3132 298.895 22.4134C298.895 22.4801 298.795 22.5803 298.594 22.7139L296.593 24.0138C296.159 24.3143 295.694 24.4646 295.193 24.4646H274.49C274.056 24.4646 273.839 24.3143 273.839 24.0138C273.839 23.947 273.839 23.8969 273.839 23.8635L279.439 2.85981C279.439 2.79303 279.439 2.70954 279.439 2.60937C279.439 2.20866 279.155 1.74355 278.59 1.20928C278.022 0.677386 277.741 0.360161 277.741 0.259985C277.741 0.0930234 277.891 0.00954068 278.192 0.00954068H304.395V0.00238618Z" fill="white"/>
<path d="M335.898 4.4531L333.549 13.3545C333.282 14.3539 332.564 15.2626 331.398 16.0808C330.231 16.8989 328.979 17.4236 327.648 17.655C327.681 17.8219 328.149 18.9143 329.048 20.9298C329.947 22.9476 330.398 23.9899 330.398 24.0543C330.398 24.3215 330.198 24.4551 329.799 24.4551H320.254C319.722 24.4551 319.388 24.2714 319.255 23.9041L317.306 18.3538C317.139 17.9865 316.839 17.8028 316.407 17.8028C315.939 17.8028 315.641 18.0032 315.508 18.4039L314.107 23.8588C313.974 24.2571 313.657 24.4551 313.156 24.4551H303.594C303.16 24.4551 302.943 24.3048 302.943 24.0043C302.943 23.9375 302.943 23.8874 302.943 23.854L308.543 2.85027C308.543 2.78348 308.543 2.7 308.543 2.59983C308.543 2.19912 308.259 1.73401 307.694 1.19974C307.126 0.667845 306.845 0.350621 306.845 0.250444C306.845 0.0834827 306.995 0 307.295 0H331.5C332.8 0 333.876 0.333926 334.725 0.999386C335.574 1.66723 336.001 2.51635 336.001 3.54912C335.999 3.85204 335.965 4.15257 335.898 4.4531ZM321.051 15.5536C321.583 15.5536 321.897 15.3533 321.998 14.9526L325.198 2.85027C325.232 2.81687 325.249 2.76679 325.249 2.7C325.249 2.39947 325.032 2.24921 324.6 2.24921H320.609C320.078 2.24921 319.76 2.45195 319.663 2.85265L316.462 14.955C316.462 14.9883 316.447 15.0408 316.421 15.1076C316.421 15.4034 316.636 15.5512 317.067 15.5512H321.051V15.5536Z" fill="white"/>
<path d="M111.367 15.5536L110.167 20.0043C109.866 21.2375 109.058 22.2893 107.741 23.1551C106.425 24.0233 104.982 24.4551 103.415 24.4551H82.0125C81.5784 24.4551 81.3613 24.3048 81.3613 24.0043C81.3613 23.9375 81.3613 23.8874 81.3613 23.854L86.9617 2.85027C86.9617 2.78348 86.9617 2.7 86.9617 2.59983C86.9617 2.19912 86.6778 1.73401 86.1126 1.19974C85.5449 0.667845 85.2634 0.350621 85.2634 0.250444C85.2634 0.0834827 85.4137 0 85.7142 0H109.919C111.219 0 112.294 0.333926 113.144 0.999386C113.993 1.66723 114.42 2.51635 114.42 3.54912C114.42 3.84965 114.386 4.15018 114.319 4.44832L113.12 8.89903C112.853 9.99859 111.77 11.1172 109.869 12.2502C110.935 13.1828 111.469 13.9842 111.469 14.6497C111.467 14.955 111.433 15.2531 111.367 15.5536ZM97.7187 22.2559C98.2172 22.2559 98.5321 22.0389 98.6657 21.6048C99.999 16.4695 100.664 13.8864 100.664 13.853C100.664 13.5191 100.466 13.3545 100.068 13.3545H96.0873C95.5554 13.3545 95.2406 13.5739 95.1428 14.0104C93.7761 19.1457 93.0915 21.7288 93.0915 21.7622C93.0915 22.0914 93.3062 22.2559 93.7379 22.2559H97.7187ZM98.0884 2.85742C96.7122 8.02368 96.0253 10.6235 96.0253 10.6545C96.0253 10.986 96.2399 11.1506 96.6717 11.1506H100.655C101.153 11.1506 101.468 10.9336 101.602 10.4971C102.976 5.36422 103.663 2.76679 103.663 2.7C103.663 2.39947 103.448 2.24921 103.016 2.24921H99.033C98.5035 2.25159 98.1886 2.45433 98.0884 2.85742Z" fill="white"/>
<path d="M119.316 20.6054L116.967 23.8564C116.7 24.2571 116.299 24.4574 115.767 24.4574H111.817C111.483 24.4574 111.317 24.3573 111.317 24.1569C111.317 24.0901 116.185 17.29 125.918 3.75424C126.119 3.45371 126.219 3.13887 126.219 2.80495C126.219 2.5712 126.145 2.20389 125.995 1.70539C125.845 1.2045 125.771 0.839577 125.771 0.605831C125.771 0.271909 125.988 0.104948 126.422 0.104948L138.925 0.00477236C139.457 0.00477236 139.774 0.205124 139.874 0.605831L145.076 23.9088V24.009C145.076 24.3096 144.859 24.4598 144.425 24.4598H132.072C131.571 24.4598 131.273 24.2762 131.173 23.9088L130.324 20.6078C130.224 20.2071 129.923 20.0067 129.425 20.0067H120.573C120.034 20.0043 119.617 20.2047 119.316 20.6054ZM127.819 9.20195C127.786 9.03499 127.719 8.95151 127.619 8.95151C127.486 8.95151 127.369 9.03499 127.268 9.20195L121.768 17.2042C121.702 17.3377 121.668 17.4379 121.668 17.5047C121.668 17.705 121.818 17.8052 122.119 17.8052H128.969C129.37 17.8052 129.57 17.6383 129.57 17.3043L127.819 9.20195Z" fill="white"/>
<path d="M148.122 24.4551C147.688 24.4551 147.471 24.3048 147.471 24.0043C147.471 23.9375 147.471 23.8874 147.471 23.854L153.071 2.85027C153.105 2.78348 153.121 2.7 153.121 2.59983C153.121 2.19912 152.828 1.73401 152.246 1.19974C151.661 0.667845 151.371 0.350621 151.371 0.250444C151.371 0.0834827 151.521 0 151.821 0H164.174C164.575 0 164.775 0.166965 164.775 0.500888C164.775 0.53428 164.775 0.584364 164.775 0.651149L159.175 21.6048C159.175 21.6716 159.175 21.7217 159.175 21.755C159.175 22.089 159.392 22.2559 159.826 22.2559H172.129C172.396 22.2559 172.529 22.306 172.529 22.4062C172.529 22.473 172.429 22.5732 172.229 22.7067L170.228 24.0066C169.793 24.3072 169.328 24.4574 168.827 24.4574H148.122V24.4551Z" fill="white"/>
<path d="M181.025 20.6054L178.676 23.8564C178.409 24.2571 178.008 24.4574 177.476 24.4574H173.526C173.192 24.4574 173.025 24.3573 173.025 24.1569C173.025 24.0901 177.893 17.29 187.627 3.75424C187.828 3.45371 187.928 3.13887 187.928 2.80495C187.928 2.5712 187.854 2.20389 187.704 1.70539C187.553 1.2045 187.479 0.839577 187.479 0.605831C187.479 0.271909 187.696 0.104948 188.131 0.104948L200.634 0.00477236C201.165 0.00477236 201.483 0.205124 201.583 0.605831L206.783 23.9088V24.009C206.783 24.3096 206.565 24.4598 206.131 24.4598H193.779C193.278 24.4598 192.98 24.2762 192.879 23.9088L192.03 20.6078C191.93 20.2071 191.63 20.0067 191.131 20.0067H182.28C181.743 20.0043 181.326 20.2047 181.025 20.6054ZM189.528 9.20195C189.495 9.03499 189.428 8.95151 189.328 8.95151C189.194 8.95151 189.077 9.03499 188.977 9.20195L183.477 17.2042C183.41 17.3377 183.377 17.4379 183.377 17.5047C183.377 17.705 183.527 17.8052 183.828 17.8052H190.678C191.079 17.8052 191.279 17.6383 191.279 17.3043L189.528 9.20195Z" fill="white"/>
<path d="M213.881 1.20212C213.313 0.670231 213.032 0.353007 213.032 0.25283C213.032 0.0858689 213.182 0.00238618 213.482 0.00238618H225.785C226.317 0.00238618 226.668 0.186041 226.835 0.553356L233.136 16.1547C233.17 16.2549 233.236 16.3384 233.336 16.4051C233.437 16.4051 233.503 16.305 233.537 16.1046L237.537 0.651149C237.637 0.219435 237.954 0 238.486 0H242.486C242.92 0 243.137 0.166965 243.137 0.500888C243.137 0.53428 243.12 0.584364 243.087 0.651149L236.936 23.854C236.836 24.2547 236.518 24.4551 235.986 24.4551H226.434C225.9 24.4551 225.566 24.2714 225.434 23.9041L219.083 8.30274C219.049 8.20257 218.983 8.13578 218.882 8.10239C218.816 8.10239 218.749 8.20257 218.682 8.40292L214.732 23.8564C214.599 24.2571 214.281 24.4574 213.783 24.4574H209.783C209.349 24.4574 209.132 24.3072 209.132 24.0066C209.132 23.9399 209.132 23.8898 209.132 23.8564L214.732 2.85265C214.732 2.78587 214.732 2.70239 214.732 2.60221C214.73 2.20151 214.448 1.7364 213.881 1.20212Z" fill="white"/>
<path d="M262.137 11.153C261.703 11.153 261.486 10.9861 261.486 10.6521C261.486 9.98667 261.827 8.63428 262.512 6.60212C263.194 4.56997 263.537 3.26767 263.537 2.70239C263.537 2.40186 263.337 2.25159 262.939 2.25159H258.948C258.416 2.25159 258.102 2.45433 258.001 2.85504L252.995 21.6072C252.995 21.674 252.993 21.724 252.985 21.7574C252.985 22.0914 253.202 22.2559 253.637 22.2559H257.586C258.118 22.2559 258.436 22.0389 258.536 21.6048L260.587 14.0033C260.687 13.5716 261.004 13.3521 261.536 13.3521H271.089C271.52 13.3521 271.74 13.5191 271.74 13.853C271.74 13.9198 271.189 15.971 270.089 20.0043C269.755 21.2375 268.94 22.2893 267.64 23.1551C266.34 24.0233 264.906 24.4551 263.339 24.4551H246.686C245.386 24.4551 244.311 24.1307 243.461 23.4795C242.612 22.8284 242.185 21.9888 242.185 20.9536C242.185 20.6531 242.236 20.3383 242.336 20.0043L246.436 4.45071C246.77 3.25097 247.585 2.20866 248.885 1.32615C250.185 0.443642 251.619 0 253.186 0H269.839C271.139 0 272.215 0.333926 273.064 0.999386C273.913 1.66723 274.34 2.51635 274.34 3.54912C274.34 3.84965 274.306 4.15018 274.24 4.44832L272.639 10.4995C272.506 10.9336 272.188 11.1506 271.69 11.1506H262.137V11.153Z" fill="white"/>
<path d="M304.395 0.00238618C304.827 0.00238618 305.046 0.169348 305.046 0.50327C305.046 1.66961 304.629 2.25398 303.796 2.25398H291.491C290.957 2.25398 290.642 2.45433 290.542 2.85504C289.175 7.99029 288.491 10.5901 288.491 10.6569C288.491 10.9908 288.708 11.1578 289.142 11.1578H301.445C301.712 11.1578 301.845 11.2079 301.845 11.308C301.845 11.3748 301.745 11.4583 301.545 11.5585L299.544 12.9085C299.11 13.209 298.625 13.3593 298.094 13.3593H288.541C288.007 13.3593 287.692 13.5763 287.592 14.0104C286.225 19.1457 285.54 21.7288 285.54 21.7622C285.54 22.0961 285.757 22.2631 286.192 22.2631H298.494C298.761 22.2631 298.895 22.3132 298.895 22.4134C298.895 22.4801 298.795 22.5803 298.594 22.7139L296.593 24.0138C296.159 24.3143 295.694 24.4646 295.193 24.4646H274.49C274.056 24.4646 273.839 24.3143 273.839 24.0138C273.839 23.947 273.839 23.8969 273.839 23.8635L279.439 2.85981C279.439 2.79303 279.439 2.70954 279.439 2.60937C279.439 2.20866 279.155 1.74355 278.59 1.20928C278.022 0.677386 277.741 0.360161 277.741 0.259985C277.741 0.0930234 277.891 0.00954068 278.192 0.00954068H304.395V0.00238618Z" fill="white"/>
<path d="M335.898 4.4531L333.549 13.3545C333.282 14.3539 332.564 15.2626 331.398 16.0808C330.231 16.8989 328.979 17.4236 327.648 17.655C327.681 17.8219 328.149 18.9143 329.048 20.9298C329.947 22.9476 330.398 23.9899 330.398 24.0543C330.398 24.3215 330.198 24.4551 329.799 24.4551H320.254C319.722 24.4551 319.388 24.2714 319.255 23.9041L317.306 18.3538C317.139 17.9865 316.839 17.8028 316.407 17.8028C315.939 17.8028 315.641 18.0032 315.508 18.4039L314.107 23.8588C313.974 24.2571 313.657 24.4551 313.156 24.4551H303.594C303.16 24.4551 302.943 24.3048 302.943 24.0043C302.943 23.9375 302.943 23.8874 302.943 23.854L308.543 2.85027C308.543 2.78348 308.543 2.7 308.543 2.59983C308.543 2.19912 308.259 1.73401 307.694 1.19974C307.126 0.667845 306.845 0.350621 306.845 0.250444C306.845 0.0834827 306.995 0 307.295 0H331.5C332.8 0 333.876 0.333926 334.725 0.999386C335.574 1.66723 336.001 2.51635 336.001 3.54912C335.999 3.85204 335.965 4.15257 335.898 4.4531ZM321.051 15.5536C321.583 15.5536 321.897 15.3533 321.998 14.9526L325.198 2.85027C325.232 2.81687 325.249 2.76679 325.249 2.7C325.249 2.39947 325.032 2.24921 324.6 2.24921H320.609C320.078 2.24921 319.76 2.45195 319.663 2.85265L316.462 14.955C316.462 14.9883 316.447 15.0408 316.421 15.1076C316.421 15.4034 316.636 15.5512 317.067 15.5512H321.051V15.5536Z" fill="white"/>
<path d="M111.367 15.5536L110.167 20.0043C109.866 21.2375 109.058 22.2893 107.741 23.1551C106.425 24.0233 104.982 24.4551 103.415 24.4551H82.0125C81.5784 24.4551 81.3613 24.3048 81.3613 24.0043C81.3613 23.9375 81.3613 23.8874 81.3613 23.854L86.9617 2.85027C86.9617 2.78348 86.9617 2.7 86.9617 2.59983C86.9617 2.19912 86.6778 1.73401 86.1126 1.19974C85.5449 0.667845 85.2634 0.350621 85.2634 0.250444C85.2634 0.0834827 85.4137 0 85.7142 0H109.919C111.219 0 112.294 0.333926 113.144 0.999386C113.993 1.66723 114.42 2.51635 114.42 3.54912C114.42 3.84965 114.386 4.15018 114.319 4.44832L113.12 8.89903C112.853 9.99859 111.77 11.1172 109.869 12.2502C110.935 13.1828 111.469 13.9842 111.469 14.6497C111.467 14.955 111.433 15.2531 111.367 15.5536ZM97.7187 22.2559C98.2172 22.2559 98.5321 22.0389 98.6657 21.6048C99.999 16.4695 100.664 13.8864 100.664 13.853C100.664 13.5191 100.466 13.3545 100.068 13.3545H96.0873C95.5554 13.3545 95.2406 13.5739 95.1428 14.0104C93.7761 19.1457 93.0915 21.7288 93.0915 21.7622C93.0915 22.0914 93.3062 22.2559 93.7379 22.2559H97.7187ZM98.0884 2.85742C96.7122 8.02368 96.0253 10.6235 96.0253 10.6545C96.0253 10.986 96.2399 11.1506 96.6717 11.1506H100.655C101.153 11.1506 101.468 10.9336 101.602 10.4971C102.976 5.36422 103.663 2.76679 103.663 2.7C103.663 2.39947 103.448 2.24921 103.016 2.24921H99.033C98.5035 2.25159 98.1886 2.45433 98.0884 2.85742Z" fill="white"/>
<path d="M119.316 20.6054L116.967 23.8564C116.7 24.2571 116.299 24.4574 115.767 24.4574H111.817C111.483 24.4574 111.317 24.3573 111.317 24.1569C111.317 24.0901 116.185 17.29 125.918 3.75424C126.119 3.45371 126.219 3.13887 126.219 2.80495C126.219 2.5712 126.145 2.20389 125.995 1.70539C125.845 1.2045 125.771 0.839577 125.771 0.605831C125.771 0.271909 125.988 0.104948 126.422 0.104948L138.925 0.00477236C139.457 0.00477236 139.774 0.205124 139.874 0.605831L145.076 23.9088V24.009C145.076 24.3096 144.859 24.4598 144.425 24.4598H132.072C131.571 24.4598 131.273 24.2762 131.173 23.9088L130.324 20.6078C130.224 20.2071 129.923 20.0067 129.425 20.0067H120.573C120.034 20.0043 119.617 20.2047 119.316 20.6054ZM127.819 9.20195C127.786 9.03499 127.719 8.95151 127.619 8.95151C127.486 8.95151 127.369 9.03499 127.268 9.20195L121.768 17.2042C121.702 17.3377 121.668 17.4379 121.668 17.5047C121.668 17.705 121.818 17.8052 122.119 17.8052H128.969C129.37 17.8052 129.57 17.6383 129.57 17.3043L127.819 9.20195Z" fill="white"/>
<path d="M148.122 24.4551C147.688 24.4551 147.471 24.3048 147.471 24.0043C147.471 23.9375 147.471 23.8874 147.471 23.854L153.071 2.85027C153.105 2.78348 153.121 2.7 153.121 2.59983C153.121 2.19912 152.828 1.73401 152.246 1.19974C151.661 0.667845 151.371 0.350621 151.371 0.250444C151.371 0.0834827 151.521 0 151.821 0H164.174C164.575 0 164.775 0.166965 164.775 0.500888C164.775 0.53428 164.775 0.584364 164.775 0.651149L159.175 21.6048C159.175 21.6716 159.175 21.7217 159.175 21.755C159.175 22.089 159.392 22.2559 159.826 22.2559H172.129C172.396 22.2559 172.529 22.306 172.529 22.4062C172.529 22.473 172.429 22.5732 172.229 22.7067L170.228 24.0066C169.793 24.3072 169.328 24.4574 168.827 24.4574H148.122V24.4551Z" fill="white"/>
<path d="M181.025 20.6054L178.676 23.8564C178.409 24.2571 178.008 24.4574 177.476 24.4574H173.526C173.192 24.4574 173.025 24.3573 173.025 24.1569C173.025 24.0901 177.893 17.29 187.627 3.75424C187.828 3.45371 187.928 3.13887 187.928 2.80495C187.928 2.5712 187.854 2.20389 187.704 1.70539C187.553 1.2045 187.479 0.839577 187.479 0.605831C187.479 0.271909 187.696 0.104948 188.131 0.104948L200.634 0.00477236C201.165 0.00477236 201.483 0.205124 201.583 0.605831L206.783 23.9088V24.009C206.783 24.3096 206.565 24.4598 206.131 24.4598H193.779C193.278 24.4598 192.98 24.2762 192.879 23.9088L192.03 20.6078C191.93 20.2071 191.63 20.0067 191.131 20.0067H182.28C181.743 20.0043 181.326 20.2047 181.025 20.6054ZM189.528 9.20195C189.495 9.03499 189.428 8.95151 189.328 8.95151C189.194 8.95151 189.077 9.03499 188.977 9.20195L183.477 17.2042C183.41 17.3377 183.377 17.4379 183.377 17.5047C183.377 17.705 183.527 17.8052 183.828 17.8052H190.678C191.079 17.8052 191.279 17.6383 191.279 17.3043L189.528 9.20195Z" fill="white"/>
<path d="M213.881 1.20212C213.313 0.670231 213.032 0.353007 213.032 0.25283C213.032 0.0858689 213.182 0.00238618 213.482 0.00238618H225.785C226.317 0.00238618 226.668 0.186041 226.835 0.553356L233.136 16.1547C233.17 16.2549 233.236 16.3384 233.336 16.4051C233.437 16.4051 233.503 16.305 233.537 16.1046L237.537 0.651149C237.637 0.219435 237.954 0 238.486 0H242.486C242.92 0 243.137 0.166965 243.137 0.500888C243.137 0.53428 243.12 0.584364 243.087 0.651149L236.936 23.854C236.836 24.2547 236.518 24.4551 235.986 24.4551H226.434C225.9 24.4551 225.566 24.2714 225.434 23.9041L219.083 8.30274C219.049 8.20257 218.983 8.13578 218.882 8.10239C218.816 8.10239 218.749 8.20257 218.682 8.40292L214.732 23.8564C214.599 24.2571 214.281 24.4574 213.783 24.4574H209.783C209.349 24.4574 209.132 24.3072 209.132 24.0066C209.132 23.9399 209.132 23.8898 209.132 23.8564L214.732 2.85265C214.732 2.78587 214.732 2.70239 214.732 2.60221C214.73 2.20151 214.448 1.7364 213.881 1.20212Z" fill="white"/>
<path d="M262.137 11.153C261.703 11.153 261.486 10.9861 261.486 10.6521C261.486 9.98667 261.827 8.63428 262.512 6.60212C263.194 4.56997 263.537 3.26767 263.537 2.70239C263.537 2.40186 263.337 2.25159 262.939 2.25159H258.948C258.416 2.25159 258.102 2.45433 258.001 2.85504L252.995 21.6072C252.995 21.674 252.993 21.724 252.985 21.7574C252.985 22.0914 253.202 22.2559 253.637 22.2559H257.586C258.118 22.2559 258.436 22.0389 258.536 21.6048L260.587 14.0033C260.687 13.5716 261.004 13.3521 261.536 13.3521H271.089C271.52 13.3521 271.74 13.5191 271.74 13.853C271.74 13.9198 271.189 15.971 270.089 20.0043C269.755 21.2375 268.94 22.2893 267.64 23.1551C266.34 24.0233 264.906 24.4551 263.339 24.4551H246.686C245.386 24.4551 244.311 24.1307 243.461 23.4795C242.612 22.8284 242.185 21.9888 242.185 20.9536C242.185 20.6531 242.236 20.3383 242.336 20.0043L246.436 4.45071C246.77 3.25097 247.585 2.20866 248.885 1.32615C250.185 0.443642 251.619 0 253.186 0H269.839C271.139 0 272.215 0.333926 273.064 0.999386C273.913 1.66723 274.34 2.51635 274.34 3.54912C274.34 3.84965 274.306 4.15018 274.24 4.44832L272.639 10.4995C272.506 10.9336 272.188 11.1506 271.69 11.1506H262.137V11.153Z" fill="white"/>
<path d="M304.395 0.00238618C304.827 0.00238618 305.046 0.169348 305.046 0.50327C305.046 1.66961 304.629 2.25398 303.796 2.25398H291.491C290.957 2.25398 290.642 2.45433 290.542 2.85504C289.175 7.99029 288.491 10.5901 288.491 10.6569C288.491 10.9908 288.708 11.1578 289.142 11.1578H301.445C301.712 11.1578 301.845 11.2079 301.845 11.308C301.845 11.3748 301.745 11.4583 301.545 11.5585L299.544 12.9085C299.11 13.209 298.625 13.3593 298.094 13.3593H288.541C288.007 13.3593 287.692 13.5763 287.592 14.0104C286.225 19.1457 285.54 21.7288 285.54 21.7622C285.54 22.0961 285.757 22.2631 286.192 22.2631H298.494C298.761 22.2631 298.895 22.3132 298.895 22.4134C298.895 22.4801 298.795 22.5803 298.594 22.7139L296.593 24.0138C296.159 24.3143 295.694 24.4646 295.193 24.4646H274.49C274.056 24.4646 273.839 24.3143 273.839 24.0138C273.839 23.947 273.839 23.8969 273.839 23.8635L279.439 2.85981C279.439 2.79303 279.439 2.70954 279.439 2.60937C279.439 2.20866 279.155 1.74355 278.59 1.20928C278.022 0.677386 277.741 0.360161 277.741 0.259985C277.741 0.0930234 277.891 0.00954068 278.192 0.00954068H304.395V0.00238618Z" fill="white"/>
<path d="M335.898 4.4531L333.549 13.3545C333.282 14.3539 332.564 15.2626 331.398 16.0808C330.231 16.8989 328.979 17.4236 327.648 17.655C327.681 17.8219 328.149 18.9143 329.048 20.9298C329.947 22.9476 330.398 23.9899 330.398 24.0543C330.398 24.3215 330.198 24.4551 329.799 24.4551H320.254C319.722 24.4551 319.388 24.2714 319.255 23.9041L317.306 18.3538C317.139 17.9865 316.839 17.8028 316.407 17.8028C315.939 17.8028 315.641 18.0032 315.508 18.4039L314.107 23.8588C313.974 24.2571 313.657 24.4551 313.156 24.4551H303.594C303.16 24.4551 302.943 24.3048 302.943 24.0043C302.943 23.9375 302.943 23.8874 302.943 23.854L308.543 2.85027C308.543 2.78348 308.543 2.7 308.543 2.59983C308.543 2.19912 308.259 1.73401 307.694 1.19974C307.126 0.667845 306.845 0.350621 306.845 0.250444C306.845 0.0834827 306.995 0 307.295 0H331.5C332.8 0 333.876 0.333926 334.725 0.999386C335.574 1.66723 336.001 2.51635 336.001 3.54912C335.999 3.85204 335.965 4.15257 335.898 4.4531ZM321.051 15.5536C321.583 15.5536 321.897 15.3533 321.998 14.9526L325.198 2.85027C325.232 2.81687 325.249 2.76679 325.249 2.7C325.249 2.39947 325.032 2.24921 324.6 2.24921H320.609C320.078 2.24921 319.76 2.45195 319.663 2.85265L316.462 14.955C316.462 14.9883 316.447 15.0408 316.421 15.1076C316.421 15.4034 316.636 15.5512 317.067 15.5512H321.051V15.5536Z" fill="white"/>
<path d="M111.367 15.5536L110.167 20.0043C109.866 21.2375 109.058 22.2893 107.741 23.1551C106.425 24.0233 104.982 24.4551 103.415 24.4551H82.0125C81.5784 24.4551 81.3613 24.3048 81.3613 24.0043C81.3613 23.9375 81.3613 23.8874 81.3613 23.854L86.9617 2.85027C86.9617 2.78348 86.9617 2.7 86.9617 2.59983C86.9617 2.19912 86.6778 1.73401 86.1126 1.19974C85.5449 0.667845 85.2634 0.350621 85.2634 0.250444C85.2634 0.0834827 85.4137 0 85.7142 0H109.919C111.219 0 112.294 0.333926 113.144 0.999386C113.993 1.66723 114.42 2.51635 114.42 3.54912C114.42 3.84965 114.386 4.15018 114.319 4.44832L113.12 8.89903C112.853 9.99859 111.77 11.1172 109.869 12.2502C110.935 13.1828 111.469 13.9842 111.469 14.6497C111.467 14.955 111.433 15.2531 111.367 15.5536ZM97.7187 22.2559C98.2172 22.2559 98.5321 22.0389 98.6657 21.6048C99.999 16.4695 100.664 13.8864 100.664 13.853C100.664 13.5191 100.466 13.3545 100.068 13.3545H96.0873C95.5554 13.3545 95.2406 13.5739 95.1428 14.0104C93.7761 19.1457 93.0915 21.7288 93.0915 21.7622C93.0915 22.0914 93.3062 22.2559 93.7379 22.2559H97.7187ZM98.0884 2.85742C96.7122 8.02368 96.0253 10.6235 96.0253 10.6545C96.0253 10.986 96.2399 11.1506 96.6717 11.1506H100.655C101.153 11.1506 101.468 10.9336 101.602 10.4971C102.976 5.36422 103.663 2.76679 103.663 2.7C103.663 2.39947 103.448 2.24921 103.016 2.24921H99.033C98.5035 2.25159 98.1886 2.45433 98.0884 2.85742Z" fill="white"/>
<path d="M119.316 20.6054L116.967 23.8564C116.7 24.2571 116.299 24.4574 115.767 24.4574H111.817C111.483 24.4574 111.317 24.3573 111.317 24.1569C111.317 24.0901 116.185 17.29 125.918 3.75424C126.119 3.45371 126.219 3.13887 126.219 2.80495C126.219 2.5712 126.145 2.20389 125.995 1.70539C125.845 1.2045 125.771 0.839577 125.771 0.605831C125.771 0.271909 125.988 0.104948 126.422 0.104948L138.925 0.00477236C139.457 0.00477236 139.774 0.205124 139.874 0.605831L145.076 23.9088V24.009C145.076 24.3096 144.859 24.4598 144.425 24.4598H132.072C131.571 24.4598 131.273 24.2762 131.173 23.9088L130.324 20.6078C130.224 20.2071 129.923 20.0067 129.425 20.0067H120.573C120.034 20.0043 119.617 20.2047 119.316 20.6054ZM127.819 9.20195C127.786 9.03499 127.719 8.95151 127.619 8.95151C127.486 8.95151 127.369 9.03499 127.268 9.20195L121.768 17.2042C121.702 17.3377 121.668 17.4379 121.668 17.5047C121.668 17.705 121.818 17.8052 122.119 17.8052H128.969C129.37 17.8052 129.57 17.6383 129.57 17.3043L127.819 9.20195Z" fill="white"/>
<path d="M148.122 24.4551C147.688 24.4551 147.471 24.3048 147.471 24.0043C147.471 23.9375 147.471 23.8874 147.471 23.854L153.071 2.85027C153.105 2.78348 153.121 2.7 153.121 2.59983C153.121 2.19912 152.828 1.73401 152.246 1.19974C151.661 0.667845 151.371 0.350621 151.371 0.250444C151.371 0.0834827 151.521 0 151.821 0H164.174C164.575 0 164.775 0.166965 164.775 0.500888C164.775 0.53428 164.775 0.584364 164.775 0.651149L159.175 21.6048C159.175 21.6716 159.175 21.7217 159.175 21.755C159.175 22.089 159.392 22.2559 159.826 22.2559H172.129C172.396 22.2559 172.529 22.306 172.529 22.4062C172.529 22.473 172.429 22.5732 172.229 22.7067L170.228 24.0066C169.793 24.3072 169.328 24.4574 168.827 24.4574H148.122V24.4551Z" fill="white"/>
<path d="M181.025 20.6054L178.676 23.8564C178.409 24.2571 178.008 24.4574 177.476 24.4574H173.526C173.192 24.4574 173.025 24.3573 173.025 24.1569C173.025 24.0901 177.893 17.29 187.627 3.75424C187.828 3.45371 187.928 3.13887 187.928 2.80495C187.928 2.5712 187.854 2.20389 187.704 1.70539C187.553 1.2045 187.479 0.839577 187.479 0.605831C187.479 0.271909 187.696 0.104948 188.131 0.104948L200.634 0.00477236C201.165 0.00477236 201.483 0.205124 201.583 0.605831L206.783 23.9088V24.009C206.783 24.3096 206.565 24.4598 206.131 24.4598H193.779C193.278 24.4598 192.98 24.2762 192.879 23.9088L192.03 20.6078C191.93 20.2071 191.63 20.0067 191.131 20.0067H182.28C181.743 20.0043 181.326 20.2047 181.025 20.6054ZM189.528 9.20195C189.495 9.03499 189.428 8.95151 189.328 8.95151C189.194 8.95151 189.077 9.03499 188.977 9.20195L183.477 17.2042C183.41 17.3377 183.377 17.4379 183.377 17.5047C183.377 17.705 183.527 17.8052 183.828 17.8052H190.678C191.079 17.8052 191.279 17.6383 191.279 17.3043L189.528 9.20195Z" fill="white"/>
<path d="M213.881 1.20212C213.313 0.670231 213.032 0.353007 213.032 0.25283C213.032 0.0858689 213.182 0.00238618 213.482 0.00238618H225.785C226.317 0.00238618 226.668 0.186041 226.835 0.553356L233.136 16.1547C233.17 16.2549 233.236 16.3384 233.336 16.4051C233.437 16.4051 233.503 16.305 233.537 16.1046L237.537 0.651149C237.637 0.219435 237.954 0 238.486 0H242.486C242.92 0 243.137 0.166965 243.137 0.500888C243.137 0.53428 243.12 0.584364 243.087 0.651149L236.936 23.854C236.836 24.2547 236.518 24.4551 235.986 24.4551H226.434C225.9 24.4551 225.566 24.2714 225.434 23.9041L219.083 8.30274C219.049 8.20257 218.983 8.13578 218.882 8.10239C218.816 8.10239 218.749 8.20257 218.682 8.40292L214.732 23.8564C214.599 24.2571 214.281 24.4574 213.783 24.4574H209.783C209.349 24.4574 209.132 24.3072 209.132 24.0066C209.132 23.9399 209.132 23.8898 209.132 23.8564L214.732 2.85265C214.732 2.78587 214.732 2.70239 214.732 2.60221C214.73 2.20151 214.448 1.7364 213.881 1.20212Z" fill="white"/>
<path d="M262.137 11.153C261.703 11.153 261.486 10.9861 261.486 10.6521C261.486 9.98667 261.827 8.63428 262.512 6.60212C263.194 4.56997 263.537 3.26767 263.537 2.70239C263.537 2.40186 263.337 2.25159 262.939 2.25159H258.948C258.416 2.25159 258.102 2.45433 258.001 2.85504L252.995 21.6072C252.995 21.674 252.993 21.724 252.985 21.7574C252.985 22.0914 253.202 22.2559 253.637 22.2559H257.586C258.118 22.2559 258.436 22.0389 258.536 21.6048L260.587 14.0033C260.687 13.5716 261.004 13.3521 261.536 13.3521H271.089C271.52 13.3521 271.74 13.5191 271.74 13.853C271.74 13.9198 271.189 15.971 270.089 20.0043C269.755 21.2375 268.94 22.2893 267.64 23.1551C266.34 24.0233 264.906 24.4551 263.339 24.4551H246.686C245.386 24.4551 244.311 24.1307 243.461 23.4795C242.612 22.8284 242.185 21.9888 242.185 20.9536C242.185 20.6531 242.236 20.3383 242.336 20.0043L246.436 4.45071C246.77 3.25097 247.585 2.20866 248.885 1.32615C250.185 0.443642 251.619 0 253.186 0H269.839C271.139 0 272.215 0.333926 273.064 0.999386C273.913 1.66723 274.34 2.51635 274.34 3.54912C274.34 3.84965 274.306 4.15018 274.24 4.44832L272.639 10.4995C272.506 10.9336 272.188 11.1506 271.69 11.1506H262.137V11.153Z" fill="white"/>
<path d="M304.395 0.00238618C304.827 0.00238618 305.046 0.169348 305.046 0.50327C305.046 1.66961 304.629 2.25398 303.796 2.25398H291.491C290.957 2.25398 290.642 2.45433 290.542 2.85504C289.175 7.99029 288.491 10.5901 288.491 10.6569C288.491 10.9908 288.708 11.1578 289.142 11.1578H301.445C301.712 11.1578 301.845 11.2079 301.845 11.308C301.845 11.3748 301.745 11.4583 301.545 11.5585L299.544 12.9085C299.11 13.209 298.625 13.3593 298.094 13.3593H288.541C288.007 13.3593 287.692 13.5763 287.592 14.0104C286.225 19.1457 285.54 21.7288 285.54 21.7622C285.54 22.0961 285.757 22.2631 286.192 22.2631H298.494C298.761 22.2631 298.895 22.3132 298.895 22.4134C298.895 22.4801 298.795 22.5803 298.594 22.7139L296.593 24.0138C296.159 24.3143 295.694 24.4646 295.193 24.4646H274.49C274.056 24.4646 273.839 24.3143 273.839 24.0138C273.839 23.947 273.839 23.8969 273.839 23.8635L279.439 2.85981C279.439 2.79303 279.439 2.70954 279.439 2.60937C279.439 2.20866 279.155 1.74355 278.59 1.20928C278.022 0.677386 277.741 0.360161 277.741 0.259985C277.741 0.0930234 277.891 0.00954068 278.192 0.00954068H304.395V0.00238618Z" fill="white"/>
<path d="M335.898 4.4531L333.549 13.3545C333.282 14.3539 332.564 15.2626 331.398 16.0808C330.231 16.8989 328.979 17.4236 327.648 17.655C327.681 17.8219 328.149 18.9143 329.048 20.9298C329.947 22.9476 330.398 23.9899 330.398 24.0543C330.398 24.3215 330.198 24.4551 329.799 24.4551H320.254C319.722 24.4551 319.388 24.2714 319.255 23.9041L317.306 18.3538C317.139 17.9865 316.839 17.8028 316.407 17.8028C315.939 17.8028 315.641 18.0032 315.508 18.4039L314.107 23.8588C313.974 24.2571 313.657 24.4551 313.156 24.4551H303.594C303.16 24.4551 302.943 24.3048 302.943 24.0043C302.943 23.9375 302.943 23.8874 302.943 23.854L308.543 2.85027C308.543 2.78348 308.543 2.7 308.543 2.59983C308.543 2.19912 308.259 1.73401 307.694 1.19974C307.126 0.667845 306.845 0.350621 306.845 0.250444C306.845 0.0834827 306.995 0 307.295 0H331.5C332.8 0 333.876 0.333926 334.725 0.999386C335.574 1.66723 336.001 2.51635 336.001 3.54912C335.999 3.85204 335.965 4.15257 335.898 4.4531ZM321.051 15.5536C321.583 15.5536 321.897 15.3533 321.998 14.9526L325.198 2.85027C325.232 2.81687 325.249 2.76679 325.249 2.7C325.249 2.39947 325.032 2.24921 324.6 2.24921H320.609C320.078 2.24921 319.76 2.45195 319.663 2.85265L316.462 14.955C316.462 14.9883 316.447 15.0408 316.421 15.1076C316.421 15.4034 316.636 15.5512 317.067 15.5512H321.051V15.5536Z" fill="white"/>
</svg>
