<svg width="318" height="24" viewBox="0 0 318 24" fill="none" xmlns="http://www.w3.org/2000/svg">
<path d="M4.49661 1.13996C3.95937 0.636569 3.693 0.336343 3.693 0.241535C3.693 0.0835214 3.83521 0.00451478 4.11964 0.00451478H27.0271C28.2573 0.00451478 29.2754 0.320542 30.079 0.950339C30.8826 1.58239 31.2867 2.38601 31.2867 3.36343C31.2867 3.64786 31.2551 3.93228 31.1919 4.21445L27.2641 18.9345C26.9797 20.1016 26.2144 21.0971 24.9684 21.9165C23.7223 22.7382 22.3725 23.1467 20.921 23.1467H0.616253C0.205417 23.1467 0 23.0045 0 22.7201C0 22.6569 0 22.6095 0 22.5779L5.30022 2.69978C5.30022 2.63657 5.30022 2.55756 5.30022 2.46275C5.30022 2.08578 5.03386 1.64334 4.49661 1.13996ZM15.8239 2.70429L11.088 20.4515C11.088 20.5147 11.0835 20.5621 11.0745 20.5937C11.0745 20.9075 11.2799 21.0632 11.6907 21.0632H15.4763C15.9503 21.0632 16.2483 20.8578 16.3747 20.447L21.0609 2.69978C21.0925 2.66817 21.1083 2.62077 21.1083 2.55756C21.1083 2.27314 20.9029 2.13093 20.4943 2.13093H16.7201C16.2144 2.13318 15.9165 2.3228 15.8239 2.70429Z" fill="white"/>
<path d="M31.7562 23.1467C31.3454 23.1467 31.1399 23.0045 31.1399 22.7201C31.1399 22.6569 31.1399 22.6095 31.1399 22.5779L36.4402 2.69978C36.4402 2.63657 36.4402 2.55756 36.4402 2.46275C36.4402 2.08352 36.1715 1.64334 35.6366 1.1377C35.0993 0.634312 34.8329 0.334086 34.8329 0.239278C34.8329 0.0812645 34.9752 0.00225782 35.2596 0.00225782H46.9503C47.3296 0.00225782 47.5192 0.160271 47.5192 0.476298C47.5192 0.507901 47.5192 0.555305 47.5192 0.618511L41.6952 22.5779C41.5688 22.9571 41.2686 23.1467 40.7968 23.1467H31.7562Z" fill="white"/>
<path d="M59.7291 8.42664H69.5259C70.7562 8.42664 71.7742 8.73364 72.5779 9.34989C73.3815 9.96614 73.7855 10.763 73.7855 11.7404C73.7855 12.0564 73.7381 12.3567 73.6433 12.6388L71.9864 18.9323C71.6704 20.0993 70.8984 21.0948 69.6682 21.9142C68.4379 22.7359 67.0812 23.1445 65.5982 23.1445H45.2934C45.0722 23.1445 44.9616 23.0971 44.9616 23.0023C44.9616 22.9391 45.0406 22.8443 45.1986 22.7178C46.9029 21.614 48.0068 21.061 48.5124 21.061H60.1557C60.6591 21.061 60.9594 20.8555 61.0542 20.4447C61.9684 16.9752 62.4266 15.2235 62.4266 15.1919C62.4266 14.8759 62.237 14.7178 61.8578 14.7178H52.0609C50.8307 14.7178 49.8126 14.4108 49.009 13.7946C48.2054 13.1783 47.8013 12.3838 47.8013 11.4041C47.8013 11.1196 47.8487 10.8352 47.9435 10.5531L49.6004 4.21219C49.9165 3.07675 50.6885 2.09029 51.9187 1.25508C53.149 0.419865 54.5056 0 55.9887 0H76.2912C76.5124 0 76.623 0.0474043 76.623 0.142212C76.623 0.237021 76.544 0.331828 76.386 0.426637C74.6817 1.56208 73.5779 2.13093 73.0722 2.13093H61.4289C60.9232 2.13093 60.6253 2.32054 60.5305 2.69978C59.614 6.17156 59.158 7.921 59.158 7.9526C59.1603 8.27088 59.3499 8.42664 59.7291 8.42664Z" fill="white"/>
<path d="M4.49661 1.13996C3.95937 0.636569 3.693 0.336343 3.693 0.241535C3.693 0.0835214 3.83521 0.00451478 4.11964 0.00451478H27.0271C28.2573 0.00451478 29.2754 0.320542 30.079 0.950339C30.8826 1.58239 31.2867 2.38601 31.2867 3.36343C31.2867 3.64786 31.2551 3.93228 31.1919 4.21445L27.2641 18.9345C26.9797 20.1016 26.2144 21.0971 24.9684 21.9165C23.7223 22.7382 22.3725 23.1467 20.921 23.1467H0.616253C0.205417 23.1467 0 23.0045 0 22.7201C0 22.6569 0 22.6095 0 22.5779L5.30022 2.69978C5.30022 2.63657 5.30022 2.55756 5.30022 2.46275C5.30022 2.08578 5.03386 1.64334 4.49661 1.13996ZM15.8239 2.70429L11.088 20.4515C11.088 20.5147 11.0835 20.5621 11.0745 20.5937C11.0745 20.9075 11.2799 21.0632 11.6907 21.0632H15.4763C15.9503 21.0632 16.2483 20.8578 16.3747 20.447L21.0609 2.69978C21.0925 2.66817 21.1083 2.62077 21.1083 2.55756C21.1083 2.27314 20.9029 2.13093 20.4943 2.13093H16.7201C16.2144 2.13318 15.9165 2.3228 15.8239 2.70429Z" fill="white"/>
<path d="M31.7562 23.1467C31.3454 23.1467 31.1399 23.0045 31.1399 22.7201C31.1399 22.6569 31.1399 22.6095 31.1399 22.5779L36.4402 2.69978C36.4402 2.63657 36.4402 2.55756 36.4402 2.46275C36.4402 2.08352 36.1715 1.64334 35.6366 1.1377C35.0993 0.634312 34.8329 0.334086 34.8329 0.239278C34.8329 0.0812645 34.9752 0.00225782 35.2596 0.00225782H46.9503C47.3296 0.00225782 47.5192 0.160271 47.5192 0.476298C47.5192 0.507901 47.5192 0.555305 47.5192 0.618511L41.6952 22.5779C41.5688 22.9571 41.2686 23.1467 40.7968 23.1467H31.7562Z" fill="white"/>
<path d="M59.7291 8.42664H69.5259C70.7562 8.42664 71.7742 8.73364 72.5779 9.34989C73.3815 9.96614 73.7855 10.763 73.7855 11.7404C73.7855 12.0564 73.7381 12.3567 73.6433 12.6388L71.9864 18.9323C71.6704 20.0993 70.8984 21.0948 69.6682 21.9142C68.4379 22.7359 67.0812 23.1445 65.5982 23.1445H45.2934C45.0722 23.1445 44.9616 23.0971 44.9616 23.0023C44.9616 22.9391 45.0406 22.8443 45.1986 22.7178C46.9029 21.614 48.0068 21.061 48.5124 21.061H60.1557C60.6591 21.061 60.9594 20.8555 61.0542 20.4447C61.9684 16.9752 62.4266 15.2235 62.4266 15.1919C62.4266 14.8759 62.237 14.7178 61.8578 14.7178H52.0609C50.8307 14.7178 49.8126 14.4108 49.009 13.7946C48.2054 13.1783 47.8013 12.3838 47.8013 11.4041C47.8013 11.1196 47.8487 10.8352 47.9435 10.5531L49.6004 4.21219C49.9165 3.07675 50.6885 2.09029 51.9187 1.25508C53.149 0.419865 54.5056 0 55.9887 0H76.2912C76.5124 0 76.623 0.0474043 76.623 0.142212C76.623 0.237021 76.544 0.331828 76.386 0.426637C74.6817 1.56208 73.5779 2.13093 73.0722 2.13093H61.4289C60.9232 2.13093 60.6253 2.32054 60.5305 2.69978C59.614 6.17156 59.158 7.921 59.158 7.9526C59.1603 8.27088 59.3499 8.42664 59.7291 8.42664Z" fill="white"/>
<path d="M4.49661 1.13996C3.95937 0.636569 3.693 0.336343 3.693 0.241535C3.693 0.0835214 3.83521 0.00451478 4.11964 0.00451478H27.0271C28.2573 0.00451478 29.2754 0.320542 30.079 0.950339C30.8826 1.58239 31.2867 2.38601 31.2867 3.36343C31.2867 3.64786 31.2551 3.93228 31.1919 4.21445L27.2641 18.9345C26.9797 20.1016 26.2144 21.0971 24.9684 21.9165C23.7223 22.7382 22.3725 23.1467 20.921 23.1467H0.616253C0.205417 23.1467 0 23.0045 0 22.7201C0 22.6569 0 22.6095 0 22.5779L5.30022 2.69978C5.30022 2.63657 5.30022 2.55756 5.30022 2.46275C5.30022 2.08578 5.03386 1.64334 4.49661 1.13996ZM15.8239 2.70429L11.088 20.4515C11.088 20.5147 11.0835 20.5621 11.0745 20.5937C11.0745 20.9075 11.2799 21.0632 11.6907 21.0632H15.4763C15.9503 21.0632 16.2483 20.8578 16.3747 20.447L21.0609 2.69978C21.0925 2.66817 21.1083 2.62077 21.1083 2.55756C21.1083 2.27314 20.9029 2.13093 20.4943 2.13093H16.7201C16.2144 2.13318 15.9165 2.3228 15.8239 2.70429Z" fill="white"/>
<path d="M31.7562 23.1467C31.3454 23.1467 31.1399 23.0045 31.1399 22.7201C31.1399 22.6569 31.1399 22.6095 31.1399 22.5779L36.4402 2.69978C36.4402 2.63657 36.4402 2.55756 36.4402 2.46275C36.4402 2.08352 36.1715 1.64334 35.6366 1.1377C35.0993 0.634312 34.8329 0.334086 34.8329 0.239278C34.8329 0.0812645 34.9752 0.00225782 35.2596 0.00225782H46.9503C47.3296 0.00225782 47.5192 0.160271 47.5192 0.476298C47.5192 0.507901 47.5192 0.555305 47.5192 0.618511L41.6952 22.5779C41.5688 22.9571 41.2686 23.1467 40.7968 23.1467H31.7562Z" fill="white"/>
<path d="M59.7291 8.42664H69.5259C70.7562 8.42664 71.7742 8.73364 72.5779 9.34989C73.3815 9.96614 73.7855 10.763 73.7855 11.7404C73.7855 12.0564 73.7381 12.3567 73.6433 12.6388L71.9864 18.9323C71.6704 20.0993 70.8984 21.0948 69.6682 21.9142C68.4379 22.7359 67.0812 23.1445 65.5982 23.1445H45.2934C45.0722 23.1445 44.9616 23.0971 44.9616 23.0023C44.9616 22.9391 45.0406 22.8443 45.1986 22.7178C46.9029 21.614 48.0068 21.061 48.5124 21.061H60.1557C60.6591 21.061 60.9594 20.8555 61.0542 20.4447C61.9684 16.9752 62.4266 15.2235 62.4266 15.1919C62.4266 14.8759 62.237 14.7178 61.8578 14.7178H52.0609C50.8307 14.7178 49.8126 14.4108 49.009 13.7946C48.2054 13.1783 47.8013 12.3838 47.8013 11.4041C47.8013 11.1196 47.8487 10.8352 47.9435 10.5531L49.6004 4.21219C49.9165 3.07675 50.6885 2.09029 51.9187 1.25508C53.149 0.419865 54.5056 0 55.9887 0H76.2912C76.5124 0 76.623 0.0474043 76.623 0.142212C76.623 0.237021 76.544 0.331828 76.386 0.426637C74.6817 1.56208 73.5779 2.13093 73.0722 2.13093H61.4289C60.9232 2.13093 60.6253 2.32054 60.5305 2.69978C59.614 6.17156 59.158 7.921 59.158 7.9526C59.1603 8.27088 59.3499 8.42664 59.7291 8.42664Z" fill="white"/>
<path d="M4.49661 1.13996C3.95937 0.636569 3.693 0.336343 3.693 0.241535C3.693 0.0835214 3.83521 0.00451478 4.11964 0.00451478H27.0271C28.2573 0.00451478 29.2754 0.320542 30.079 0.950339C30.8826 1.58239 31.2867 2.38601 31.2867 3.36343C31.2867 3.64786 31.2551 3.93228 31.1919 4.21445L27.2641 18.9345C26.9797 20.1016 26.2144 21.0971 24.9684 21.9165C23.7223 22.7382 22.3725 23.1467 20.921 23.1467H0.616253C0.205417 23.1467 0 23.0045 0 22.7201C0 22.6569 0 22.6095 0 22.5779L5.30022 2.69978C5.30022 2.63657 5.30022 2.55756 5.30022 2.46275C5.30022 2.08578 5.03386 1.64334 4.49661 1.13996ZM15.8239 2.70429L11.088 20.4515C11.088 20.5147 11.0835 20.5621 11.0745 20.5937C11.0745 20.9075 11.2799 21.0632 11.6907 21.0632H15.4763C15.9503 21.0632 16.2483 20.8578 16.3747 20.447L21.0609 2.69978C21.0925 2.66817 21.1083 2.62077 21.1083 2.55756C21.1083 2.27314 20.9029 2.13093 20.4943 2.13093H16.7201C16.2144 2.13318 15.9165 2.3228 15.8239 2.70429Z" fill="white"/>
<path d="M31.7562 23.1467C31.3454 23.1467 31.1399 23.0045 31.1399 22.7201C31.1399 22.6569 31.1399 22.6095 31.1399 22.5779L36.4402 2.69978C36.4402 2.63657 36.4402 2.55756 36.4402 2.46275C36.4402 2.08352 36.1715 1.64334 35.6366 1.1377C35.0993 0.634312 34.8329 0.334086 34.8329 0.239278C34.8329 0.0812645 34.9752 0.00225782 35.2596 0.00225782H46.9503C47.3296 0.00225782 47.5192 0.160271 47.5192 0.476298C47.5192 0.507901 47.5192 0.555305 47.5192 0.618511L41.6952 22.5779C41.5688 22.9571 41.2686 23.1467 40.7968 23.1467H31.7562Z" fill="white"/>
<path d="M59.7291 8.42664H69.5259C70.7562 8.42664 71.7742 8.73364 72.5779 9.34989C73.3815 9.96614 73.7855 10.763 73.7855 11.7404C73.7855 12.0564 73.7381 12.3567 73.6433 12.6388L71.9864 18.9323C71.6704 20.0993 70.8984 21.0948 69.6682 21.9142C68.4379 22.7359 67.0812 23.1445 65.5982 23.1445H45.2934C45.0722 23.1445 44.9616 23.0971 44.9616 23.0023C44.9616 22.9391 45.0406 22.8443 45.1986 22.7178C46.9029 21.614 48.0068 21.061 48.5124 21.061H60.1557C60.6591 21.061 60.9594 20.8555 61.0542 20.4447C61.9684 16.9752 62.4266 15.2235 62.4266 15.1919C62.4266 14.8759 62.237 14.7178 61.8578 14.7178H52.0609C50.8307 14.7178 49.8126 14.4108 49.009 13.7946C48.2054 13.1783 47.8013 12.3838 47.8013 11.4041C47.8013 11.1196 47.8487 10.8352 47.9435 10.5531L49.6004 4.21219C49.9165 3.07675 50.6885 2.09029 51.9187 1.25508C53.149 0.419865 54.5056 0 55.9887 0H76.2912C76.5124 0 76.623 0.0474043 76.623 0.142212C76.623 0.237021 76.544 0.331828 76.386 0.426637C74.6817 1.56208 73.5779 2.13093 73.0722 2.13093H61.4289C60.9232 2.13093 60.6253 2.32054 60.5305 2.69978C59.614 6.17156 59.158 7.921 59.158 7.9526C59.1603 8.27088 59.3499 8.42664 59.7291 8.42664Z" fill="white"/>
<path d="M4.49661 1.13996C3.95937 0.636569 3.693 0.336343 3.693 0.241535C3.693 0.0835214 3.83521 0.00451478 4.11964 0.00451478H27.0271C28.2573 0.00451478 29.2754 0.320542 30.079 0.950339C30.8826 1.58239 31.2867 2.38601 31.2867 3.36343C31.2867 3.64786 31.2551 3.93228 31.1919 4.21445L27.2641 18.9345C26.9797 20.1016 26.2144 21.0971 24.9684 21.9165C23.7223 22.7382 22.3725 23.1467 20.921 23.1467H0.616253C0.205417 23.1467 0 23.0045 0 22.7201C0 22.6569 0 22.6095 0 22.5779L5.30022 2.69978C5.30022 2.63657 5.30022 2.55756 5.30022 2.46275C5.30022 2.08578 5.03386 1.64334 4.49661 1.13996ZM15.8239 2.70429L11.088 20.4515C11.088 20.5147 11.0835 20.5621 11.0745 20.5937C11.0745 20.9075 11.2799 21.0632 11.6907 21.0632H15.4763C15.9503 21.0632 16.2483 20.8578 16.3747 20.447L21.0609 2.69978C21.0925 2.66817 21.1083 2.62077 21.1083 2.55756C21.1083 2.27314 20.9029 2.13093 20.4943 2.13093H16.7201C16.2144 2.13318 15.9165 2.3228 15.8239 2.70429Z" fill="white"/>
<path d="M31.7562 23.1467C31.3454 23.1467 31.1399 23.0045 31.1399 22.7201C31.1399 22.6569 31.1399 22.6095 31.1399 22.5779L36.4402 2.69978C36.4402 2.63657 36.4402 2.55756 36.4402 2.46275C36.4402 2.08352 36.1715 1.64334 35.6366 1.1377C35.0993 0.634312 34.8329 0.334086 34.8329 0.239278C34.8329 0.0812645 34.9752 0.00225782 35.2596 0.00225782H46.9503C47.3296 0.00225782 47.5192 0.160271 47.5192 0.476298C47.5192 0.507901 47.5192 0.555305 47.5192 0.618511L41.6952 22.5779C41.5688 22.9571 41.2686 23.1467 40.7968 23.1467H31.7562Z" fill="white"/>
<path d="M59.7291 8.42664H69.5259C70.7562 8.42664 71.7742 8.73364 72.5779 9.34989C73.3815 9.96614 73.7855 10.763 73.7855 11.7404C73.7855 12.0564 73.7381 12.3567 73.6433 12.6388L71.9864 18.9323C71.6704 20.0993 70.8984 21.0948 69.6682 21.9142C68.4379 22.7359 67.0812 23.1445 65.5982 23.1445H45.2934C45.0722 23.1445 44.9616 23.0971 44.9616 23.0023C44.9616 22.9391 45.0406 22.8443 45.1986 22.7178C46.9029 21.614 48.0068 21.061 48.5124 21.061H60.1557C60.6591 21.061 60.9594 20.8555 61.0542 20.4447C61.9684 16.9752 62.4266 15.2235 62.4266 15.1919C62.4266 14.8759 62.237 14.7178 61.8578 14.7178H52.0609C50.8307 14.7178 49.8126 14.4108 49.009 13.7946C48.2054 13.1783 47.8013 12.3838 47.8013 11.4041C47.8013 11.1196 47.8487 10.8352 47.9435 10.5531L49.6004 4.21219C49.9165 3.07675 50.6885 2.09029 51.9187 1.25508C53.149 0.419865 54.5056 0 55.9887 0H76.2912C76.5124 0 76.623 0.0474043 76.623 0.142212C76.623 0.237021 76.544 0.331828 76.386 0.426637C74.6817 1.56208 73.5779 2.13093 73.0722 2.13093H61.4289C60.9232 2.13093 60.6253 2.32054 60.5305 2.69978C59.614 6.17156 59.158 7.921 59.158 7.9526C59.1603 8.27088 59.3499 8.42664 59.7291 8.42664Z" fill="white"/>
<path d="M4.49661 1.13996C3.95937 0.636569 3.693 0.336343 3.693 0.241535C3.693 0.0835214 3.83521 0.00451478 4.11964 0.00451478H27.0271C28.2573 0.00451478 29.2754 0.320542 30.079 0.950339C30.8826 1.58239 31.2867 2.38601 31.2867 3.36343C31.2867 3.64786 31.2551 3.93228 31.1919 4.21445L27.2641 18.9345C26.9797 20.1016 26.2144 21.0971 24.9684 21.9165C23.7223 22.7382 22.3725 23.1467 20.921 23.1467H0.616253C0.205417 23.1467 0 23.0045 0 22.7201C0 22.6569 0 22.6095 0 22.5779L5.30022 2.69978C5.30022 2.63657 5.30022 2.55756 5.30022 2.46275C5.30022 2.08578 5.03386 1.64334 4.49661 1.13996ZM15.8239 2.70429L11.088 20.4515C11.088 20.5147 11.0835 20.5621 11.0745 20.5937C11.0745 20.9075 11.2799 21.0632 11.6907 21.0632H15.4763C15.9503 21.0632 16.2483 20.8578 16.3747 20.447L21.0609 2.69978C21.0925 2.66817 21.1083 2.62077 21.1083 2.55756C21.1083 2.27314 20.9029 2.13093 20.4943 2.13093H16.7201C16.2144 2.13318 15.9165 2.3228 15.8239 2.70429Z" fill="white"/>
<path d="M31.7562 23.1467C31.3454 23.1467 31.1399 23.0045 31.1399 22.7201C31.1399 22.6569 31.1399 22.6095 31.1399 22.5779L36.4402 2.69978C36.4402 2.63657 36.4402 2.55756 36.4402 2.46275C36.4402 2.08352 36.1715 1.64334 35.6366 1.1377C35.0993 0.634312 34.8329 0.334086 34.8329 0.239278C34.8329 0.0812645 34.9752 0.00225782 35.2596 0.00225782H46.9503C47.3296 0.00225782 47.5192 0.160271 47.5192 0.476298C47.5192 0.507901 47.5192 0.555305 47.5192 0.618511L41.6952 22.5779C41.5688 22.9571 41.2686 23.1467 40.7968 23.1467H31.7562Z" fill="white"/>
<path d="M59.7291 8.42664H69.5259C70.7562 8.42664 71.7742 8.73364 72.5779 9.34989C73.3815 9.96614 73.7855 10.763 73.7855 11.7404C73.7855 12.0564 73.7381 12.3567 73.6433 12.6388L71.9864 18.9323C71.6704 20.0993 70.8984 21.0948 69.6682 21.9142C68.4379 22.7359 67.0812 23.1445 65.5982 23.1445H45.2934C45.0722 23.1445 44.9616 23.0971 44.9616 23.0023C44.9616 22.9391 45.0406 22.8443 45.1986 22.7178C46.9029 21.614 48.0068 21.061 48.5124 21.061H60.1557C60.6591 21.061 60.9594 20.8555 61.0542 20.4447C61.9684 16.9752 62.4266 15.2235 62.4266 15.1919C62.4266 14.8759 62.237 14.7178 61.8578 14.7178H52.0609C50.8307 14.7178 49.8126 14.4108 49.009 13.7946C48.2054 13.1783 47.8013 12.3838 47.8013 11.4041C47.8013 11.1196 47.8487 10.8352 47.9435 10.5531L49.6004 4.21219C49.9165 3.07675 50.6885 2.09029 51.9187 1.25508C53.149 0.419865 54.5056 0 55.9887 0H76.2912C76.5124 0 76.623 0.0474043 76.623 0.142212C76.623 0.237021 76.544 0.331828 76.386 0.426637C74.6817 1.56208 73.5779 2.13093 73.0722 2.13093H61.4289C60.9232 2.13093 60.6253 2.32054 60.5305 2.69978C59.614 6.17156 59.158 7.921 59.158 7.9526C59.1603 8.27088 59.3499 8.42664 59.7291 8.42664Z" fill="white"/>
<path d="M105.397 14.7201L104.262 18.9323C103.977 20.0993 103.212 21.0948 101.966 21.9142C100.72 22.7359 99.3544 23.1445 97.8713 23.1445H77.6163C77.2054 23.1445 77 23.0023 77 22.7178C77 22.6546 77 22.6072 77 22.5756L82.3002 2.69752C82.3002 2.63431 82.3002 2.55531 82.3002 2.4605C82.3002 2.08127 82.0316 1.64108 81.4966 1.13544C80.9594 0.632055 80.693 0.331831 80.693 0.237022C80.693 0.0790088 80.8352 0 81.1196 0H104.027C105.257 0 106.275 0.31603 107.079 0.945827C107.883 1.57788 108.287 2.38149 108.287 3.35892C108.287 3.64335 108.255 3.92777 108.192 4.20993L107.056 8.42213C106.804 9.46276 105.779 10.5215 103.98 11.5937C104.989 12.4763 105.494 13.2348 105.494 13.8646C105.492 14.1535 105.46 14.4357 105.397 14.7201ZM92.4808 21.0632C92.9526 21.0632 93.2506 20.8578 93.377 20.447C94.6388 15.5869 95.2686 13.1422 95.2686 13.1106C95.2686 12.7946 95.0813 12.6388 94.7043 12.6388H90.9368C90.4334 12.6388 90.1354 12.8465 90.0429 13.2596C88.7494 18.1196 88.1016 20.5643 88.1016 20.5959C88.1016 20.9075 88.3047 21.0632 88.7133 21.0632H92.4808ZM92.8307 2.70429C91.5282 7.59368 90.8781 10.0542 90.8781 10.0835C90.8781 10.3973 91.0813 10.5531 91.4898 10.5531H95.2596C95.7314 10.5531 96.0293 10.3476 96.1558 9.93454C97.456 5.07675 98.1061 2.61851 98.1061 2.55531C98.1061 2.27088 97.9029 2.12867 97.4943 2.12867H93.7246C93.2235 2.13093 92.9255 2.3228 92.8307 2.70429Z" fill="white"/>
<path d="M112.921 19.5011L110.698 22.5779C110.445 22.9571 110.065 23.1467 109.562 23.1467H105.824C105.508 23.1467 105.35 23.0519 105.35 22.8623C105.35 22.7991 109.957 16.3634 119.169 3.55305C119.359 3.26863 119.454 2.97066 119.454 2.65463C119.454 2.43341 119.384 2.08578 119.242 1.61399C119.099 1.13995 119.029 0.794583 119.029 0.573364C119.029 0.257337 119.235 0.0993233 119.646 0.0993233L131.479 0.0045166C131.982 0.0045166 132.282 0.194132 132.377 0.573364L137.3 22.6275V22.7224C137.3 23.0068 137.095 23.149 136.684 23.149H124.993C124.519 23.149 124.237 22.9752 124.142 22.6275L123.339 19.5034C123.244 19.1242 122.959 18.9345 122.488 18.9345H114.111C113.6 18.9323 113.205 19.1219 112.921 19.5011ZM120.968 8.70881C120.937 8.5508 120.874 8.47179 120.779 8.47179C120.652 8.47179 120.542 8.5508 120.447 8.70881L115.242 16.2822C115.178 16.4086 115.147 16.5034 115.147 16.5666C115.147 16.7562 115.289 16.851 115.573 16.851H122.056C122.436 16.851 122.625 16.693 122.625 16.377L120.968 8.70881Z" fill="white"/>
<path d="M140.183 23.1445C139.772 23.1445 139.567 23.0023 139.567 22.7178C139.567 22.6546 139.567 22.6072 139.567 22.5756L144.867 2.69752C144.898 2.63431 144.914 2.55531 144.914 2.4605C144.914 2.08127 144.637 1.64108 144.086 1.13544C143.533 0.632055 143.257 0.331831 143.257 0.237022C143.257 0.0790088 143.4 0 143.684 0H155.375C155.754 0 155.944 0.158018 155.944 0.474045C155.944 0.505648 155.944 0.553047 155.944 0.616253L150.643 20.447C150.643 20.5102 150.643 20.5576 150.643 20.5892C150.643 20.9052 150.849 21.0632 151.26 21.0632H162.903C163.156 21.0632 163.282 21.1106 163.282 21.2054C163.282 21.2686 163.187 21.3634 162.998 21.4899L161.104 22.7201C160.693 23.0045 160.253 23.1467 159.779 23.1467H140.183V23.1445Z" fill="white"/>
<path d="M171.323 19.5011L169.099 22.5779C168.846 22.9571 168.467 23.1467 167.964 23.1467H164.226C163.91 23.1467 163.752 23.0519 163.752 22.8623C163.752 22.7991 168.359 16.3634 177.571 3.55305C177.761 3.26863 177.855 2.97066 177.855 2.65463C177.855 2.43341 177.786 2.08578 177.643 1.61399C177.501 1.13995 177.431 0.794583 177.431 0.573364C177.431 0.257337 177.637 0.0993233 178.047 0.0993233L189.88 0.0045166C190.384 0.0045166 190.684 0.194132 190.779 0.573364L195.7 22.6275V22.7224C195.7 23.0068 195.494 23.149 195.083 23.149H183.393C182.919 23.149 182.637 22.9752 182.542 22.6275L181.738 19.5034C181.643 19.1242 181.359 18.9345 180.887 18.9345H172.51C172.002 18.9323 171.607 19.1219 171.323 19.5011ZM179.37 8.70881C179.339 8.5508 179.275 8.47179 179.181 8.47179C179.054 8.47179 178.944 8.5508 178.849 8.70881L173.643 16.2822C173.58 16.4086 173.549 16.5034 173.549 16.5666C173.549 16.7562 173.691 16.851 173.975 16.851H180.458C180.837 16.851 181.027 16.693 181.027 16.377L179.37 8.70881Z" fill="white"/>
<path d="M202.418 1.1377C201.88 0.634313 201.614 0.334089 201.614 0.239281C201.614 0.0812671 201.756 0.0022583 202.041 0.0022583H213.684C214.187 0.0022583 214.519 0.176071 214.677 0.523701L220.641 15.2889C220.673 15.3838 220.736 15.4628 220.831 15.526C220.925 15.526 220.989 15.4312 221.02 15.2415L224.806 0.616253C224.901 0.207675 225.201 0 225.704 0H229.49C229.901 0 230.106 0.158018 230.106 0.474045C230.106 0.505648 230.09 0.553047 230.059 0.616253L224.237 22.5756C224.142 22.9549 223.842 23.1445 223.339 23.1445H214.298C213.792 23.1445 213.476 22.9707 213.352 22.623L207.341 7.85779C207.309 7.76298 207.246 7.69978 207.151 7.66817C207.088 7.66817 207.025 7.76298 206.962 7.9526L203.223 22.5779C203.097 22.9571 202.797 23.1467 202.325 23.1467H198.539C198.129 23.1467 197.923 23.0045 197.923 22.7201C197.923 22.6569 197.923 22.6095 197.923 22.5779L203.223 2.69978C203.223 2.63657 203.223 2.55757 203.223 2.46276C203.221 2.08352 202.955 1.64334 202.418 1.1377Z" fill="white"/>
<path d="M248.088 10.5553C247.677 10.5553 247.472 10.3973 247.472 10.0813C247.472 9.45148 247.795 8.17156 248.442 6.24831C249.088 4.32506 249.413 3.09255 249.413 2.55756C249.413 2.27314 249.223 2.13093 248.846 2.13093H245.07C244.567 2.13093 244.269 2.3228 244.174 2.70203L239.436 20.4492C239.436 20.5124 239.433 20.5598 239.427 20.5914C239.427 20.9075 239.632 21.0632 240.043 21.0632H243.781C244.284 21.0632 244.585 20.8578 244.679 20.447L246.621 13.2528C246.716 12.8442 247.016 12.6366 247.519 12.6366H256.56C256.968 12.6366 257.176 12.7946 257.176 13.1106C257.176 13.1738 256.655 15.1151 255.614 18.9323C255.298 20.0993 254.526 21.0948 253.296 21.9142C252.065 22.7359 250.709 23.1445 249.226 23.1445H233.465C232.235 23.1445 231.217 22.8375 230.413 22.2212C229.609 21.605 229.205 20.8104 229.205 19.8307C229.205 19.5463 229.253 19.2483 229.348 18.9323L233.228 4.21219C233.544 3.07675 234.316 2.0903 235.546 1.25508C236.776 0.419866 238.133 0 239.616 0H255.377C256.607 0 257.625 0.31603 258.429 0.945827C259.232 1.57788 259.637 2.38149 259.637 3.35892C259.637 3.64335 259.605 3.92777 259.542 4.20993L258.027 9.9368C257.901 10.3476 257.6 10.5531 257.129 10.5531H248.088V10.5553Z" fill="white"/>
<path d="M288.081 0.0022583C288.49 0.0022583 288.697 0.160272 288.697 0.476299C288.697 1.58014 288.302 2.13319 287.515 2.13319H275.869C275.363 2.13319 275.065 2.3228 274.971 2.70203C273.677 7.56208 273.029 10.0226 273.029 10.0858C273.029 10.4018 273.235 10.5598 273.646 10.5598H285.289C285.542 10.5598 285.668 10.6072 285.668 10.702C285.668 10.7652 285.573 10.8442 285.384 10.9391L283.49 12.2167C283.079 12.5011 282.621 12.6433 282.117 12.6433H273.077C272.571 12.6433 272.273 12.8488 272.178 13.2596C270.885 18.1196 270.237 20.5643 270.237 20.5959C270.237 20.912 270.442 21.07 270.853 21.07H282.497C282.749 21.07 282.876 21.1174 282.876 21.2122C282.876 21.2754 282.781 21.3702 282.591 21.4966L280.697 22.7269C280.287 23.0113 279.846 23.1535 279.372 23.1535H259.779C259.368 23.1535 259.162 23.0113 259.162 22.7269C259.162 22.6637 259.162 22.6163 259.162 22.5847L264.463 2.70655C264.463 2.64335 264.463 2.56434 264.463 2.46953C264.463 2.0903 264.194 1.65011 263.659 1.14447C263.122 0.641084 262.855 0.34086 262.855 0.246052C262.855 0.0880382 262.998 0.00902939 263.282 0.00902939H288.081V0.0022583Z" fill="white"/>
<path d="M317.896 4.21445L315.673 12.6388C315.42 13.5847 314.74 14.4447 313.637 15.219C312.533 15.9932 311.348 16.4898 310.088 16.7088C310.12 16.8668 310.562 17.9007 311.413 19.8081C312.264 21.7178 312.691 22.7043 312.691 22.7653C312.691 23.0181 312.501 23.1445 312.124 23.1445H303.09C302.587 23.1445 302.271 22.9707 302.144 22.623L300.3 17.3702C300.142 17.0226 299.858 16.8488 299.449 16.8488C299.007 16.8488 298.725 17.0384 298.598 17.4176L297.273 22.5801C297.147 22.9571 296.846 23.1445 296.372 23.1445H287.323C286.912 23.1445 286.706 23.0023 286.706 22.7178C286.706 22.6546 286.706 22.6072 286.706 22.5756L292.007 2.69752C292.007 2.63431 292.007 2.55531 292.007 2.4605C292.007 2.08127 291.738 1.64108 291.203 1.13544C290.666 0.632055 290.399 0.331831 290.399 0.237022C290.399 0.0790088 290.542 0 290.826 0H313.734C314.964 0 315.982 0.31603 316.785 0.945827C317.589 1.57788 317.993 2.38149 317.993 3.35892C317.991 3.6456 317.959 3.93003 317.896 4.21445ZM303.844 14.7201C304.348 14.7201 304.646 14.5305 304.74 14.1512L307.77 2.69752C307.801 2.66591 307.817 2.61851 307.817 2.55531C307.817 2.27088 307.612 2.12867 307.203 2.12867H303.427C302.923 2.12867 302.623 2.32054 302.53 2.69978L299.501 14.1535C299.501 14.1851 299.488 14.2348 299.463 14.298C299.463 14.5779 299.666 14.7178 300.074 14.7178H303.844V14.7201Z" fill="white"/>
<path d="M105.397 14.7201L104.262 18.9323C103.977 20.0993 103.212 21.0948 101.966 21.9142C100.72 22.7359 99.3544 23.1445 97.8713 23.1445H77.6163C77.2054 23.1445 77 23.0023 77 22.7178C77 22.6546 77 22.6072 77 22.5756L82.3002 2.69752C82.3002 2.63431 82.3002 2.55531 82.3002 2.4605C82.3002 2.08127 82.0316 1.64108 81.4966 1.13544C80.9594 0.632055 80.693 0.331831 80.693 0.237022C80.693 0.0790088 80.8352 0 81.1196 0H104.027C105.257 0 106.275 0.31603 107.079 0.945827C107.883 1.57788 108.287 2.38149 108.287 3.35892C108.287 3.64335 108.255 3.92777 108.192 4.20993L107.056 8.42213C106.804 9.46276 105.779 10.5215 103.98 11.5937C104.989 12.4763 105.494 13.2348 105.494 13.8646C105.492 14.1535 105.46 14.4357 105.397 14.7201ZM92.4808 21.0632C92.9526 21.0632 93.2506 20.8578 93.377 20.447C94.6388 15.5869 95.2686 13.1422 95.2686 13.1106C95.2686 12.7946 95.0813 12.6388 94.7043 12.6388H90.9368C90.4334 12.6388 90.1354 12.8465 90.0429 13.2596C88.7494 18.1196 88.1016 20.5643 88.1016 20.5959C88.1016 20.9075 88.3047 21.0632 88.7133 21.0632H92.4808ZM92.8307 2.70429C91.5282 7.59368 90.8781 10.0542 90.8781 10.0835C90.8781 10.3973 91.0813 10.5531 91.4898 10.5531H95.2596C95.7314 10.5531 96.0293 10.3476 96.1558 9.93454C97.456 5.07675 98.1061 2.61851 98.1061 2.55531C98.1061 2.27088 97.9029 2.12867 97.4943 2.12867H93.7246C93.2235 2.13093 92.9255 2.3228 92.8307 2.70429Z" fill="white"/>
<path d="M112.921 19.5011L110.698 22.5779C110.445 22.9571 110.065 23.1467 109.562 23.1467H105.824C105.508 23.1467 105.35 23.0519 105.35 22.8623C105.35 22.7991 109.957 16.3634 119.169 3.55305C119.359 3.26863 119.454 2.97066 119.454 2.65463C119.454 2.43341 119.384 2.08578 119.242 1.61399C119.099 1.13995 119.029 0.794583 119.029 0.573364C119.029 0.257337 119.235 0.0993233 119.646 0.0993233L131.479 0.0045166C131.982 0.0045166 132.282 0.194132 132.377 0.573364L137.3 22.6275V22.7224C137.3 23.0068 137.095 23.149 136.684 23.149H124.993C124.519 23.149 124.237 22.9752 124.142 22.6275L123.339 19.5034C123.244 19.1242 122.959 18.9345 122.488 18.9345H114.111C113.6 18.9323 113.205 19.1219 112.921 19.5011ZM120.968 8.70881C120.937 8.5508 120.874 8.47179 120.779 8.47179C120.652 8.47179 120.542 8.5508 120.447 8.70881L115.242 16.2822C115.178 16.4086 115.147 16.5034 115.147 16.5666C115.147 16.7562 115.289 16.851 115.573 16.851H122.056C122.436 16.851 122.625 16.693 122.625 16.377L120.968 8.70881Z" fill="white"/>
<path d="M140.183 23.1445C139.772 23.1445 139.567 23.0023 139.567 22.7178C139.567 22.6546 139.567 22.6072 139.567 22.5756L144.867 2.69752C144.898 2.63431 144.914 2.55531 144.914 2.4605C144.914 2.08127 144.637 1.64108 144.086 1.13544C143.533 0.632055 143.257 0.331831 143.257 0.237022C143.257 0.0790088 143.4 0 143.684 0H155.375C155.754 0 155.944 0.158018 155.944 0.474045C155.944 0.505648 155.944 0.553047 155.944 0.616253L150.643 20.447C150.643 20.5102 150.643 20.5576 150.643 20.5892C150.643 20.9052 150.849 21.0632 151.26 21.0632H162.903C163.156 21.0632 163.282 21.1106 163.282 21.2054C163.282 21.2686 163.187 21.3634 162.998 21.4899L161.104 22.7201C160.693 23.0045 160.253 23.1467 159.779 23.1467H140.183V23.1445Z" fill="white"/>
<path d="M171.323 19.5011L169.099 22.5779C168.846 22.9571 168.467 23.1467 167.964 23.1467H164.226C163.91 23.1467 163.752 23.0519 163.752 22.8623C163.752 22.7991 168.359 16.3634 177.571 3.55305C177.761 3.26863 177.855 2.97066 177.855 2.65463C177.855 2.43341 177.786 2.08578 177.643 1.61399C177.501 1.13995 177.431 0.794583 177.431 0.573364C177.431 0.257337 177.637 0.0993233 178.047 0.0993233L189.88 0.0045166C190.384 0.0045166 190.684 0.194132 190.779 0.573364L195.7 22.6275V22.7224C195.7 23.0068 195.494 23.149 195.083 23.149H183.393C182.919 23.149 182.637 22.9752 182.542 22.6275L181.738 19.5034C181.643 19.1242 181.359 18.9345 180.887 18.9345H172.51C172.002 18.9323 171.607 19.1219 171.323 19.5011ZM179.37 8.70881C179.339 8.5508 179.275 8.47179 179.181 8.47179C179.054 8.47179 178.944 8.5508 178.849 8.70881L173.643 16.2822C173.58 16.4086 173.549 16.5034 173.549 16.5666C173.549 16.7562 173.691 16.851 173.975 16.851H180.458C180.837 16.851 181.027 16.693 181.027 16.377L179.37 8.70881Z" fill="white"/>
<path d="M202.418 1.1377C201.88 0.634313 201.614 0.334089 201.614 0.239281C201.614 0.0812671 201.756 0.0022583 202.041 0.0022583H213.684C214.187 0.0022583 214.519 0.176071 214.677 0.523701L220.641 15.2889C220.673 15.3838 220.736 15.4628 220.831 15.526C220.925 15.526 220.989 15.4312 221.02 15.2415L224.806 0.616253C224.901 0.207675 225.201 0 225.704 0H229.49C229.901 0 230.106 0.158018 230.106 0.474045C230.106 0.505648 230.09 0.553047 230.059 0.616253L224.237 22.5756C224.142 22.9549 223.842 23.1445 223.339 23.1445H214.298C213.792 23.1445 213.476 22.9707 213.352 22.623L207.341 7.85779C207.309 7.76298 207.246 7.69978 207.151 7.66817C207.088 7.66817 207.025 7.76298 206.962 7.9526L203.223 22.5779C203.097 22.9571 202.797 23.1467 202.325 23.1467H198.539C198.129 23.1467 197.923 23.0045 197.923 22.7201C197.923 22.6569 197.923 22.6095 197.923 22.5779L203.223 2.69978C203.223 2.63657 203.223 2.55757 203.223 2.46276C203.221 2.08352 202.955 1.64334 202.418 1.1377Z" fill="white"/>
<path d="M248.088 10.5553C247.677 10.5553 247.472 10.3973 247.472 10.0813C247.472 9.45148 247.795 8.17156 248.442 6.24831C249.088 4.32506 249.413 3.09255 249.413 2.55756C249.413 2.27314 249.223 2.13093 248.846 2.13093H245.07C244.567 2.13093 244.269 2.3228 244.174 2.70203L239.436 20.4492C239.436 20.5124 239.433 20.5598 239.427 20.5914C239.427 20.9075 239.632 21.0632 240.043 21.0632H243.781C244.284 21.0632 244.585 20.8578 244.679 20.447L246.621 13.2528C246.716 12.8442 247.016 12.6366 247.519 12.6366H256.56C256.968 12.6366 257.176 12.7946 257.176 13.1106C257.176 13.1738 256.655 15.1151 255.614 18.9323C255.298 20.0993 254.526 21.0948 253.296 21.9142C252.065 22.7359 250.709 23.1445 249.226 23.1445H233.465C232.235 23.1445 231.217 22.8375 230.413 22.2212C229.609 21.605 229.205 20.8104 229.205 19.8307C229.205 19.5463 229.253 19.2483 229.348 18.9323L233.228 4.21219C233.544 3.07675 234.316 2.0903 235.546 1.25508C236.776 0.419866 238.133 0 239.616 0H255.377C256.607 0 257.625 0.31603 258.429 0.945827C259.232 1.57788 259.637 2.38149 259.637 3.35892C259.637 3.64335 259.605 3.92777 259.542 4.20993L258.027 9.9368C257.901 10.3476 257.6 10.5531 257.129 10.5531H248.088V10.5553Z" fill="white"/>
<path d="M288.081 0.0022583C288.49 0.0022583 288.697 0.160272 288.697 0.476299C288.697 1.58014 288.302 2.13319 287.515 2.13319H275.869C275.363 2.13319 275.065 2.3228 274.971 2.70203C273.677 7.56208 273.029 10.0226 273.029 10.0858C273.029 10.4018 273.235 10.5598 273.646 10.5598H285.289C285.542 10.5598 285.668 10.6072 285.668 10.702C285.668 10.7652 285.573 10.8442 285.384 10.9391L283.49 12.2167C283.079 12.5011 282.621 12.6433 282.117 12.6433H273.077C272.571 12.6433 272.273 12.8488 272.178 13.2596C270.885 18.1196 270.237 20.5643 270.237 20.5959C270.237 20.912 270.442 21.07 270.853 21.07H282.497C282.749 21.07 282.876 21.1174 282.876 21.2122C282.876 21.2754 282.781 21.3702 282.591 21.4966L280.697 22.7269C280.287 23.0113 279.846 23.1535 279.372 23.1535H259.779C259.368 23.1535 259.162 23.0113 259.162 22.7269C259.162 22.6637 259.162 22.6163 259.162 22.5847L264.463 2.70655C264.463 2.64335 264.463 2.56434 264.463 2.46953C264.463 2.0903 264.194 1.65011 263.659 1.14447C263.122 0.641084 262.855 0.34086 262.855 0.246052C262.855 0.0880382 262.998 0.00902939 263.282 0.00902939H288.081V0.0022583Z" fill="white"/>
<path d="M317.896 4.21445L315.673 12.6388C315.42 13.5847 314.74 14.4447 313.637 15.219C312.533 15.9932 311.348 16.4898 310.088 16.7088C310.12 16.8668 310.562 17.9007 311.413 19.8081C312.264 21.7178 312.691 22.7043 312.691 22.7653C312.691 23.0181 312.501 23.1445 312.124 23.1445H303.09C302.587 23.1445 302.271 22.9707 302.144 22.623L300.3 17.3702C300.142 17.0226 299.858 16.8488 299.449 16.8488C299.007 16.8488 298.725 17.0384 298.598 17.4176L297.273 22.5801C297.147 22.9571 296.846 23.1445 296.372 23.1445H287.323C286.912 23.1445 286.706 23.0023 286.706 22.7178C286.706 22.6546 286.706 22.6072 286.706 22.5756L292.007 2.69752C292.007 2.63431 292.007 2.55531 292.007 2.4605C292.007 2.08127 291.738 1.64108 291.203 1.13544C290.666 0.632055 290.399 0.331831 290.399 0.237022C290.399 0.0790088 290.542 0 290.826 0H313.734C314.964 0 315.982 0.31603 316.785 0.945827C317.589 1.57788 317.993 2.38149 317.993 3.35892C317.991 3.6456 317.959 3.93003 317.896 4.21445ZM303.844 14.7201C304.348 14.7201 304.646 14.5305 304.74 14.1512L307.77 2.69752C307.801 2.66591 307.817 2.61851 307.817 2.55531C307.817 2.27088 307.612 2.12867 307.203 2.12867H303.427C302.923 2.12867 302.623 2.32054 302.53 2.69978L299.501 14.1535C299.501 14.1851 299.488 14.2348 299.463 14.298C299.463 14.5779 299.666 14.7178 300.074 14.7178H303.844V14.7201Z" fill="white"/>
<path d="M105.397 14.7201L104.262 18.9323C103.977 20.0993 103.212 21.0948 101.966 21.9142C100.72 22.7359 99.3544 23.1445 97.8713 23.1445H77.6163C77.2054 23.1445 77 23.0023 77 22.7178C77 22.6546 77 22.6072 77 22.5756L82.3002 2.69752C82.3002 2.63431 82.3002 2.55531 82.3002 2.4605C82.3002 2.08127 82.0316 1.64108 81.4966 1.13544C80.9594 0.632055 80.693 0.331831 80.693 0.237022C80.693 0.0790088 80.8352 0 81.1196 0H104.027C105.257 0 106.275 0.31603 107.079 0.945827C107.883 1.57788 108.287 2.38149 108.287 3.35892C108.287 3.64335 108.255 3.92777 108.192 4.20993L107.056 8.42213C106.804 9.46276 105.779 10.5215 103.98 11.5937C104.989 12.4763 105.494 13.2348 105.494 13.8646C105.492 14.1535 105.46 14.4357 105.397 14.7201ZM92.4808 21.0632C92.9526 21.0632 93.2506 20.8578 93.377 20.447C94.6388 15.5869 95.2686 13.1422 95.2686 13.1106C95.2686 12.7946 95.0813 12.6388 94.7043 12.6388H90.9368C90.4334 12.6388 90.1354 12.8465 90.0429 13.2596C88.7494 18.1196 88.1016 20.5643 88.1016 20.5959C88.1016 20.9075 88.3047 21.0632 88.7133 21.0632H92.4808ZM92.8307 2.70429C91.5282 7.59368 90.8781 10.0542 90.8781 10.0835C90.8781 10.3973 91.0813 10.5531 91.4898 10.5531H95.2596C95.7314 10.5531 96.0293 10.3476 96.1558 9.93454C97.456 5.07675 98.1061 2.61851 98.1061 2.55531C98.1061 2.27088 97.9029 2.12867 97.4943 2.12867H93.7246C93.2235 2.13093 92.9255 2.3228 92.8307 2.70429Z" fill="white"/>
<path d="M112.921 19.5011L110.698 22.5779C110.445 22.9571 110.065 23.1467 109.562 23.1467H105.824C105.508 23.1467 105.35 23.0519 105.35 22.8623C105.35 22.7991 109.957 16.3634 119.169 3.55305C119.359 3.26863 119.454 2.97066 119.454 2.65463C119.454 2.43341 119.384 2.08578 119.242 1.61399C119.099 1.13995 119.029 0.794583 119.029 0.573364C119.029 0.257337 119.235 0.0993233 119.646 0.0993233L131.479 0.0045166C131.982 0.0045166 132.282 0.194132 132.377 0.573364L137.3 22.6275V22.7224C137.3 23.0068 137.095 23.149 136.684 23.149H124.993C124.519 23.149 124.237 22.9752 124.142 22.6275L123.339 19.5034C123.244 19.1242 122.959 18.9345 122.488 18.9345H114.111C113.6 18.9323 113.205 19.1219 112.921 19.5011ZM120.968 8.70881C120.937 8.5508 120.874 8.47179 120.779 8.47179C120.652 8.47179 120.542 8.5508 120.447 8.70881L115.242 16.2822C115.178 16.4086 115.147 16.5034 115.147 16.5666C115.147 16.7562 115.289 16.851 115.573 16.851H122.056C122.436 16.851 122.625 16.693 122.625 16.377L120.968 8.70881Z" fill="white"/>
<path d="M140.183 23.1445C139.772 23.1445 139.567 23.0023 139.567 22.7178C139.567 22.6546 139.567 22.6072 139.567 22.5756L144.867 2.69752C144.898 2.63431 144.914 2.55531 144.914 2.4605C144.914 2.08127 144.637 1.64108 144.086 1.13544C143.533 0.632055 143.257 0.331831 143.257 0.237022C143.257 0.0790088 143.4 0 143.684 0H155.375C155.754 0 155.944 0.158018 155.944 0.474045C155.944 0.505648 155.944 0.553047 155.944 0.616253L150.643 20.447C150.643 20.5102 150.643 20.5576 150.643 20.5892C150.643 20.9052 150.849 21.0632 151.26 21.0632H162.903C163.156 21.0632 163.282 21.1106 163.282 21.2054C163.282 21.2686 163.187 21.3634 162.998 21.4899L161.104 22.7201C160.693 23.0045 160.253 23.1467 159.779 23.1467H140.183V23.1445Z" fill="white"/>
<path d="M171.323 19.5011L169.099 22.5779C168.846 22.9571 168.467 23.1467 167.964 23.1467H164.226C163.91 23.1467 163.752 23.0519 163.752 22.8623C163.752 22.7991 168.359 16.3634 177.571 3.55305C177.761 3.26863 177.855 2.97066 177.855 2.65463C177.855 2.43341 177.786 2.08578 177.643 1.61399C177.501 1.13995 177.431 0.794583 177.431 0.573364C177.431 0.257337 177.637 0.0993233 178.047 0.0993233L189.88 0.0045166C190.384 0.0045166 190.684 0.194132 190.779 0.573364L195.7 22.6275V22.7224C195.7 23.0068 195.494 23.149 195.083 23.149H183.393C182.919 23.149 182.637 22.9752 182.542 22.6275L181.738 19.5034C181.643 19.1242 181.359 18.9345 180.887 18.9345H172.51C172.002 18.9323 171.607 19.1219 171.323 19.5011ZM179.37 8.70881C179.339 8.5508 179.275 8.47179 179.181 8.47179C179.054 8.47179 178.944 8.5508 178.849 8.70881L173.643 16.2822C173.58 16.4086 173.549 16.5034 173.549 16.5666C173.549 16.7562 173.691 16.851 173.975 16.851H180.458C180.837 16.851 181.027 16.693 181.027 16.377L179.37 8.70881Z" fill="white"/>
<path d="M202.418 1.1377C201.88 0.634313 201.614 0.334089 201.614 0.239281C201.614 0.0812671 201.756 0.0022583 202.041 0.0022583H213.684C214.187 0.0022583 214.519 0.176071 214.677 0.523701L220.641 15.2889C220.673 15.3838 220.736 15.4628 220.831 15.526C220.925 15.526 220.989 15.4312 221.02 15.2415L224.806 0.616253C224.901 0.207675 225.201 0 225.704 0H229.49C229.901 0 230.106 0.158018 230.106 0.474045C230.106 0.505648 230.09 0.553047 230.059 0.616253L224.237 22.5756C224.142 22.9549 223.842 23.1445 223.339 23.1445H214.298C213.792 23.1445 213.476 22.9707 213.352 22.623L207.341 7.85779C207.309 7.76298 207.246 7.69978 207.151 7.66817C207.088 7.66817 207.025 7.76298 206.962 7.9526L203.223 22.5779C203.097 22.9571 202.797 23.1467 202.325 23.1467H198.539C198.129 23.1467 197.923 23.0045 197.923 22.7201C197.923 22.6569 197.923 22.6095 197.923 22.5779L203.223 2.69978C203.223 2.63657 203.223 2.55757 203.223 2.46276C203.221 2.08352 202.955 1.64334 202.418 1.1377Z" fill="white"/>
<path d="M248.088 10.5553C247.677 10.5553 247.472 10.3973 247.472 10.0813C247.472 9.45148 247.795 8.17156 248.442 6.24831C249.088 4.32506 249.413 3.09255 249.413 2.55756C249.413 2.27314 249.223 2.13093 248.846 2.13093H245.07C244.567 2.13093 244.269 2.3228 244.174 2.70203L239.436 20.4492C239.436 20.5124 239.433 20.5598 239.427 20.5914C239.427 20.9075 239.632 21.0632 240.043 21.0632H243.781C244.284 21.0632 244.585 20.8578 244.679 20.447L246.621 13.2528C246.716 12.8442 247.016 12.6366 247.519 12.6366H256.56C256.968 12.6366 257.176 12.7946 257.176 13.1106C257.176 13.1738 256.655 15.1151 255.614 18.9323C255.298 20.0993 254.526 21.0948 253.296 21.9142C252.065 22.7359 250.709 23.1445 249.226 23.1445H233.465C232.235 23.1445 231.217 22.8375 230.413 22.2212C229.609 21.605 229.205 20.8104 229.205 19.8307C229.205 19.5463 229.253 19.2483 229.348 18.9323L233.228 4.21219C233.544 3.07675 234.316 2.0903 235.546 1.25508C236.776 0.419866 238.133 0 239.616 0H255.377C256.607 0 257.625 0.31603 258.429 0.945827C259.232 1.57788 259.637 2.38149 259.637 3.35892C259.637 3.64335 259.605 3.92777 259.542 4.20993L258.027 9.9368C257.901 10.3476 257.6 10.5531 257.129 10.5531H248.088V10.5553Z" fill="white"/>
<path d="M288.081 0.0022583C288.49 0.0022583 288.697 0.160272 288.697 0.476299C288.697 1.58014 288.302 2.13319 287.515 2.13319H275.869C275.363 2.13319 275.065 2.3228 274.971 2.70203C273.677 7.56208 273.029 10.0226 273.029 10.0858C273.029 10.4018 273.235 10.5598 273.646 10.5598H285.289C285.542 10.5598 285.668 10.6072 285.668 10.702C285.668 10.7652 285.573 10.8442 285.384 10.9391L283.49 12.2167C283.079 12.5011 282.621 12.6433 282.117 12.6433H273.077C272.571 12.6433 272.273 12.8488 272.178 13.2596C270.885 18.1196 270.237 20.5643 270.237 20.5959C270.237 20.912 270.442 21.07 270.853 21.07H282.497C282.749 21.07 282.876 21.1174 282.876 21.2122C282.876 21.2754 282.781 21.3702 282.591 21.4966L280.697 22.7269C280.287 23.0113 279.846 23.1535 279.372 23.1535H259.779C259.368 23.1535 259.162 23.0113 259.162 22.7269C259.162 22.6637 259.162 22.6163 259.162 22.5847L264.463 2.70655C264.463 2.64335 264.463 2.56434 264.463 2.46953C264.463 2.0903 264.194 1.65011 263.659 1.14447C263.122 0.641084 262.855 0.34086 262.855 0.246052C262.855 0.0880382 262.998 0.00902939 263.282 0.00902939H288.081V0.0022583Z" fill="white"/>
<path d="M317.896 4.21445L315.673 12.6388C315.42 13.5847 314.74 14.4447 313.637 15.219C312.533 15.9932 311.348 16.4898 310.088 16.7088C310.12 16.8668 310.562 17.9007 311.413 19.8081C312.264 21.7178 312.691 22.7043 312.691 22.7653C312.691 23.0181 312.501 23.1445 312.124 23.1445H303.09C302.587 23.1445 302.271 22.9707 302.144 22.623L300.3 17.3702C300.142 17.0226 299.858 16.8488 299.449 16.8488C299.007 16.8488 298.725 17.0384 298.598 17.4176L297.273 22.5801C297.147 22.9571 296.846 23.1445 296.372 23.1445H287.323C286.912 23.1445 286.706 23.0023 286.706 22.7178C286.706 22.6546 286.706 22.6072 286.706 22.5756L292.007 2.69752C292.007 2.63431 292.007 2.55531 292.007 2.4605C292.007 2.08127 291.738 1.64108 291.203 1.13544C290.666 0.632055 290.399 0.331831 290.399 0.237022C290.399 0.0790088 290.542 0 290.826 0H313.734C314.964 0 315.982 0.31603 316.785 0.945827C317.589 1.57788 317.993 2.38149 317.993 3.35892C317.991 3.6456 317.959 3.93003 317.896 4.21445ZM303.844 14.7201C304.348 14.7201 304.646 14.5305 304.74 14.1512L307.77 2.69752C307.801 2.66591 307.817 2.61851 307.817 2.55531C307.817 2.27088 307.612 2.12867 307.203 2.12867H303.427C302.923 2.12867 302.623 2.32054 302.53 2.69978L299.501 14.1535C299.501 14.1851 299.488 14.2348 299.463 14.298C299.463 14.5779 299.666 14.7178 300.074 14.7178H303.844V14.7201Z" fill="white"/>
<path d="M105.397 14.7201L104.262 18.9323C103.977 20.0993 103.212 21.0948 101.966 21.9142C100.72 22.7359 99.3544 23.1445 97.8713 23.1445H77.6163C77.2054 23.1445 77 23.0023 77 22.7178C77 22.6546 77 22.6072 77 22.5756L82.3002 2.69752C82.3002 2.63431 82.3002 2.55531 82.3002 2.4605C82.3002 2.08127 82.0316 1.64108 81.4966 1.13544C80.9594 0.632055 80.693 0.331831 80.693 0.237022C80.693 0.0790088 80.8352 0 81.1196 0H104.027C105.257 0 106.275 0.31603 107.079 0.945827C107.883 1.57788 108.287 2.38149 108.287 3.35892C108.287 3.64335 108.255 3.92777 108.192 4.20993L107.056 8.42213C106.804 9.46276 105.779 10.5215 103.98 11.5937C104.989 12.4763 105.494 13.2348 105.494 13.8646C105.492 14.1535 105.46 14.4357 105.397 14.7201ZM92.4808 21.0632C92.9526 21.0632 93.2506 20.8578 93.377 20.447C94.6388 15.5869 95.2686 13.1422 95.2686 13.1106C95.2686 12.7946 95.0813 12.6388 94.7043 12.6388H90.9368C90.4334 12.6388 90.1354 12.8465 90.0429 13.2596C88.7494 18.1196 88.1016 20.5643 88.1016 20.5959C88.1016 20.9075 88.3047 21.0632 88.7133 21.0632H92.4808ZM92.8307 2.70429C91.5282 7.59368 90.8781 10.0542 90.8781 10.0835C90.8781 10.3973 91.0813 10.5531 91.4898 10.5531H95.2596C95.7314 10.5531 96.0293 10.3476 96.1558 9.93454C97.456 5.07675 98.1061 2.61851 98.1061 2.55531C98.1061 2.27088 97.9029 2.12867 97.4943 2.12867H93.7246C93.2235 2.13093 92.9255 2.3228 92.8307 2.70429Z" fill="white"/>
<path d="M112.921 19.5011L110.698 22.5779C110.445 22.9571 110.065 23.1467 109.562 23.1467H105.824C105.508 23.1467 105.35 23.0519 105.35 22.8623C105.35 22.7991 109.957 16.3634 119.169 3.55305C119.359 3.26863 119.454 2.97066 119.454 2.65463C119.454 2.43341 119.384 2.08578 119.242 1.61399C119.099 1.13995 119.029 0.794583 119.029 0.573364C119.029 0.257337 119.235 0.0993233 119.646 0.0993233L131.479 0.0045166C131.982 0.0045166 132.282 0.194132 132.377 0.573364L137.3 22.6275V22.7224C137.3 23.0068 137.095 23.149 136.684 23.149H124.993C124.519 23.149 124.237 22.9752 124.142 22.6275L123.339 19.5034C123.244 19.1242 122.959 18.9345 122.488 18.9345H114.111C113.6 18.9323 113.205 19.1219 112.921 19.5011ZM120.968 8.70881C120.937 8.5508 120.874 8.47179 120.779 8.47179C120.652 8.47179 120.542 8.5508 120.447 8.70881L115.242 16.2822C115.178 16.4086 115.147 16.5034 115.147 16.5666C115.147 16.7562 115.289 16.851 115.573 16.851H122.056C122.436 16.851 122.625 16.693 122.625 16.377L120.968 8.70881Z" fill="white"/>
<path d="M140.183 23.1445C139.772 23.1445 139.567 23.0023 139.567 22.7178C139.567 22.6546 139.567 22.6072 139.567 22.5756L144.867 2.69752C144.898 2.63431 144.914 2.55531 144.914 2.4605C144.914 2.08127 144.637 1.64108 144.086 1.13544C143.533 0.632055 143.257 0.331831 143.257 0.237022C143.257 0.0790088 143.4 0 143.684 0H155.375C155.754 0 155.944 0.158018 155.944 0.474045C155.944 0.505648 155.944 0.553047 155.944 0.616253L150.643 20.447C150.643 20.5102 150.643 20.5576 150.643 20.5892C150.643 20.9052 150.849 21.0632 151.26 21.0632H162.903C163.156 21.0632 163.282 21.1106 163.282 21.2054C163.282 21.2686 163.187 21.3634 162.998 21.4899L161.104 22.7201C160.693 23.0045 160.253 23.1467 159.779 23.1467H140.183V23.1445Z" fill="white"/>
<path d="M171.323 19.5011L169.099 22.5779C168.846 22.9571 168.467 23.1467 167.964 23.1467H164.226C163.91 23.1467 163.752 23.0519 163.752 22.8623C163.752 22.7991 168.359 16.3634 177.571 3.55305C177.761 3.26863 177.855 2.97066 177.855 2.65463C177.855 2.43341 177.786 2.08578 177.643 1.61399C177.501 1.13995 177.431 0.794583 177.431 0.573364C177.431 0.257337 177.637 0.0993233 178.047 0.0993233L189.88 0.0045166C190.384 0.0045166 190.684 0.194132 190.779 0.573364L195.7 22.6275V22.7224C195.7 23.0068 195.494 23.149 195.083 23.149H183.393C182.919 23.149 182.637 22.9752 182.542 22.6275L181.738 19.5034C181.643 19.1242 181.359 18.9345 180.887 18.9345H172.51C172.002 18.9323 171.607 19.1219 171.323 19.5011ZM179.37 8.70881C179.339 8.5508 179.275 8.47179 179.181 8.47179C179.054 8.47179 178.944 8.5508 178.849 8.70881L173.643 16.2822C173.58 16.4086 173.549 16.5034 173.549 16.5666C173.549 16.7562 173.691 16.851 173.975 16.851H180.458C180.837 16.851 181.027 16.693 181.027 16.377L179.37 8.70881Z" fill="white"/>
<path d="M202.418 1.1377C201.88 0.634313 201.614 0.334089 201.614 0.239281C201.614 0.0812671 201.756 0.0022583 202.041 0.0022583H213.684C214.187 0.0022583 214.519 0.176071 214.677 0.523701L220.641 15.2889C220.673 15.3838 220.736 15.4628 220.831 15.526C220.925 15.526 220.989 15.4312 221.02 15.2415L224.806 0.616253C224.901 0.207675 225.201 0 225.704 0H229.49C229.901 0 230.106 0.158018 230.106 0.474045C230.106 0.505648 230.09 0.553047 230.059 0.616253L224.237 22.5756C224.142 22.9549 223.842 23.1445 223.339 23.1445H214.298C213.792 23.1445 213.476 22.9707 213.352 22.623L207.341 7.85779C207.309 7.76298 207.246 7.69978 207.151 7.66817C207.088 7.66817 207.025 7.76298 206.962 7.9526L203.223 22.5779C203.097 22.9571 202.797 23.1467 202.325 23.1467H198.539C198.129 23.1467 197.923 23.0045 197.923 22.7201C197.923 22.6569 197.923 22.6095 197.923 22.5779L203.223 2.69978C203.223 2.63657 203.223 2.55757 203.223 2.46276C203.221 2.08352 202.955 1.64334 202.418 1.1377Z" fill="white"/>
<path d="M248.088 10.5553C247.677 10.5553 247.472 10.3973 247.472 10.0813C247.472 9.45148 247.795 8.17156 248.442 6.24831C249.088 4.32506 249.413 3.09255 249.413 2.55756C249.413 2.27314 249.223 2.13093 248.846 2.13093H245.07C244.567 2.13093 244.269 2.3228 244.174 2.70203L239.436 20.4492C239.436 20.5124 239.433 20.5598 239.427 20.5914C239.427 20.9075 239.632 21.0632 240.043 21.0632H243.781C244.284 21.0632 244.585 20.8578 244.679 20.447L246.621 13.2528C246.716 12.8442 247.016 12.6366 247.519 12.6366H256.56C256.968 12.6366 257.176 12.7946 257.176 13.1106C257.176 13.1738 256.655 15.1151 255.614 18.9323C255.298 20.0993 254.526 21.0948 253.296 21.9142C252.065 22.7359 250.709 23.1445 249.226 23.1445H233.465C232.235 23.1445 231.217 22.8375 230.413 22.2212C229.609 21.605 229.205 20.8104 229.205 19.8307C229.205 19.5463 229.253 19.2483 229.348 18.9323L233.228 4.21219C233.544 3.07675 234.316 2.0903 235.546 1.25508C236.776 0.419866 238.133 0 239.616 0H255.377C256.607 0 257.625 0.31603 258.429 0.945827C259.232 1.57788 259.637 2.38149 259.637 3.35892C259.637 3.64335 259.605 3.92777 259.542 4.20993L258.027 9.9368C257.901 10.3476 257.6 10.5531 257.129 10.5531H248.088V10.5553Z" fill="white"/>
<path d="M288.081 0.0022583C288.49 0.0022583 288.697 0.160272 288.697 0.476299C288.697 1.58014 288.302 2.13319 287.515 2.13319H275.869C275.363 2.13319 275.065 2.3228 274.971 2.70203C273.677 7.56208 273.029 10.0226 273.029 10.0858C273.029 10.4018 273.235 10.5598 273.646 10.5598H285.289C285.542 10.5598 285.668 10.6072 285.668 10.702C285.668 10.7652 285.573 10.8442 285.384 10.9391L283.49 12.2167C283.079 12.5011 282.621 12.6433 282.117 12.6433H273.077C272.571 12.6433 272.273 12.8488 272.178 13.2596C270.885 18.1196 270.237 20.5643 270.237 20.5959C270.237 20.912 270.442 21.07 270.853 21.07H282.497C282.749 21.07 282.876 21.1174 282.876 21.2122C282.876 21.2754 282.781 21.3702 282.591 21.4966L280.697 22.7269C280.287 23.0113 279.846 23.1535 279.372 23.1535H259.779C259.368 23.1535 259.162 23.0113 259.162 22.7269C259.162 22.6637 259.162 22.6163 259.162 22.5847L264.463 2.70655C264.463 2.64335 264.463 2.56434 264.463 2.46953C264.463 2.0903 264.194 1.65011 263.659 1.14447C263.122 0.641084 262.855 0.34086 262.855 0.246052C262.855 0.0880382 262.998 0.00902939 263.282 0.00902939H288.081V0.0022583Z" fill="white"/>
<path d="M317.896 4.21445L315.673 12.6388C315.42 13.5847 314.74 14.4447 313.637 15.219C312.533 15.9932 311.348 16.4898 310.088 16.7088C310.12 16.8668 310.562 17.9007 311.413 19.8081C312.264 21.7178 312.691 22.7043 312.691 22.7653C312.691 23.0181 312.501 23.1445 312.124 23.1445H303.09C302.587 23.1445 302.271 22.9707 302.144 22.623L300.3 17.3702C300.142 17.0226 299.858 16.8488 299.449 16.8488C299.007 16.8488 298.725 17.0384 298.598 17.4176L297.273 22.5801C297.147 22.9571 296.846 23.1445 296.372 23.1445H287.323C286.912 23.1445 286.706 23.0023 286.706 22.7178C286.706 22.6546 286.706 22.6072 286.706 22.5756L292.007 2.69752C292.007 2.63431 292.007 2.55531 292.007 2.4605C292.007 2.08127 291.738 1.64108 291.203 1.13544C290.666 0.632055 290.399 0.331831 290.399 0.237022C290.399 0.0790088 290.542 0 290.826 0H313.734C314.964 0 315.982 0.31603 316.785 0.945827C317.589 1.57788 317.993 2.38149 317.993 3.35892C317.991 3.6456 317.959 3.93003 317.896 4.21445ZM303.844 14.7201C304.348 14.7201 304.646 14.5305 304.74 14.1512L307.77 2.69752C307.801 2.66591 307.817 2.61851 307.817 2.55531C307.817 2.27088 307.612 2.12867 307.203 2.12867H303.427C302.923 2.12867 302.623 2.32054 302.53 2.69978L299.501 14.1535C299.501 14.1851 299.488 14.2348 299.463 14.298C299.463 14.5779 299.666 14.7178 300.074 14.7178H303.844V14.7201Z" fill="white"/>
<path d="M105.397 14.7201L104.262 18.9323C103.977 20.0993 103.212 21.0948 101.966 21.9142C100.72 22.7359 99.3544 23.1445 97.8713 23.1445H77.6163C77.2054 23.1445 77 23.0023 77 22.7178C77 22.6546 77 22.6072 77 22.5756L82.3002 2.69752C82.3002 2.63431 82.3002 2.55531 82.3002 2.4605C82.3002 2.08127 82.0316 1.64108 81.4966 1.13544C80.9594 0.632055 80.693 0.331831 80.693 0.237022C80.693 0.0790088 80.8352 0 81.1196 0H104.027C105.257 0 106.275 0.31603 107.079 0.945827C107.883 1.57788 108.287 2.38149 108.287 3.35892C108.287 3.64335 108.255 3.92777 108.192 4.20993L107.056 8.42213C106.804 9.46276 105.779 10.5215 103.98 11.5937C104.989 12.4763 105.494 13.2348 105.494 13.8646C105.492 14.1535 105.46 14.4357 105.397 14.7201ZM92.4808 21.0632C92.9526 21.0632 93.2506 20.8578 93.377 20.447C94.6388 15.5869 95.2686 13.1422 95.2686 13.1106C95.2686 12.7946 95.0813 12.6388 94.7043 12.6388H90.9368C90.4334 12.6388 90.1354 12.8465 90.0429 13.2596C88.7494 18.1196 88.1016 20.5643 88.1016 20.5959C88.1016 20.9075 88.3047 21.0632 88.7133 21.0632H92.4808ZM92.8307 2.70429C91.5282 7.59368 90.8781 10.0542 90.8781 10.0835C90.8781 10.3973 91.0813 10.5531 91.4898 10.5531H95.2596C95.7314 10.5531 96.0293 10.3476 96.1558 9.93454C97.456 5.07675 98.1061 2.61851 98.1061 2.55531C98.1061 2.27088 97.9029 2.12867 97.4943 2.12867H93.7246C93.2235 2.13093 92.9255 2.3228 92.8307 2.70429Z" fill="white"/>
<path d="M112.921 19.5011L110.698 22.5779C110.445 22.9571 110.065 23.1467 109.562 23.1467H105.824C105.508 23.1467 105.35 23.0519 105.35 22.8623C105.35 22.7991 109.957 16.3634 119.169 3.55305C119.359 3.26863 119.454 2.97066 119.454 2.65463C119.454 2.43341 119.384 2.08578 119.242 1.61399C119.099 1.13995 119.029 0.794583 119.029 0.573364C119.029 0.257337 119.235 0.0993233 119.646 0.0993233L131.479 0.0045166C131.982 0.0045166 132.282 0.194132 132.377 0.573364L137.3 22.6275V22.7224C137.3 23.0068 137.095 23.149 136.684 23.149H124.993C124.519 23.149 124.237 22.9752 124.142 22.6275L123.339 19.5034C123.244 19.1242 122.959 18.9345 122.488 18.9345H114.111C113.6 18.9323 113.205 19.1219 112.921 19.5011ZM120.968 8.70881C120.937 8.5508 120.874 8.47179 120.779 8.47179C120.652 8.47179 120.542 8.5508 120.447 8.70881L115.242 16.2822C115.178 16.4086 115.147 16.5034 115.147 16.5666C115.147 16.7562 115.289 16.851 115.573 16.851H122.056C122.436 16.851 122.625 16.693 122.625 16.377L120.968 8.70881Z" fill="white"/>
<path d="M140.183 23.1445C139.772 23.1445 139.567 23.0023 139.567 22.7178C139.567 22.6546 139.567 22.6072 139.567 22.5756L144.867 2.69752C144.898 2.63431 144.914 2.55531 144.914 2.4605C144.914 2.08127 144.637 1.64108 144.086 1.13544C143.533 0.632055 143.257 0.331831 143.257 0.237022C143.257 0.0790088 143.4 0 143.684 0H155.375C155.754 0 155.944 0.158018 155.944 0.474045C155.944 0.505648 155.944 0.553047 155.944 0.616253L150.643 20.447C150.643 20.5102 150.643 20.5576 150.643 20.5892C150.643 20.9052 150.849 21.0632 151.26 21.0632H162.903C163.156 21.0632 163.282 21.1106 163.282 21.2054C163.282 21.2686 163.187 21.3634 162.998 21.4899L161.104 22.7201C160.693 23.0045 160.253 23.1467 159.779 23.1467H140.183V23.1445Z" fill="white"/>
<path d="M171.323 19.5011L169.099 22.5779C168.846 22.9571 168.467 23.1467 167.964 23.1467H164.226C163.91 23.1467 163.752 23.0519 163.752 22.8623C163.752 22.7991 168.359 16.3634 177.571 3.55305C177.761 3.26863 177.855 2.97066 177.855 2.65463C177.855 2.43341 177.786 2.08578 177.643 1.61399C177.501 1.13995 177.431 0.794583 177.431 0.573364C177.431 0.257337 177.637 0.0993233 178.047 0.0993233L189.88 0.0045166C190.384 0.0045166 190.684 0.194132 190.779 0.573364L195.7 22.6275V22.7224C195.7 23.0068 195.494 23.149 195.083 23.149H183.393C182.919 23.149 182.637 22.9752 182.542 22.6275L181.738 19.5034C181.643 19.1242 181.359 18.9345 180.887 18.9345H172.51C172.002 18.9323 171.607 19.1219 171.323 19.5011ZM179.37 8.70881C179.339 8.5508 179.275 8.47179 179.181 8.47179C179.054 8.47179 178.944 8.5508 178.849 8.70881L173.643 16.2822C173.58 16.4086 173.549 16.5034 173.549 16.5666C173.549 16.7562 173.691 16.851 173.975 16.851H180.458C180.837 16.851 181.027 16.693 181.027 16.377L179.37 8.70881Z" fill="white"/>
<path d="M202.418 1.1377C201.88 0.634313 201.614 0.334089 201.614 0.239281C201.614 0.0812671 201.756 0.0022583 202.041 0.0022583H213.684C214.187 0.0022583 214.519 0.176071 214.677 0.523701L220.641 15.2889C220.673 15.3838 220.736 15.4628 220.831 15.526C220.925 15.526 220.989 15.4312 221.02 15.2415L224.806 0.616253C224.901 0.207675 225.201 0 225.704 0H229.49C229.901 0 230.106 0.158018 230.106 0.474045C230.106 0.505648 230.09 0.553047 230.059 0.616253L224.237 22.5756C224.142 22.9549 223.842 23.1445 223.339 23.1445H214.298C213.792 23.1445 213.476 22.9707 213.352 22.623L207.341 7.85779C207.309 7.76298 207.246 7.69978 207.151 7.66817C207.088 7.66817 207.025 7.76298 206.962 7.9526L203.223 22.5779C203.097 22.9571 202.797 23.1467 202.325 23.1467H198.539C198.129 23.1467 197.923 23.0045 197.923 22.7201C197.923 22.6569 197.923 22.6095 197.923 22.5779L203.223 2.69978C203.223 2.63657 203.223 2.55757 203.223 2.46276C203.221 2.08352 202.955 1.64334 202.418 1.1377Z" fill="white"/>
<path d="M248.088 10.5553C247.677 10.5553 247.472 10.3973 247.472 10.0813C247.472 9.45148 247.795 8.17156 248.442 6.24831C249.088 4.32506 249.413 3.09255 249.413 2.55756C249.413 2.27314 249.223 2.13093 248.846 2.13093H245.07C244.567 2.13093 244.269 2.3228 244.174 2.70203L239.436 20.4492C239.436 20.5124 239.433 20.5598 239.427 20.5914C239.427 20.9075 239.632 21.0632 240.043 21.0632H243.781C244.284 21.0632 244.585 20.8578 244.679 20.447L246.621 13.2528C246.716 12.8442 247.016 12.6366 247.519 12.6366H256.56C256.968 12.6366 257.176 12.7946 257.176 13.1106C257.176 13.1738 256.655 15.1151 255.614 18.9323C255.298 20.0993 254.526 21.0948 253.296 21.9142C252.065 22.7359 250.709 23.1445 249.226 23.1445H233.465C232.235 23.1445 231.217 22.8375 230.413 22.2212C229.609 21.605 229.205 20.8104 229.205 19.8307C229.205 19.5463 229.253 19.2483 229.348 18.9323L233.228 4.21219C233.544 3.07675 234.316 2.0903 235.546 1.25508C236.776 0.419866 238.133 0 239.616 0H255.377C256.607 0 257.625 0.31603 258.429 0.945827C259.232 1.57788 259.637 2.38149 259.637 3.35892C259.637 3.64335 259.605 3.92777 259.542 4.20993L258.027 9.9368C257.901 10.3476 257.6 10.5531 257.129 10.5531H248.088V10.5553Z" fill="white"/>
<path d="M288.081 0.0022583C288.49 0.0022583 288.697 0.160272 288.697 0.476299C288.697 1.58014 288.302 2.13319 287.515 2.13319H275.869C275.363 2.13319 275.065 2.3228 274.971 2.70203C273.677 7.56208 273.029 10.0226 273.029 10.0858C273.029 10.4018 273.235 10.5598 273.646 10.5598H285.289C285.542 10.5598 285.668 10.6072 285.668 10.702C285.668 10.7652 285.573 10.8442 285.384 10.9391L283.49 12.2167C283.079 12.5011 282.621 12.6433 282.117 12.6433H273.077C272.571 12.6433 272.273 12.8488 272.178 13.2596C270.885 18.1196 270.237 20.5643 270.237 20.5959C270.237 20.912 270.442 21.07 270.853 21.07H282.497C282.749 21.07 282.876 21.1174 282.876 21.2122C282.876 21.2754 282.781 21.3702 282.591 21.4966L280.697 22.7269C280.287 23.0113 279.846 23.1535 279.372 23.1535H259.779C259.368 23.1535 259.162 23.0113 259.162 22.7269C259.162 22.6637 259.162 22.6163 259.162 22.5847L264.463 2.70655C264.463 2.64335 264.463 2.56434 264.463 2.46953C264.463 2.0903 264.194 1.65011 263.659 1.14447C263.122 0.641084 262.855 0.34086 262.855 0.246052C262.855 0.0880382 262.998 0.00902939 263.282 0.00902939H288.081V0.0022583Z" fill="white"/>
<path d="M317.896 4.21445L315.673 12.6388C315.42 13.5847 314.74 14.4447 313.637 15.219C312.533 15.9932 311.348 16.4898 310.088 16.7088C310.12 16.8668 310.562 17.9007 311.413 19.8081C312.264 21.7178 312.691 22.7043 312.691 22.7653C312.691 23.0181 312.501 23.1445 312.124 23.1445H303.09C302.587 23.1445 302.271 22.9707 302.144 22.623L300.3 17.3702C300.142 17.0226 299.858 16.8488 299.449 16.8488C299.007 16.8488 298.725 17.0384 298.598 17.4176L297.273 22.5801C297.147 22.9571 296.846 23.1445 296.372 23.1445H287.323C286.912 23.1445 286.706 23.0023 286.706 22.7178C286.706 22.6546 286.706 22.6072 286.706 22.5756L292.007 2.69752C292.007 2.63431 292.007 2.55531 292.007 2.4605C292.007 2.08127 291.738 1.64108 291.203 1.13544C290.666 0.632055 290.399 0.331831 290.399 0.237022C290.399 0.0790088 290.542 0 290.826 0H313.734C314.964 0 315.982 0.31603 316.785 0.945827C317.589 1.57788 317.993 2.38149 317.993 3.35892C317.991 3.6456 317.959 3.93003 317.896 4.21445ZM303.844 14.7201C304.348 14.7201 304.646 14.5305 304.74 14.1512L307.77 2.69752C307.801 2.66591 307.817 2.61851 307.817 2.55531C307.817 2.27088 307.612 2.12867 307.203 2.12867H303.427C302.923 2.12867 302.623 2.32054 302.53 2.69978L299.501 14.1535C299.501 14.1851 299.488 14.2348 299.463 14.298C299.463 14.5779 299.666 14.7178 300.074 14.7178H303.844V14.7201Z" fill="white"/>
<path d="M105.397 14.7201L104.262 18.9323C103.977 20.0993 103.212 21.0948 101.966 21.9142C100.72 22.7359 99.3544 23.1445 97.8713 23.1445H77.6163C77.2054 23.1445 77 23.0023 77 22.7178C77 22.6546 77 22.6072 77 22.5756L82.3002 2.69752C82.3002 2.63431 82.3002 2.55531 82.3002 2.4605C82.3002 2.08127 82.0316 1.64108 81.4966 1.13544C80.9594 0.632055 80.693 0.331831 80.693 0.237022C80.693 0.0790088 80.8352 0 81.1196 0H104.027C105.257 0 106.275 0.31603 107.079 0.945827C107.883 1.57788 108.287 2.38149 108.287 3.35892C108.287 3.64335 108.255 3.92777 108.192 4.20993L107.056 8.42213C106.804 9.46276 105.779 10.5215 103.98 11.5937C104.989 12.4763 105.494 13.2348 105.494 13.8646C105.492 14.1535 105.46 14.4357 105.397 14.7201ZM92.4808 21.0632C92.9526 21.0632 93.2506 20.8578 93.377 20.447C94.6388 15.5869 95.2686 13.1422 95.2686 13.1106C95.2686 12.7946 95.0813 12.6388 94.7043 12.6388H90.9368C90.4334 12.6388 90.1354 12.8465 90.0429 13.2596C88.7494 18.1196 88.1016 20.5643 88.1016 20.5959C88.1016 20.9075 88.3047 21.0632 88.7133 21.0632H92.4808ZM92.8307 2.70429C91.5282 7.59368 90.8781 10.0542 90.8781 10.0835C90.8781 10.3973 91.0813 10.5531 91.4898 10.5531H95.2596C95.7314 10.5531 96.0293 10.3476 96.1558 9.93454C97.456 5.07675 98.1061 2.61851 98.1061 2.55531C98.1061 2.27088 97.9029 2.12867 97.4943 2.12867H93.7246C93.2235 2.13093 92.9255 2.3228 92.8307 2.70429Z" fill="white"/>
<path d="M112.921 19.5011L110.698 22.5779C110.445 22.9571 110.065 23.1467 109.562 23.1467H105.824C105.508 23.1467 105.35 23.0519 105.35 22.8623C105.35 22.7991 109.957 16.3634 119.169 3.55305C119.359 3.26863 119.454 2.97066 119.454 2.65463C119.454 2.43341 119.384 2.08578 119.242 1.61399C119.099 1.13995 119.029 0.794583 119.029 0.573364C119.029 0.257337 119.235 0.0993233 119.646 0.0993233L131.479 0.0045166C131.982 0.0045166 132.282 0.194132 132.377 0.573364L137.3 22.6275V22.7224C137.3 23.0068 137.095 23.149 136.684 23.149H124.993C124.519 23.149 124.237 22.9752 124.142 22.6275L123.339 19.5034C123.244 19.1242 122.959 18.9345 122.488 18.9345H114.111C113.6 18.9323 113.205 19.1219 112.921 19.5011ZM120.968 8.70881C120.937 8.5508 120.874 8.47179 120.779 8.47179C120.652 8.47179 120.542 8.5508 120.447 8.70881L115.242 16.2822C115.178 16.4086 115.147 16.5034 115.147 16.5666C115.147 16.7562 115.289 16.851 115.573 16.851H122.056C122.436 16.851 122.625 16.693 122.625 16.377L120.968 8.70881Z" fill="white"/>
<path d="M140.183 23.1445C139.772 23.1445 139.567 23.0023 139.567 22.7178C139.567 22.6546 139.567 22.6072 139.567 22.5756L144.867 2.69752C144.898 2.63431 144.914 2.55531 144.914 2.4605C144.914 2.08127 144.637 1.64108 144.086 1.13544C143.533 0.632055 143.257 0.331831 143.257 0.237022C143.257 0.0790088 143.4 0 143.684 0H155.375C155.754 0 155.944 0.158018 155.944 0.474045C155.944 0.505648 155.944 0.553047 155.944 0.616253L150.643 20.447C150.643 20.5102 150.643 20.5576 150.643 20.5892C150.643 20.9052 150.849 21.0632 151.26 21.0632H162.903C163.156 21.0632 163.282 21.1106 163.282 21.2054C163.282 21.2686 163.187 21.3634 162.998 21.4899L161.104 22.7201C160.693 23.0045 160.253 23.1467 159.779 23.1467H140.183V23.1445Z" fill="white"/>
<path d="M171.323 19.5011L169.099 22.5779C168.846 22.9571 168.467 23.1467 167.964 23.1467H164.226C163.91 23.1467 163.752 23.0519 163.752 22.8623C163.752 22.7991 168.359 16.3634 177.571 3.55305C177.761 3.26863 177.855 2.97066 177.855 2.65463C177.855 2.43341 177.786 2.08578 177.643 1.61399C177.501 1.13995 177.431 0.794583 177.431 0.573364C177.431 0.257337 177.637 0.0993233 178.047 0.0993233L189.88 0.0045166C190.384 0.0045166 190.684 0.194132 190.779 0.573364L195.7 22.6275V22.7224C195.7 23.0068 195.494 23.149 195.083 23.149H183.393C182.919 23.149 182.637 22.9752 182.542 22.6275L181.738 19.5034C181.643 19.1242 181.359 18.9345 180.887 18.9345H172.51C172.002 18.9323 171.607 19.1219 171.323 19.5011ZM179.37 8.70881C179.339 8.5508 179.275 8.47179 179.181 8.47179C179.054 8.47179 178.944 8.5508 178.849 8.70881L173.643 16.2822C173.58 16.4086 173.549 16.5034 173.549 16.5666C173.549 16.7562 173.691 16.851 173.975 16.851H180.458C180.837 16.851 181.027 16.693 181.027 16.377L179.37 8.70881Z" fill="white"/>
<path d="M202.418 1.1377C201.88 0.634313 201.614 0.334089 201.614 0.239281C201.614 0.0812671 201.756 0.0022583 202.041 0.0022583H213.684C214.187 0.0022583 214.519 0.176071 214.677 0.523701L220.641 15.2889C220.673 15.3838 220.736 15.4628 220.831 15.526C220.925 15.526 220.989 15.4312 221.02 15.2415L224.806 0.616253C224.901 0.207675 225.201 0 225.704 0H229.49C229.901 0 230.106 0.158018 230.106 0.474045C230.106 0.505648 230.09 0.553047 230.059 0.616253L224.237 22.5756C224.142 22.9549 223.842 23.1445 223.339 23.1445H214.298C213.792 23.1445 213.476 22.9707 213.352 22.623L207.341 7.85779C207.309 7.76298 207.246 7.69978 207.151 7.66817C207.088 7.66817 207.025 7.76298 206.962 7.9526L203.223 22.5779C203.097 22.9571 202.797 23.1467 202.325 23.1467H198.539C198.129 23.1467 197.923 23.0045 197.923 22.7201C197.923 22.6569 197.923 22.6095 197.923 22.5779L203.223 2.69978C203.223 2.63657 203.223 2.55757 203.223 2.46276C203.221 2.08352 202.955 1.64334 202.418 1.1377Z" fill="white"/>
<path d="M248.088 10.5553C247.677 10.5553 247.472 10.3973 247.472 10.0813C247.472 9.45148 247.795 8.17156 248.442 6.24831C249.088 4.32506 249.413 3.09255 249.413 2.55756C249.413 2.27314 249.223 2.13093 248.846 2.13093H245.07C244.567 2.13093 244.269 2.3228 244.174 2.70203L239.436 20.4492C239.436 20.5124 239.433 20.5598 239.427 20.5914C239.427 20.9075 239.632 21.0632 240.043 21.0632H243.781C244.284 21.0632 244.585 20.8578 244.679 20.447L246.621 13.2528C246.716 12.8442 247.016 12.6366 247.519 12.6366H256.56C256.968 12.6366 257.176 12.7946 257.176 13.1106C257.176 13.1738 256.655 15.1151 255.614 18.9323C255.298 20.0993 254.526 21.0948 253.296 21.9142C252.065 22.7359 250.709 23.1445 249.226 23.1445H233.465C232.235 23.1445 231.217 22.8375 230.413 22.2212C229.609 21.605 229.205 20.8104 229.205 19.8307C229.205 19.5463 229.253 19.2483 229.348 18.9323L233.228 4.21219C233.544 3.07675 234.316 2.0903 235.546 1.25508C236.776 0.419866 238.133 0 239.616 0H255.377C256.607 0 257.625 0.31603 258.429 0.945827C259.232 1.57788 259.637 2.38149 259.637 3.35892C259.637 3.64335 259.605 3.92777 259.542 4.20993L258.027 9.9368C257.901 10.3476 257.6 10.5531 257.129 10.5531H248.088V10.5553Z" fill="white"/>
<path d="M288.081 0.0022583C288.49 0.0022583 288.697 0.160272 288.697 0.476299C288.697 1.58014 288.302 2.13319 287.515 2.13319H275.869C275.363 2.13319 275.065 2.3228 274.971 2.70203C273.677 7.56208 273.029 10.0226 273.029 10.0858C273.029 10.4018 273.235 10.5598 273.646 10.5598H285.289C285.542 10.5598 285.668 10.6072 285.668 10.702C285.668 10.7652 285.573 10.8442 285.384 10.9391L283.49 12.2167C283.079 12.5011 282.621 12.6433 282.117 12.6433H273.077C272.571 12.6433 272.273 12.8488 272.178 13.2596C270.885 18.1196 270.237 20.5643 270.237 20.5959C270.237 20.912 270.442 21.07 270.853 21.07H282.497C282.749 21.07 282.876 21.1174 282.876 21.2122C282.876 21.2754 282.781 21.3702 282.591 21.4966L280.697 22.7269C280.287 23.0113 279.846 23.1535 279.372 23.1535H259.779C259.368 23.1535 259.162 23.0113 259.162 22.7269C259.162 22.6637 259.162 22.6163 259.162 22.5847L264.463 2.70655C264.463 2.64335 264.463 2.56434 264.463 2.46953C264.463 2.0903 264.194 1.65011 263.659 1.14447C263.122 0.641084 262.855 0.34086 262.855 0.246052C262.855 0.0880382 262.998 0.00902939 263.282 0.00902939H288.081V0.0022583Z" fill="white"/>
<path d="M317.896 4.21445L315.673 12.6388C315.42 13.5847 314.74 14.4447 313.637 15.219C312.533 15.9932 311.348 16.4898 310.088 16.7088C310.12 16.8668 310.562 17.9007 311.413 19.8081C312.264 21.7178 312.691 22.7043 312.691 22.7653C312.691 23.0181 312.501 23.1445 312.124 23.1445H303.09C302.587 23.1445 302.271 22.9707 302.144 22.623L300.3 17.3702C300.142 17.0226 299.858 16.8488 299.449 16.8488C299.007 16.8488 298.725 17.0384 298.598 17.4176L297.273 22.5801C297.147 22.9571 296.846 23.1445 296.372 23.1445H287.323C286.912 23.1445 286.706 23.0023 286.706 22.7178C286.706 22.6546 286.706 22.6072 286.706 22.5756L292.007 2.69752C292.007 2.63431 292.007 2.55531 292.007 2.4605C292.007 2.08127 291.738 1.64108 291.203 1.13544C290.666 0.632055 290.399 0.331831 290.399 0.237022C290.399 0.0790088 290.542 0 290.826 0H313.734C314.964 0 315.982 0.31603 316.785 0.945827C317.589 1.57788 317.993 2.38149 317.993 3.35892C317.991 3.6456 317.959 3.93003 317.896 4.21445ZM303.844 14.7201C304.348 14.7201 304.646 14.5305 304.74 14.1512L307.77 2.69752C307.801 2.66591 307.817 2.61851 307.817 2.55531C307.817 2.27088 307.612 2.12867 307.203 2.12867H303.427C302.923 2.12867 302.623 2.32054 302.53 2.69978L299.501 14.1535C299.501 14.1851 299.488 14.2348 299.463 14.298C299.463 14.5779 299.666 14.7178 300.074 14.7178H303.844V14.7201Z" fill="white"/>
</svg>
