<svg width="342" height="26" viewBox="0 0 342 26" fill="none" xmlns="http://www.w3.org/2000/svg">
<path d="M6.28937 2.99239C6.28937 3.09453 6.28937 3.17965 6.28937 3.24775L0.5625 24.6978C0.5625 24.7318 0.5625 24.7829 0.5625 24.851C0.5625 25.1574 0.784076 25.3106 1.22723 25.3106H23.1632C24.7313 25.3106 26.18 24.868 27.5095 23.9828C28.873 23.0975 29.7082 22.025 30.015 20.7653L34.259 4.88203C34.3272 4.57561 34.3613 4.26918 34.3613 3.96275C34.3613 2.90727 33.9181 2.03905 33.0318 1.3581C32.1796 0.677146 31.0888 0.33667 29.7593 0.33667H5.01105C4.70426 0.33667 4.55086 0.421789 4.55086 0.592027C4.55086 0.69417 4.84061 1.01762 5.42012 1.56239C5.99962 2.10715 6.28937 2.58382 6.28937 2.99239ZM18.6124 2.63489H22.703C23.1462 2.63489 23.3677 2.7881 23.3677 3.09453C23.3677 3.16263 23.3507 3.2137 23.3166 3.24775L18.2545 22.3996C18.1181 22.8422 17.7943 23.0635 17.2829 23.0635H13.1923C12.7492 23.0635 12.5276 22.8933 12.5276 22.5528C12.5276 22.5187 12.5276 22.4677 12.5276 22.3996L17.6409 3.24775C17.7431 2.83917 18.067 2.63489 18.6124 2.63489Z" fill="#85F0FF"/>
<path d="M44.6494 25.3106C45.1607 25.3106 45.4845 25.1064 45.6209 24.6978L51.9102 1.0006C51.9102 0.932503 51.9102 0.881432 51.9102 0.847385C51.9102 0.506908 51.7057 0.33667 51.2966 0.33667H38.6668C38.36 0.33667 38.2066 0.421789 38.2066 0.592027C38.2066 0.69417 38.4964 1.01762 39.0759 1.56239C39.6554 2.10715 39.9451 2.58382 39.9451 2.99239C39.9451 3.09453 39.9451 3.17965 39.9451 3.24775L34.2183 24.6978C34.2183 24.7318 34.2183 24.7829 34.2183 24.851C34.2183 25.1574 34.4398 25.3106 34.883 25.3106H44.6494Z" fill="#85F0FF"/>
<path d="M64.4885 8.91668C64.4885 8.88264 64.9828 6.99299 65.9714 3.24775C66.0736 2.83917 66.3975 2.63489 66.9429 2.63489H79.5215C80.067 2.63489 81.2601 2.02203 83.1008 0.796312C83.2713 0.69417 83.3565 0.592027 83.3565 0.489884C83.3565 0.387741 83.2372 0.33667 82.9986 0.33667H61.0626C59.4604 0.33667 57.9946 0.796313 56.6652 1.7156C55.3357 2.60084 54.5006 3.65632 54.1597 4.88203L52.37 11.7256C52.2678 12.032 52.2166 12.3385 52.2166 12.6449C52.2166 13.7004 52.6427 14.5686 53.4949 15.2496C54.3812 15.8965 55.4891 16.2199 56.8186 16.2199H67.4031C67.8121 16.2199 68.0167 16.3902 68.0167 16.7306C68.0167 16.7647 67.5224 18.6543 66.5338 22.3996C66.4315 22.8422 66.1077 23.0635 65.5623 23.0635H52.9836C52.4382 23.0635 51.2451 23.6593 49.4043 24.851C49.2339 24.9872 49.1487 25.0893 49.1487 25.1574C49.1487 25.2596 49.268 25.3106 49.5066 25.3106H71.4426C73.0447 25.3106 74.5105 24.868 75.84 23.9828C77.1694 23.0975 78.0046 22.025 78.3455 20.7653L80.1351 13.9728C80.2374 13.6663 80.2885 13.3429 80.2885 13.0024C80.2885 11.9469 79.8454 11.0957 78.9591 10.4488C78.1069 9.76788 77.016 9.4274 75.6866 9.4274H65.1021C64.693 9.4274 64.4885 9.25716 64.4885 8.91668Z" fill="#85F0FF"/>
<path d="M112.038 15.3006C112.038 14.6197 111.493 13.8025 110.402 12.8492C112.345 11.6916 113.453 10.551 113.726 9.4274L114.953 4.88203C115.021 4.57561 115.055 4.26918 115.055 3.96275C115.055 2.90727 114.612 2.03905 113.726 1.3581C112.874 0.677146 111.783 0.33667 110.453 0.33667H85.705C85.3982 0.33667 85.2448 0.421789 85.2448 0.592027C85.2448 0.69417 85.5346 1.01762 86.1141 1.56239C86.6936 2.10715 86.9833 2.58382 86.9833 2.99239C86.9833 3.09453 86.9833 3.17965 86.9833 3.24775L81.2565 24.6978C81.2565 24.7318 81.2565 24.7829 81.2565 24.851C81.2565 25.1574 81.478 25.3106 81.9212 25.3106H103.806C105.408 25.3106 106.874 24.868 108.203 23.9828C109.567 23.0975 110.402 22.025 110.709 20.7653L111.936 16.2199C112.004 15.9135 112.038 15.6071 112.038 15.3006ZM99.3063 2.63489H103.397C103.84 2.63489 104.062 2.7881 104.062 3.09453C104.062 3.16263 103.363 5.81835 101.965 11.0617C101.829 11.5043 101.505 11.7256 100.994 11.7256H96.9031C96.46 11.7256 96.2384 11.5554 96.2384 11.2149C96.2384 11.1809 96.9372 8.52514 98.3348 3.24775C98.4371 2.83917 98.7609 2.63489 99.3063 2.63489ZM93.8863 23.0635C93.4431 23.0635 93.2215 22.8933 93.2215 22.5528C93.2215 22.5187 93.9204 19.88 95.318 14.6367C95.4202 14.1941 95.7441 13.9728 96.2895 13.9728H100.38C100.789 13.9728 100.994 14.143 100.994 14.4835C100.994 14.5175 100.312 17.1562 98.9484 22.3996C98.8121 22.8422 98.4882 23.0635 97.9769 23.0635H93.8863Z" fill="#85F0FF"/>
<path d="M121.326 20.7653H130.376C130.888 20.7653 131.194 20.9696 131.297 21.3781L132.166 24.7489C132.268 25.1234 132.575 25.3106 133.086 25.3106H145.716C146.159 25.3106 146.381 25.1574 146.381 24.851V24.7489L141.063 0.949528C140.961 0.540956 140.637 0.33667 140.092 0.33667L127.308 0.438812C126.865 0.438812 126.644 0.60905 126.644 0.949528C126.644 1.18786 126.712 1.56239 126.848 2.0731C127.019 2.58382 127.104 2.95834 127.104 3.19667C127.104 3.53715 127.002 3.8606 126.797 4.16703C116.843 17.9904 111.866 24.9361 111.866 25.0042C111.866 25.2085 112.037 25.3106 112.378 25.3106H116.417C116.962 25.3106 117.372 25.1064 117.644 24.6978L120.047 21.3781C120.354 20.9696 120.78 20.7653 121.326 20.7653ZM130.53 18.0074C130.53 18.3479 130.325 18.5181 129.916 18.5181H122.911C122.604 18.5181 122.451 18.416 122.451 18.2117C122.451 18.1436 122.485 18.0415 122.553 17.9053L128.178 9.73383C128.28 9.56359 128.399 9.47847 128.536 9.47847C128.638 9.47847 128.706 9.56359 128.74 9.73383L130.53 18.0074Z" fill="#85F0FF"/>
<path d="M170.651 25.3106C171.163 25.3106 171.64 25.1574 172.083 24.851L174.128 23.5231C174.333 23.3869 174.435 23.2848 174.435 23.2167C174.435 23.1146 174.299 23.0635 174.026 23.0635H161.447C161.004 23.0635 160.783 22.8933 160.783 22.5528C160.783 22.5187 160.783 22.4677 160.783 22.3996L166.51 1.0006C166.51 0.932503 166.51 0.881432 166.51 0.847385C166.51 0.506908 166.305 0.33667 165.896 0.33667H153.266C152.959 0.33667 152.806 0.421789 152.806 0.592027C152.806 0.69417 153.096 1.01762 153.675 1.56239C154.289 2.10715 154.596 2.58382 154.596 2.99239C154.596 3.09453 154.579 3.17965 154.545 3.24775L148.818 24.6978C148.818 24.7318 148.818 24.7829 148.818 24.851C148.818 25.1574 149.039 25.3106 149.482 25.3106H170.651Z" fill="#85F0FF"/>
<path d="M184.393 20.7653H193.443C193.955 20.7653 194.262 20.9696 194.364 21.3781L195.233 24.7489C195.335 25.1234 195.642 25.3106 196.153 25.3106H208.783C209.226 25.3106 209.448 25.1574 209.448 24.851V24.7489L204.13 0.949528C204.028 0.540956 203.704 0.33667 203.159 0.33667L190.375 0.438812C189.932 0.438812 189.711 0.60905 189.711 0.949528C189.711 1.18786 189.779 1.56239 189.915 2.0731C190.086 2.58382 190.171 2.95834 190.171 3.19667C190.171 3.53715 190.069 3.8606 189.864 4.16703C179.91 17.9904 174.933 24.9361 174.933 25.0042C174.933 25.2085 175.104 25.3106 175.445 25.3106H179.484C180.03 25.3106 180.439 25.1064 180.711 24.6978L183.115 21.3781C183.421 20.9696 183.848 20.7653 184.393 20.7653ZM193.597 18.0074C193.597 18.3479 193.392 18.5181 192.983 18.5181H185.978C185.671 18.5181 185.518 18.416 185.518 18.2117C185.518 18.1436 185.552 18.0415 185.62 17.9053L191.245 9.73383C191.347 9.56359 191.466 9.47847 191.603 9.47847C191.705 9.47847 191.773 9.56359 191.807 9.73383L193.597 18.0074Z" fill="#85F0FF"/>
<path d="M217.612 2.99239C217.612 3.09453 217.612 3.17965 217.612 3.24775L211.885 24.6978C211.885 24.7318 211.885 24.7829 211.885 24.851C211.885 25.1574 212.106 25.3106 212.55 25.3106H216.64C217.151 25.3106 217.475 25.1064 217.612 24.6978L221.651 8.91668C221.719 8.7124 221.788 8.61026 221.856 8.61026C221.958 8.6443 222.026 8.7124 222.06 8.81454L228.554 24.7489C228.69 25.1234 229.031 25.3106 229.577 25.3106H239.343C239.889 25.3106 240.212 25.1064 240.315 24.6978L246.604 1.0006C246.638 0.932503 246.655 0.881432 246.655 0.847385C246.655 0.506908 246.434 0.33667 245.99 0.33667H241.9C241.354 0.33667 241.031 0.55798 240.928 1.0006L236.838 16.7817C236.804 16.986 236.735 17.0881 236.633 17.0881C236.531 17.02 236.463 16.9349 236.429 16.8328L229.986 0.898456C229.815 0.523932 229.457 0.33667 228.912 0.33667H216.333C216.027 0.33667 215.873 0.421789 215.873 0.592027C215.873 0.69417 216.163 1.01762 216.742 1.56239C217.322 2.10715 217.612 2.58382 217.612 2.99239Z" fill="#85F0FF"/>
<path d="M275.859 11.7256C276.37 11.7256 276.694 11.5043 276.83 11.0617L278.467 4.88203C278.535 4.57561 278.569 4.26918 278.569 3.96275C278.569 2.90727 278.126 2.03905 277.239 1.3581C276.387 0.677146 275.296 0.33667 273.967 0.33667H256.94C255.337 0.33667 253.872 0.796313 252.542 1.7156C251.213 2.60084 250.378 3.65632 250.037 4.88203L245.844 20.7653C245.742 21.1058 245.69 21.4292 245.69 21.7356C245.69 22.7911 246.116 23.6593 246.969 24.3403C247.855 24.9872 248.963 25.3106 250.292 25.3106H267.32C268.922 25.3106 270.388 24.868 271.717 23.9828C273.046 23.0975 273.882 22.025 274.223 20.7653C275.347 16.6455 275.91 14.5516 275.91 14.4835C275.91 14.143 275.688 13.9728 275.245 13.9728H265.479C264.933 13.9728 264.61 14.1941 264.507 14.6367L262.411 22.3996C262.309 22.8422 261.985 23.0635 261.439 23.0635H257.4C256.957 23.0635 256.735 22.8933 256.735 22.5528C256.735 22.5187 256.735 22.4677 256.735 22.3996L261.848 3.24775C261.951 2.83917 262.274 2.63489 262.82 2.63489H266.91C267.32 2.63489 267.524 2.7881 267.524 3.09453C267.524 3.67334 267.166 5.0012 266.45 7.07811C265.769 9.15502 265.428 10.5339 265.428 11.2149C265.428 11.5554 265.649 11.7256 266.092 11.7256H275.859Z" fill="#85F0FF"/>
<path d="M282.496 0.33667C282.19 0.33667 282.036 0.421789 282.036 0.592027C282.036 0.69417 282.326 1.01762 282.905 1.56239C283.485 2.10715 283.775 2.58382 283.775 2.99239C283.775 3.09453 283.775 3.17965 283.775 3.24775L278.048 24.6978C278.048 24.7318 278.048 24.7829 278.048 24.851C278.048 25.1574 278.269 25.3106 278.713 25.3106H299.882C300.393 25.3106 300.87 25.1574 301.313 24.851L303.359 23.5231C303.563 23.3869 303.665 23.2848 303.665 23.2167C303.665 23.1146 303.529 23.0635 303.256 23.0635H290.678C290.234 23.0635 290.013 22.8933 290.013 22.5528C290.013 22.5187 290.712 19.88 292.109 14.6367C292.212 14.1941 292.535 13.9728 293.081 13.9728H302.847C303.393 13.9728 303.887 13.8196 304.33 13.5131L306.375 12.1342C306.58 12.032 306.682 11.9469 306.682 11.8788C306.682 11.7767 306.546 11.7256 306.273 11.7256H293.694C293.251 11.7256 293.03 11.5554 293.03 11.2149C293.03 11.1468 293.729 8.49109 295.126 3.24775C295.229 2.83917 295.552 2.63489 296.098 2.63489H308.676C309.529 2.63489 309.955 2.03905 309.955 0.847385C309.955 0.506908 309.733 0.33667 309.29 0.33667H282.496Z" fill="#85F0FF"/>
<path d="M341.608 3.96275C341.608 2.90727 341.164 2.03905 340.278 1.3581C339.426 0.677146 338.335 0.33667 337.006 0.33667H312.257C311.951 0.33667 311.797 0.421789 311.797 0.592027C311.797 0.69417 312.087 1.01762 312.666 1.56239C313.246 2.10715 313.536 2.58382 313.536 2.99239C313.536 3.09453 313.536 3.17965 313.536 3.24775L307.809 24.6978C307.809 24.7318 307.809 24.7829 307.809 24.851C307.809 25.1574 308.03 25.3106 308.473 25.3106H318.24C318.751 25.3106 319.075 25.1064 319.211 24.6978L320.643 19.131C320.779 18.7224 321.086 18.5181 321.563 18.5181C322.007 18.5181 322.313 18.7054 322.484 19.0799L324.478 24.7489C324.614 25.1234 324.955 25.3106 325.501 25.3106H335.267C335.676 25.3106 335.881 25.1745 335.881 24.9021C335.881 24.834 335.42 23.7785 334.5 21.7356C333.58 19.6587 333.102 18.5352 333.068 18.3649C334.432 18.1266 335.71 17.5988 336.903 16.7817C338.096 15.9305 338.829 14.9942 339.102 13.9728L341.505 4.88203C341.573 4.57561 341.608 4.26918 341.608 3.96275ZM322.228 16.2199C321.785 16.2199 321.563 16.0667 321.563 15.7603C321.598 15.6922 321.615 15.6411 321.615 15.6071L324.887 3.24775C324.989 2.83917 325.313 2.63489 325.859 2.63489H329.949C330.392 2.63489 330.614 2.7881 330.614 3.09453C330.614 3.16263 330.597 3.2137 330.563 3.24775L327.29 15.6071C327.188 16.0156 326.864 16.2199 326.319 16.2199H322.228Z" fill="#85F0FF"/>
</svg>
