<svg width="31" height="22" viewBox="0 0 31 22" fill="none" xmlns="http://www.w3.org/2000/svg">
<path d="M13.1457 5.88088H11.7887V16.5218H13.1457V13.8616V12.5314V5.88088Z" fill="#DC0150"/>
<path d="M11.7887 7.21099H10.4317V15.1917H11.7887V7.21099Z" fill="#DC0150"/>
<path d="M10.4317 9.87121H9.07476V12.5314H10.4317V9.87121Z" fill="#DC0150"/>
<path fill-rule="evenodd" clip-rule="evenodd" d="M17.2166 0.560425H21.2578V1.89054H19.9157V3.22065H18.5736V4.55076H17.2166V0.560425ZM21.2578 20.5121V21.8422H17.2166V17.8519H18.5736V19.182H19.9157V20.5121H21.2578Z" fill="#DC0150"/>
<path fill-rule="evenodd" clip-rule="evenodd" d="M15.8596 1.89054H17.2166V4.55076V5.88088H15.8596V1.89054ZM17.2166 16.5218V17.8519V20.5121H15.8596V16.5218H17.2166Z" fill="#DC0150"/>
<path fill-rule="evenodd" clip-rule="evenodd" d="M14.5027 3.22065H15.8596V5.88088V7.21099H14.5027V3.22065ZM15.8596 15.1917V16.5218V19.182H14.5027V15.1917H15.8596Z" fill="#DC0150"/>
<path fill-rule="evenodd" clip-rule="evenodd" d="M13.1457 4.55076H14.5027V7.21099V8.5411H13.1457V4.55076ZM14.5027 13.8616V15.1917V17.8519H13.1457V13.8616H14.5027Z" fill="#DC0150"/>
<path d="M21.9699 5.88088H20.6129V16.5218H21.9699V13.8616V12.5314V5.88088Z" fill="#DC0150"/>
<path d="M20.6129 7.21099H19.256V15.1917H20.6129V7.21099Z" fill="#DC0150"/>
<path d="M19.256 9.87121H17.899V12.5314H19.256V9.87121Z" fill="#DC0150"/>
<path fill-rule="evenodd" clip-rule="evenodd" d="M26.0408 0.560425H30.082V1.89054H28.7399V3.22065H27.3978V4.55076H26.0408V0.560425ZM30.082 20.5121V21.8422H26.0408V17.8519H27.3978V19.182H28.7399V20.5121H30.082Z" fill="#DC0150"/>
<path fill-rule="evenodd" clip-rule="evenodd" d="M24.6838 1.89054H26.0408V4.55076V5.88088H24.6838V1.89054ZM26.0408 16.5218V17.8519V20.5121H24.6838V16.5218H26.0408Z" fill="#DC0150"/>
<path fill-rule="evenodd" clip-rule="evenodd" d="M23.3269 3.22065H24.6838V5.88088V7.21099H23.3269V3.22065ZM24.6838 15.1917V16.5218V19.182H23.3269V15.1917H24.6838Z" fill="#DC0150"/>
<path fill-rule="evenodd" clip-rule="evenodd" d="M21.9699 4.55076H23.3269V7.21099V8.5411H21.9699V4.55076ZM23.3269 13.8616V15.1917V17.8519H21.9699V13.8616H23.3269Z" fill="#DC0150"/>
<path d="M4.32537 5.88088H2.96839V16.5218H4.32537V13.8616V12.5314V5.88088Z" fill="#DC0150"/>
<path d="M2.96839 7.21099H1.61142V15.1917H2.96839V7.21099Z" fill="#DC0150"/>
<path d="M1.61142 9.87121H0.254447V12.5314H1.61142V9.87121Z" fill="#DC0150"/>
<path fill-rule="evenodd" clip-rule="evenodd" d="M8.39628 0.560425H12.4375V1.89054H11.0954V3.22065H9.75326V4.55076H8.39628V0.560425ZM12.4375 20.5121V21.8422H8.39628V17.8519H9.75326V19.182H11.0954V20.5121H12.4375Z" fill="#DC0150"/>
<path fill-rule="evenodd" clip-rule="evenodd" d="M7.03931 1.89054H8.39628V4.55076V5.88088H7.03931V1.89054ZM8.39628 16.5218V17.8519V20.5121H7.03931V16.5218H8.39628Z" fill="#DC0150"/>
<path fill-rule="evenodd" clip-rule="evenodd" d="M5.68234 3.22065H7.03931V5.88088V7.21099H5.68234V3.22065ZM7.03931 15.1917V16.5218V19.182H5.68234V15.1917H7.03931Z" fill="#DC0150"/>
<path fill-rule="evenodd" clip-rule="evenodd" d="M4.32537 4.55076H5.68234V7.21099V8.5411H4.32537V4.55076ZM5.68234 13.8616V15.1917V17.8519H4.32537V13.8616H5.68234Z" fill="#DC0150"/>
</svg>
