<svg width="29" height="20" viewBox="0 0 29 20" fill="none" xmlns="http://www.w3.org/2000/svg">
<path d="M12.2371 4.99593H10.9672V14.9643H12.2371V12.4722V11.2262V4.99593Z" fill="#FFC226"/>
<path d="M10.9672 6.24198H9.69743V13.7183H10.9672V6.24198Z" fill="#FFC226"/>
<path d="M9.69743 8.73409H8.42762V11.2262H9.69743V8.73409Z" fill="#FFC226"/>
<path fill-rule="evenodd" clip-rule="evenodd" d="M16.0465 0.0117188H19.8281V1.25777H18.5722V2.50382H17.3163V3.74988H16.0465V0.0117188ZM19.8281 18.7025V19.9486H16.0465V16.2104H17.3163V17.4565H18.5722V18.7025H19.8281Z" fill="#FFC226"/>
<path fill-rule="evenodd" clip-rule="evenodd" d="M14.7767 1.25777H16.0465V3.74988V4.99593H14.7767V1.25777ZM16.0465 14.9643V16.2104V18.7025H14.7767V14.9643H16.0465Z" fill="#FFC226"/>
<path fill-rule="evenodd" clip-rule="evenodd" d="M13.5069 2.50382H14.7767V4.99593V6.24198H13.5069V2.50382ZM14.7767 13.7183V14.9643V17.4565H13.5069V13.7183H14.7767Z" fill="#FFC226"/>
<path fill-rule="evenodd" clip-rule="evenodd" d="M12.2371 3.74988H13.5069V6.24198V7.48803H12.2371V3.74988ZM13.5069 12.4722V13.7183V16.2104H12.2371V12.4722H13.5069Z" fill="#FFC226"/>
<path d="M20.491 4.99593H19.2211V14.9643H20.491V12.4722V11.2262V4.99593Z" fill="#FFC226"/>
<path d="M19.2211 6.24198H17.9513V13.7183H19.2211V6.24198Z" fill="#FFC226"/>
<path d="M17.9513 8.73409H16.6815V11.2262H17.9513V8.73409Z" fill="#FFC226"/>
<path fill-rule="evenodd" clip-rule="evenodd" d="M24.3004 0.0117188H28.082V1.25777H26.8261V2.50382H25.5702V3.74988H24.3004V0.0117188ZM28.082 18.7025V19.9486H24.3004V16.2104H25.5702V17.4565H26.8261V18.7025H28.082Z" fill="#FFC226"/>
<path fill-rule="evenodd" clip-rule="evenodd" d="M23.0306 1.25777H24.3004V3.74988V4.99593H23.0306V1.25777ZM24.3004 14.9643V16.2104V18.7025H23.0306V14.9643H24.3004Z" fill="#FFC226"/>
<path fill-rule="evenodd" clip-rule="evenodd" d="M21.7608 2.50382H23.0306V4.99593V6.24198H21.7608V2.50382ZM23.0306 13.7183V14.9643V17.4565H21.7608V13.7183H23.0306Z" fill="#FFC226"/>
<path fill-rule="evenodd" clip-rule="evenodd" d="M20.491 3.74988H21.7608V6.24198V7.48803H20.491V3.74988ZM21.7608 12.4722V13.7183V16.2104H20.491V12.4722H21.7608Z" fill="#FFC226"/>
<path d="M3.97534 4.99593H2.70552V14.9643H3.97534V12.4722V11.2262V4.99593Z" fill="#FFC226"/>
<path d="M2.70552 6.24198H1.43571V13.7183H2.70552V6.24198Z" fill="#FFC226"/>
<path d="M1.43571 8.73409H0.165902V11.2262H1.43571V8.73409Z" fill="#FFC226"/>
<path fill-rule="evenodd" clip-rule="evenodd" d="M7.78477 0.0117188H11.5664V1.25777H10.3105V2.50382H9.05458V3.74988H7.78477V0.0117188ZM11.5664 18.7025V19.9486H7.78477V16.2104H9.05458V17.4565H10.3105V18.7025H11.5664Z" fill="#FFC226"/>
<path fill-rule="evenodd" clip-rule="evenodd" d="M6.51496 1.25777H7.78477V3.74988V4.99593H6.51496V1.25777ZM7.78477 14.9643V16.2104V18.7025H6.51496V14.9643H7.78477Z" fill="#FFC226"/>
<path fill-rule="evenodd" clip-rule="evenodd" d="M5.24515 2.50382H6.51496V4.99593V6.24198H5.24515V2.50382ZM6.51496 13.7183V14.9643V17.4565H5.24515V13.7183H6.51496Z" fill="#FFC226"/>
<path fill-rule="evenodd" clip-rule="evenodd" d="M3.97534 3.74988H5.24515V6.24198V7.48803H3.97534V3.74988ZM5.24515 12.4722V13.7183V16.2104H3.97534V12.4722H5.24515Z" fill="#FFC226"/>
</svg>
