<svg width="29" height="30" viewBox="0 0 29 30" fill="none" xmlns="http://www.w3.org/2000/svg">
<rect x="16.3809" y="20.2212" width="3.08087" height="3.08087" transform="rotate(90 16.3809 20.2212)" fill="white"/>
<rect x="19.4609" y="17.1402" width="3.08088" height="3.08087" transform="rotate(90 19.4609 17.1402)" fill="white"/>
<rect x="19.4609" y="7.89749" width="9.24262" height="9.24262" transform="rotate(90 19.4609 7.89749)" fill="white"/>
<rect x="19.459" y="3.2764" width="3.08087" height="9.24262" transform="rotate(90 19.459 3.2764)" fill="white"/>
<rect x="19.4609" y="0.195343" width="1.54044" height="9.24262" transform="rotate(90 19.4609 0.195343)" fill="white"/>
<rect x="25.623" y="26.3828" width="3.08087" height="21.5661" transform="rotate(90 25.623 26.3828)" fill="white"/>
<rect width="3.08088" height="3.08087" transform="matrix(-4.37114e-08 1 1 4.37114e-08 10.2168 17.1402)" fill="white"/>
<rect x="22.541" y="14.0591" width="3.08087" height="3.08087" transform="rotate(90 22.541 14.0591)" fill="white"/>
<rect width="3.08087" height="3.08087" transform="matrix(-4.37114e-08 1 1 4.37114e-08 7.13672 14.0591)" fill="white"/>
<rect x="25.623" y="10.9785" width="3.08087" height="3.08087" transform="rotate(90 25.623 10.9785)" fill="white"/>
<rect x="28.7031" y="23.3018" width="3.08087" height="3.08087" transform="rotate(90 28.7031 23.3018)" fill="white"/>
<rect x="4.05664" y="23.3018" width="3.08087" height="3.08087" transform="rotate(90 4.05664 23.3018)" fill="white"/>
<rect width="3.08087" height="3.08087" transform="matrix(-4.37114e-08 1 1 4.37114e-08 4.05469 10.9785)" fill="white"/>
</svg>
