<svg width="70" height="10" viewBox="0 0 70 10" fill="none" xmlns="http://www.w3.org/2000/svg">
<path d="M3.33333 0H6.66667V3.33333H3.33333V0Z" fill="#85F0FF"/>
<path d="M6.66667 3.33333H10V6.66667H6.66667V3.33333Z" fill="#85F0FF"/>
<path d="M0 3.33333H3.33333V6.66667H0V3.33333Z" fill="#85F0FF"/>
<path d="M3.33333 6.66667H6.66667V10H3.33333V6.66667Z" fill="#85F0FF"/>
<path d="M33.3333 0H36.6667V3.33333H33.3333V0Z" fill="#85F0FF"/>
<path d="M36.6667 3.33333H40V6.66667H36.6667V3.33333Z" fill="#85F0FF"/>
<path d="M30 3.33333H33.3333V6.66667H30V3.33333Z" fill="#85F0FF"/>
<path d="M33.3333 6.66667H36.6667V10H33.3333V6.66667Z" fill="#85F0FF"/>
<path d="M63.3333 0H66.6667V3.33333H63.3333V0Z" fill="#85F0FF"/>
<path d="M66.6667 3.33333H70V6.66667H66.6667V3.33333Z" fill="#85F0FF"/>
<path d="M60 3.33333H63.3333V6.66667H60V3.33333Z" fill="#85F0FF"/>
<path d="M63.3333 6.66667H66.6667V10H63.3333V6.66667Z" fill="#85F0FF"/>
</svg>
