<svg width="12" height="10" viewBox="0 0 12 10" fill="none" xmlns="http://www.w3.org/2000/svg">
<path d="M0 0H2V2H0V0Z" fill="white"/>
<path d="M0 10H2V8H0V10Z" fill="white"/>
<path d="M2 2H4V4H2V2Z" fill="white"/>
<path d="M2 8H4V6H2V8Z" fill="white"/>
<path d="M4 4H6V6H4V4Z" fill="white"/>
<path d="M6 0H8V2H6V0Z" fill="white"/>
<path d="M6 10H8V8H6V10Z" fill="white"/>
<path d="M8 2H10V4H8V2Z" fill="white"/>
<path d="M8 8H10V6H8V8Z" fill="white"/>
<path d="M10 4H12V6H10V4Z" fill="white"/>
</svg>
