<svg width="48" height="68" viewBox="0 0 48 68" fill="none" xmlns="http://www.w3.org/2000/svg">
<path d="M19.8428 63.9386C19.8428 64.5188 21.9315 66.2594 22.5117 66.7236L26.5731 65.7952L29.2421 60.6894L36.3206 53.727L43.167 39.9181L45.7199 27.0376H46.7643L45.7199 20.3072L44.0953 13.9249L36.3206 5.10582L31.4468 2.55292L29.2421 0.928345L17.0578 2.55292L11.4878 5.10582L4.4093 12.6485L2.78473 19.3789L1.16016 20.8874L2.08848 27.0376L3.48098 29.5905L4.4093 39.1058L6.73012 43.6314L8.81886 48.2731L11.4878 53.727L16.2455 58.4847L18.4503 60.6894C18.9144 61.5791 19.8428 63.4744 19.8428 63.9386Z" fill="#FFC226"/>
<rect x="16.709" width="14.6212" height="2.5529" fill="white"/>
<rect x="21.3516" y="65.4471" width="4.87372" height="2.5529" fill="white"/>
<rect x="2.32031" y="27.1536" width="2.32082" height="12.0683" fill="white"/>
<rect y="19.959" width="2.32082" height="7.19454" fill="white"/>
<rect x="2.32031" y="12.7645" width="2.32082" height="7.19454" fill="white"/>
<rect x="4.64258" y="10.2115" width="2.32082" height="2.5529" fill="white"/>
<rect x="6.96289" y="7.65869" width="2.32082" height="2.5529" fill="white"/>
<rect x="9.2832" y="5.10583" width="2.32082" height="2.5529" fill="white"/>
<rect x="11.6055" y="2.55286" width="4.87372" height="2.5529" fill="white"/>
<rect x="4.64258" y="39.2218" width="2.32082" height="4.64164" fill="white"/>
<rect x="6.96289" y="43.8635" width="2.32082" height="5.1058" fill="white"/>
<rect x="9.2832" y="48.9692" width="2.32082" height="5.1058" fill="white"/>
<rect x="11.6055" y="53.3789" width="2.32082" height="2.78498" fill="white"/>
<rect x="13.9258" y="56.1638" width="2.5529" height="2.5529" fill="white"/>
<rect x="16.4766" y="58.7168" width="2.5529" height="2.5529" fill="white"/>
<rect x="19.0312" y="60.8054" width="2.5529" height="4.64164" fill="white"/>
<rect width="2.32082" height="12.0683" transform="matrix(-1 0 0 1 45.4883 27.1536)" fill="white"/>
<rect width="2.32082" height="7.19454" transform="matrix(-1 0 0 1 47.8086 19.959)" fill="white"/>
<rect width="2.32082" height="7.19454" transform="matrix(-1 0 0 1 45.4883 12.7645)" fill="white"/>
<rect width="2.32082" height="2.5529" transform="matrix(-1 0 0 1 43.166 10.2115)" fill="white"/>
<rect width="2.32082" height="2.5529" transform="matrix(-1 0 0 1 40.8457 7.65869)" fill="white"/>
<rect width="2.32082" height="2.5529" transform="matrix(-1 0 0 1 38.5254 5.10583)" fill="white"/>
<rect width="4.87372" height="2.5529" transform="matrix(-1 0 0 1 36.2031 2.55286)" fill="white"/>
<rect width="2.32082" height="4.64164" transform="matrix(-1 0 0 1 43.166 39.2218)" fill="white"/>
<rect width="2.32082" height="5.1058" transform="matrix(-1 0 0 1 40.8457 43.8635)" fill="white"/>
<rect width="2.32082" height="5.1058" transform="matrix(-1 0 0 1 38.5254 48.9692)" fill="white"/>
<rect width="2.32082" height="2.78498" transform="matrix(-1 0 0 1 36.2031 53.3789)" fill="white"/>
<rect width="2.5529" height="2.5529" transform="matrix(-1 0 0 1 33.8828 56.1638)" fill="white"/>
<rect width="2.5529" height="2.5529" transform="matrix(-1 0 0 1 31.332 58.7168)" fill="white"/>
<rect width="2.5529" height="4.64164" transform="matrix(-1 0 0 1 28.7773 60.8054)" fill="white"/>
<path d="M36.2057 29.4743V17.5221L31.332 12.6484L27.8508 9.63135H19.4958L16.5948 12.6484L14.274 15.0853L11.605 17.5221L9.98047 18.4505L10.9088 29.0102L16.5948 34.5802L19.1477 36.901L21.4685 38.2935L28.7791 36.901L31.332 34.116L33.6528 31.9112L36.2057 29.4743Z" fill="white"/>
<rect x="9.2832" y="17.6382" width="2.32082" height="12.0683" fill="white"/>
<rect x="36.2051" y="17.4061" width="2.32082" height="12.0683" fill="white"/>
<rect x="11.8359" y="15.0853" width="2.32082" height="2.5529" fill="white"/>
<rect x="11.6055" y="29.4744" width="2.5529" height="2.5529" fill="white"/>
<rect x="14.1562" y="32.0273" width="2.5529" height="2.5529" fill="white"/>
<rect x="16.709" y="34.3481" width="2.5529" height="2.5529" fill="white"/>
<rect x="28.7773" y="34.3481" width="2.5529" height="2.5529" fill="white"/>
<rect x="31.0977" y="31.7952" width="2.5529" height="2.5529" fill="white"/>
<rect x="33.6523" y="29.4744" width="2.5529" height="2.5529" fill="white"/>
<rect x="33.6523" y="14.8533" width="2.5529" height="2.5529" fill="white"/>
<rect x="31.0977" y="12.7645" width="2.5529" height="2.5529" fill="white"/>
<rect x="28.5469" y="9.97949" width="2.5529" height="2.5529" fill="white"/>
<rect x="19.0312" y="36.901" width="9.74744" height="2.5529" fill="white"/>
<rect x="19.0312" y="7.65869" width="9.74744" height="2.5529" fill="white"/>
<rect x="14.3887" y="12.5325" width="2.32082" height="2.5529" fill="white"/>
<rect x="16.709" y="10.2115" width="2.32082" height="2.5529" fill="white"/>
</svg>
