<svg width="12" height="12" viewBox="0 0 12 12" fill="none" xmlns="http://www.w3.org/2000/svg">
<path fill-rule="evenodd" clip-rule="evenodd" d="M5.47098 3.7031C4.91609 3.7031 4.46343 4.15517 4.46343 4.69474C4.46343 4.14059 4.91609 3.7031 5.47098 3.7031ZM4.46343 4.69474C4.46343 5.24889 4.91609 5.68638 5.45637 5.70097C4.90149 5.70097 4.46343 5.24889 4.46343 4.69474ZM6.46393 4.69474C6.46393 4.97321 6.34962 5.22221 6.16548 5.4029C6.3446 5.22084 6.45666 4.97042 6.46393 4.69474Z" fill="#FFFADE"/>
<path fill-rule="evenodd" clip-rule="evenodd" d="M7.12103 11.0383C6.9458 11.1258 6.75597 11.1258 6.58074 11.1404C6.2741 11.1842 5.95285 11.1696 5.6462 11.1404C5.25194 11.0967 4.85768 10.9946 4.47803 10.8633C4.01076 10.7029 3.58729 10.455 3.17843 10.1925C3.03241 10.0904 2.90099 9.97378 2.76957 9.85711C2.47753 9.6092 2.22929 9.31754 2.01026 9.0113C1.98105 8.96755 1.95185 8.9238 1.95185 8.88005C2.3023 8.09257 2.43372 7.26134 2.50673 6.41553C2.53593 6.02179 2.55054 5.62805 2.62355 5.23431C2.69656 4.78224 2.87179 4.37392 3.19303 4.02392C3.48508 3.71768 3.85013 3.51352 4.24439 3.36769C4.56564 3.23644 4.90149 3.11978 5.26655 3.1052C5.6024 3.09061 5.92365 3.13436 6.24489 3.20728C6.72677 3.32394 7.20864 3.46977 7.66131 3.68852C8.02636 3.83435 8.40602 3.98018 8.78568 4.09684C9.17994 4.2135 9.57419 4.34475 9.91005 4.59266C10.3335 4.91349 10.4503 5.32181 10.2605 5.81763C10.1437 6.12387 9.92465 6.3572 9.70562 6.59053C9.31136 6.99885 8.88789 7.37801 8.50823 7.80091C8.07017 8.31132 7.67591 8.8363 7.39847 9.44879C7.16483 9.95919 7.03341 10.4842 7.12103 11.0383ZM9.89544 6.25512C9.91005 6.24054 9.92465 6.24054 9.93925 6.24054L9.89544 6.2697C9.89544 6.28429 9.88084 6.29887 9.86624 6.29887V6.28428C9.86624 6.2697 9.88084 6.25512 9.89544 6.25512ZM5.47098 3.7031C6.02586 3.7031 6.46393 4.14059 6.46393 4.69474C6.46393 4.97321 6.34962 5.22221 6.16548 5.4029C5.98455 5.58681 5.73521 5.70097 5.45637 5.70097C4.90149 5.70097 4.46343 5.24889 4.46343 4.69474C4.46343 4.14059 4.91609 3.7031 5.47098 3.7031ZM6.72677 7.07177C6.53694 7.01343 6.37631 6.89677 6.2887 6.76552C6.66836 6.99885 7.09182 7.02802 7.51529 6.99885C8.09937 6.96968 8.65426 6.82385 9.17994 6.60511C9.38437 6.51761 9.5888 6.43011 9.77863 6.31345C9.79323 6.29887 9.80783 6.28428 9.83703 6.29887C9.83589 6.30342 9.83448 6.30763 9.83284 6.31151C9.82088 6.33985 9.79656 6.35148 9.77337 6.36257C9.75903 6.36943 9.74511 6.37609 9.73482 6.38636C9.16533 6.76552 8.53744 6.99885 7.86574 7.1301C7.48608 7.20301 7.10642 7.20301 6.72677 7.07177ZM9.04937 5.90513L9.04852 5.90513C8.9171 5.90513 8.82948 5.81763 8.82948 5.68638C8.82948 5.56972 8.9171 5.46764 9.03391 5.46764C9.16533 5.45306 9.26755 5.55514 9.26755 5.6718C9.26755 5.80273 9.16583 5.90463 9.04937 5.90513Z" fill="#FFFADE"/>
<path fill-rule="evenodd" clip-rule="evenodd" d="M6.20109 0.392763C9.29675 0.392763 11.7937 2.88645 11.7937 5.99263C11.7937 9.05505 9.26755 11.5779 6.15728 11.5633C3.14923 11.5342 0.623047 9.05505 0.623047 5.97804C0.623047 2.88645 3.10542 0.37818 6.20109 0.392763ZM2.01026 9.02588C1.98105 8.98213 1.95185 8.95297 1.95185 8.89464C1.86423 8.79255 1.80582 8.67589 1.71821 8.5884C1.38236 8.01966 1.16333 7.39259 1.07572 6.73636C1.03191 6.4447 1.0027 6.16762 1.01731 5.87596C1.06111 4.70932 1.42617 3.65935 2.17088 2.74062C2.82798 1.93856 3.6311 1.38441 4.60945 1.06358C5.20814 0.859418 5.83603 0.771921 6.46393 0.81567C7.88034 0.903168 9.07772 1.45732 10.0123 2.52188C10.7132 3.28019 11.1512 4.18434 11.2973 5.21973C11.4579 6.29887 11.2973 7.33426 10.8008 8.31132C10.2459 9.41962 9.38437 10.2217 8.2454 10.7175C7.89494 10.8633 7.54449 10.98 7.17943 11.0383C7.16483 11.0383 7.15023 11.0675 7.12103 11.0529C6.9458 11.1258 6.75597 11.1258 6.58074 11.155C6.2741 11.1987 5.95285 11.1842 5.6462 11.155C5.25194 11.1112 4.85768 11.0092 4.47803 10.8779C4.01076 10.7175 3.58729 10.4696 3.17843 10.2071C3.03241 10.105 2.90099 9.98836 2.76957 9.8717C2.47753 9.62379 2.22929 9.33213 2.01026 9.02588Z" fill="#FFFADE"/>
<path fill-rule="evenodd" clip-rule="evenodd" d="M5.47098 3.7031C4.91609 3.7031 4.46343 4.14059 4.46343 4.69474C4.46343 5.24889 4.90149 5.70097 5.45637 5.70097C4.91609 5.68638 4.46343 5.24889 4.46343 4.69474C4.46343 4.15517 4.91609 3.7031 5.47098 3.7031ZM6.46393 4.69474C6.46393 4.97321 6.34962 5.22221 6.16548 5.4029C6.3446 5.22084 6.45666 4.97042 6.46393 4.69474Z" fill="#FFFADE"/>
<path fill-rule="evenodd" clip-rule="evenodd" d="M9.86624 6.29887C9.88084 6.29887 9.89544 6.28429 9.89544 6.2697C9.88084 6.25512 9.86624 6.2697 9.86624 6.29887ZM9.93925 6.24054L9.89544 6.2697L9.88084 6.25512C9.91005 6.24054 9.92465 6.24054 9.93925 6.24054Z" fill="#FFFADE"/>
<path fill-rule="evenodd" clip-rule="evenodd" d="M9.93925 6.24054C9.96845 6.24054 9.95385 6.24054 9.93925 6.24054V6.24054Z" fill="#FFFADE"/>
<path fill-rule="evenodd" clip-rule="evenodd" d="M6.17188 4.70932C6.17188 5.08848 5.86524 5.40931 5.48558 5.40931H5.47098C5.09132 5.40931 4.77007 5.10306 4.77007 4.70932V4.69474C4.77007 4.301 5.09132 3.99476 5.47098 3.99476C5.85064 3.99476 6.17188 4.31558 6.17188 4.70932Z" fill="#FFFADE"/>
<path fill-rule="evenodd" clip-rule="evenodd" d="M6.2887 6.76552C6.36171 6.89677 6.53694 7.01343 6.72677 7.08635C7.09182 7.2176 7.48608 7.2176 7.86574 7.14468C8.53744 7.01343 9.16533 6.78011 9.73482 6.40095C9.74531 6.39396 9.75581 6.38781 9.7659 6.38189C9.79794 6.36312 9.82593 6.34672 9.83703 6.31345C9.8356 6.31274 9.83421 6.31209 9.83284 6.31151C9.82088 6.33985 9.79656 6.35148 9.77337 6.36257C9.75903 6.36943 9.74511 6.37609 9.73482 6.38636C9.16533 6.76552 8.53744 6.99885 7.86574 7.1301C7.48608 7.20301 7.10642 7.20301 6.72677 7.07177C6.53694 7.01343 6.37631 6.89677 6.2887 6.76552ZM7.16483 3.20728C6.85819 3.09061 6.53694 3.11978 6.23029 3.20728C6.72677 3.32394 7.20864 3.46977 7.6467 3.7031C7.57369 3.45519 7.39847 3.29478 7.16483 3.20728Z" fill="#FFFADE"/>
</svg>
