<svg width="13" height="12" viewBox="0 0 13 12" fill="none" xmlns="http://www.w3.org/2000/svg">
<g clip-path="url(#clip0_1186_228)">
<path d="M6.42128 0.279175C3.33538 0.279175 0.835938 2.73672 0.835938 5.7677C0.835938 8.19314 2.43614 10.2499 4.65491 10.9751C4.93418 11.0268 5.03658 10.8569 5.03658 10.7112C5.03658 10.5809 5.03192 10.2355 5.0296 9.77798C3.47594 10.1089 3.14827 9.04165 3.14827 9.04165C2.89414 8.40817 2.5269 8.23875 2.5269 8.23875C2.02096 7.89851 2.566 7.90549 2.566 7.90549C3.12686 7.94366 3.42148 8.47101 3.42148 8.47101C3.91951 9.31021 4.72892 9.06771 5.04822 8.92761C5.09848 8.57248 5.24231 8.33091 5.40195 8.1936C4.16154 8.0563 2.85783 7.58434 2.85783 5.48145C2.85783 4.88243 3.07426 4.39278 3.43266 4.00879C3.36982 3.87008 3.18132 3.31202 3.48153 2.55613C3.48153 2.55613 3.9493 2.40905 5.0175 3.11886C5.46432 2.99691 5.93908 2.9364 6.41383 2.93361C6.88859 2.9364 7.36334 2.99691 7.81017 3.11886C8.87138 2.40905 9.33915 2.55613 9.33915 2.55613C9.63937 3.31202 9.45086 3.87008 9.39501 4.00879C9.75107 4.39278 9.9675 4.88243 9.9675 5.48145C9.9675 7.58992 8.66193 8.05397 7.41919 8.18895C7.61468 8.35372 7.7962 8.69023 7.7962 9.20455C7.7962 9.93902 7.78922 10.5292 7.78922 10.7075C7.78922 10.8513 7.88696 11.023 8.17321 10.9681C10.4078 10.2476 12.0066 8.18941 12.0066 5.7677C12.0066 2.73672 9.50578 0.279175 6.42128 0.279175Z" fill="#FFFADE"/>
</g>
<defs>
<clipPath id="clip0_1186_228">
<rect width="11.1707" height="11.1707" fill="white" transform="translate(0.837891 0.0463867)"/>
</clipPath>
</defs>
</svg>
