<svg width="29" height="24" viewBox="0 0 29 24" fill="none" xmlns="http://www.w3.org/2000/svg">
<g clip-path="url(#clip0_698_29273)">
<path d="M1.12109 20.4795C1.12109 14.9764 1.12109 9.47595 1.12109 3.97283C1.12639 3.94371 1.13433 3.91459 1.13962 3.88548C1.17668 3.68695 1.2005 3.48313 1.25874 3.29255C1.59226 2.21786 2.62724 1.40788 3.89515 1.41053C11.0632 1.41847 18.2313 1.41582 25.3994 1.41318C25.6721 1.41318 25.9394 1.437 26.2015 1.51376C27.3979 1.86317 28.1682 2.90609 28.1682 4.17929C28.1682 9.54212 28.1682 14.905 28.1682 20.2678C28.1682 20.3922 28.1629 20.5192 28.1496 20.641C27.9961 21.9989 26.8473 23.0339 25.4841 23.0339C18.2631 23.0365 11.0394 23.0365 3.81839 23.0339C2.56636 23.0339 1.48109 22.1657 1.20315 20.9428C1.16345 20.7945 1.14756 20.6357 1.12109 20.4795ZM5.18954 8.22392C5.18954 12.2765 5.18954 16.3052 5.18954 20.334C11.5 20.334 17.7999 20.334 24.1077 20.334C24.1077 16.2999 24.1077 12.2712 24.1077 8.22392C24.06 8.25568 24.0256 8.2795 23.9912 8.30333C20.9074 10.4871 17.8237 12.6735 14.7426 14.8626C14.6711 14.9129 14.6261 14.9182 14.552 14.8652C11.4709 12.6735 8.38447 10.4871 5.29807 8.29803C5.2663 8.27421 5.23454 8.25303 5.18954 8.22392ZM5.18954 4.12371C5.18424 4.13165 5.1816 4.13959 5.1763 4.14753C5.20277 4.16871 5.22924 4.19253 5.25836 4.21371C8.3633 6.41601 11.4682 8.61832 14.5705 10.8206C14.6261 10.8603 14.6605 10.863 14.7188 10.8233C15.6002 10.1933 16.4869 9.56859 17.371 8.94125C19.5892 7.36893 21.8048 5.79397 24.023 4.22165C24.0547 4.19782 24.0838 4.16871 24.1394 4.12371C17.7999 4.12371 11.4947 4.12371 5.18954 4.12371Z" fill="#FFFADE"/>
<path d="M3.8941 1.88653C4.19831 1.88687 4.50252 1.88718 4.80673 1.88748L3.89537 0.934455L3.89209 1.88652L3.8941 1.88653Z" fill="#FFFADE"/>
<path d="M1.64305 3.76597C1.66438 3.63776 1.68088 3.53856 1.71317 3.4326C1.9847 2.55927 2.83327 1.88497 3.89209 1.88652L3.89537 0.934455C2.4196 0.931483 1.19927 1.87636 0.803567 3.15141L0.802954 3.1534C0.750857 3.3239 0.718473 3.51837 0.693269 3.66971C0.685309 3.71751 0.678065 3.761 0.671143 3.79809L0.670739 3.80028C0.670263 3.8029 0.669342 3.8073 0.665633 3.82361L0.665129 3.82583C0.662101 3.83914 0.656763 3.86259 0.65221 3.88763L0.644531 3.92987V20.5196L0.651225 20.559C0.655943 20.5869 0.661081 20.6215 0.666874 20.6605C0.683817 20.7747 0.706358 20.9266 0.740352 21.0566C1.07043 22.4911 2.34561 23.5098 3.81769 23.5099L3.82097 22.5578C3.81993 22.5578 3.8189 22.5578 3.81786 22.5578C2.78883 22.5578 1.89567 21.8441 1.66682 20.8372L1.66481 20.8283L1.66245 20.8196C1.6418 20.7425 1.63183 20.6745 1.61836 20.5827C1.61227 20.5411 1.60545 20.4947 1.59661 20.4403V4.02327C1.5996 4.00994 1.60364 3.99143 1.60722 3.97186C1.62172 3.89416 1.63293 3.8268 1.64305 3.76597Z" fill="#FFFADE"/>
<path d="M27.676 20.5885C27.5489 21.7078 26.6015 22.5578 25.4834 22.5578C25.1802 22.5579 24.8769 22.558 24.5736 22.5581L25.4838 23.5099C27.0916 23.5098 28.4417 22.2905 28.6221 20.6944L28.6224 20.6924C28.6379 20.5497 28.6437 20.4049 28.6437 20.2677V4.17926C28.6437 2.70067 27.7397 1.46736 26.3347 1.05688C26.0143 0.96303 25.698 0.937102 25.3987 0.937102C18.2306 0.939749 11.063 0.942396 3.89537 0.934455L4.80673 1.88748C11.671 1.89425 18.5353 1.89171 25.3991 1.88918C25.645 1.88919 25.8634 1.91091 26.0671 1.97056L26.0675 1.97067C27.0552 2.25912 27.6916 3.11156 27.6916 4.17926V20.2677C27.6916 20.379 27.6869 20.488 27.676 20.5885Z" fill="#FFFADE"/>
<path d="M3.81769 23.5099H25.4838L24.5736 22.5581C17.6568 22.5605 10.7376 22.5604 3.82097 22.5578L3.81769 23.5099Z" fill="#FFFADE"/>
<path fill-rule="evenodd" clip-rule="evenodd" d="M5.44762 7.82421L4.71298 7.34885V20.81H22.9019L21.9914 19.8579H5.66505V9.14224L7.1177 10.1723C9.50535 11.8653 11.8919 13.5576 14.2754 15.253L14.2748 15.2526L14.5515 14.8652L14.2754 15.253C14.3494 15.3058 14.4833 15.3844 14.6638 15.3784C14.8356 15.3726 14.9595 15.2916 15.016 15.2519L15.0178 15.2506C15.5274 14.8885 16.0372 14.5265 16.547 14.1645L15.8819 13.4691C15.4696 13.7618 15.0573 14.0547 14.645 14.3476C12.3218 12.6952 9.99557 11.0458 7.669 9.39609C6.97188 8.90179 6.27474 8.40746 5.57763 7.91303C5.53398 7.88059 5.49227 7.8531 5.44762 7.82421ZM14.4675 14.4736C14.4648 14.4756 14.4657 14.4746 14.4701 14.4719L14.4675 14.4736ZM14.2748 15.2526L14.2754 15.253L14.5515 14.8652L14.2748 15.2526Z" fill="#FFFADE"/>
<path d="M23.7176 7.91333L23.7156 7.9148C21.1039 9.76429 18.4921 11.6157 15.8819 13.4691L16.547 14.1645C18.9074 12.4886 21.2692 10.8142 23.6311 9.14127V19.8579H21.9914L22.9019 20.81H24.5832V7.33439L23.8431 7.82779C23.792 7.86184 23.7548 7.8876 23.7203 7.91149L23.7176 7.91333Z" fill="#FFFADE"/>
<path d="M24.4384 4.49367L25.4835 3.64763H6.48992L7.40037 4.59971H22.6663C21.9198 5.12927 21.1735 5.65902 20.4273 6.18873L20.4209 6.19323L20.4156 6.19705L20.4138 6.19833C19.3077 6.98346 18.2016 7.76863 17.095 8.55299C16.8014 8.76135 16.507 8.96976 16.2123 9.17835L16.212 9.1786C15.6896 9.54835 15.1665 9.91867 14.6454 10.2903C12.7762 8.96342 10.906 7.63652 9.03553 6.30963L12.5077 9.94056C13.1033 10.3632 13.6988 10.7859 14.2942 11.2086C14.3461 11.2456 14.4638 11.3227 14.6293 11.3275C14.8001 11.3325 14.9251 11.2584 14.9864 11.2165L14.9907 11.2136L14.995 11.2105C15.5818 10.7911 16.1703 10.3746 16.7597 9.95731L16.7606 9.95667C17.0555 9.74792 17.3507 9.539 17.646 9.32944C18.7545 8.54372 19.8623 7.75734 20.9699 6.97108L20.9717 6.96981L20.972 6.96959L20.9752 6.96735C22.0826 6.18126 23.1898 5.39528 24.2977 4.60998L24.3029 4.60628L24.3081 4.60244C24.3387 4.57942 24.3659 4.55568 24.3821 4.54151L24.3849 4.53913C24.4031 4.52325 24.4183 4.50999 24.4384 4.49367Z" fill="#FFFADE"/>
<path d="M4.97784 4.59866L4.98013 4.60032L4.98611 4.60456C7.49382 6.38326 10.0015 8.16192 12.5077 9.94056L9.03553 6.30963C8.23204 5.73965 7.42848 5.16968 6.62492 4.59971H7.40037L6.48992 3.64763H4.93424L4.79293 3.85961C4.7819 3.87615 4.7735 3.89075 4.7676 3.90157L4.5376 4.24657L4.8784 4.51922C4.88383 4.52356 4.88776 4.52685 4.8944 4.5324L4.91194 4.54701C4.92772 4.5601 4.95086 4.57903 4.97784 4.59866Z" fill="#FFFADE"/>
</g>
<defs>
<clipPath id="clip0_698_29273">
<rect width="28" height="22.5816" fill="white" transform="translate(0.644531 0.934082)"/>
</clipPath>
</defs>
</svg>
