<svg width="13" height="12" viewBox="0 0 13 12" fill="none" xmlns="http://www.w3.org/2000/svg">
<g clip-path="url(#clip0_1186_220)">
<path d="M10.8416 4.66226C10.4888 4.66226 10.1784 4.81074 9.94982 5.04207C9.10969 4.45188 7.9768 4.07208 6.72149 4.03159L7.37358 1.04994L9.44993 1.52284C9.44993 2.03855 9.86418 2.45978 10.3724 2.45978C10.8905 2.45978 11.3071 2.02738 11.3071 1.5112C11.3071 0.995021 10.8933 0.562622 10.3729 0.562622C10.0103 0.562622 9.69755 0.784639 9.54163 1.08811L7.24838 0.572396C7.13295 0.541212 7.01985 0.624992 6.98913 0.742284L6.27327 4.02926C5.02774 4.08185 3.90695 4.46119 3.06403 5.05184C2.83549 4.81074 2.51294 4.66226 2.16013 4.66226C0.851301 4.66226 0.422626 6.44445 1.62115 7.05372C1.57879 7.24223 1.55971 7.4433 1.55971 7.64391C1.55971 9.64579 3.78221 11.2679 6.51111 11.2679C9.25165 11.2679 11.4742 9.64579 11.4742 7.64391C11.4742 7.4433 11.4532 7.23292 11.4015 7.04395C12.5759 6.43235 12.1435 4.66319 10.8416 4.66226ZM3.52296 7.18032C3.52296 6.65483 3.9372 6.23174 4.45757 6.23174C4.96584 6.23174 5.38055 6.65204 5.38055 7.18032C5.38055 7.6965 4.9663 8.11726 4.45757 8.11726C3.93953 8.11959 3.52296 7.6965 3.52296 7.18032ZM8.56792 9.41353C7.71103 10.283 5.29304 10.283 4.43569 9.41353C4.34121 9.32975 4.34121 9.18174 4.43569 9.08632C4.51808 9.00254 4.66423 9.00254 4.74661 9.08632C5.40103 9.76727 7.57186 9.7789 8.25467 9.08632C8.33706 9.00254 8.4832 9.00254 8.56559 9.08632C8.66194 9.1822 8.66194 9.33021 8.56792 9.41353ZM8.54883 8.11912C8.04057 8.11912 7.62632 7.69883 7.62632 7.18311C7.62632 6.65763 8.04057 6.23454 8.54883 6.23454C9.06687 6.23454 9.48345 6.65483 9.48345 7.18311C9.48112 7.6965 9.06687 8.11912 8.54883 8.11912Z" fill="#FFFADE"/>
</g>
<defs>
<clipPath id="clip0_1186_220">
<rect width="11.1707" height="11.1707" fill="white" transform="translate(0.914062 0.329834)"/>
</clipPath>
</defs>
</svg>
