<svg width="0" height="0" class="hidden">
  <symbol fill="none" xmlns="http://www.w3.org/2000/svg" viewBox="0 0 12 12" id="coingecko">
    <path fill-rule="evenodd" clip-rule="evenodd" d="M5.47098 3.7031C4.91609 3.7031 4.46343 4.15517 4.46343 4.69474C4.46343 4.14059 4.91609 3.7031 5.47098 3.7031ZM4.46343 4.69474C4.46343 5.24889 4.91609 5.68638 5.45637 5.70097C4.90149 5.70097 4.46343 5.24889 4.46343 4.69474ZM6.46393 4.69474C6.46393 4.97321 6.34962 5.22221 6.16548 5.4029C6.3446 5.22084 6.45666 4.97042 6.46393 4.69474Z" fill="#FFFADE"></path>
    <path fill-rule="evenodd" clip-rule="evenodd" d="M7.12103 11.0383C6.9458 11.1258 6.75597 11.1258 6.58074 11.1404C6.2741 11.1842 5.95285 11.1696 5.6462 11.1404C5.25194 11.0967 4.85768 10.9946 4.47803 10.8633C4.01076 10.7029 3.58729 10.455 3.17843 10.1925C3.03241 10.0904 2.90099 9.97378 2.76957 9.85711C2.47753 9.6092 2.22929 9.31754 2.01026 9.0113C1.98105 8.96755 1.95185 8.9238 1.95185 8.88005C2.3023 8.09257 2.43372 7.26134 2.50673 6.41553C2.53593 6.02179 2.55054 5.62805 2.62355 5.23431C2.69656 4.78224 2.87179 4.37392 3.19303 4.02392C3.48508 3.71768 3.85013 3.51352 4.24439 3.36769C4.56564 3.23644 4.90149 3.11978 5.26655 3.1052C5.6024 3.09061 5.92365 3.13436 6.24489 3.20728C6.72677 3.32394 7.20864 3.46977 7.66131 3.68852C8.02636 3.83435 8.40602 3.98018 8.78568 4.09684C9.17994 4.2135 9.57419 4.34475 9.91005 4.59266C10.3335 4.91349 10.4503 5.32181 10.2605 5.81763C10.1437 6.12387 9.92465 6.3572 9.70562 6.59053C9.31136 6.99885 8.88789 7.37801 8.50823 7.80091C8.07017 8.31132 7.67591 8.8363 7.39847 9.44879C7.16483 9.95919 7.03341 10.4842 7.12103 11.0383ZM9.89544 6.25512C9.91005 6.24054 9.92465 6.24054 9.93925 6.24054L9.89544 6.2697C9.89544 6.28429 9.88084 6.29887 9.86624 6.29887V6.28428C9.86624 6.2697 9.88084 6.25512 9.89544 6.25512ZM5.47098 3.7031C6.02586 3.7031 6.46393 4.14059 6.46393 4.69474C6.46393 4.97321 6.34962 5.22221 6.16548 5.4029C5.98455 5.58681 5.73521 5.70097 5.45637 5.70097C4.90149 5.70097 4.46343 5.24889 4.46343 4.69474C4.46343 4.14059 4.91609 3.7031 5.47098 3.7031ZM6.72677 7.07177C6.53694 7.01343 6.37631 6.89677 6.2887 6.76552C6.66836 6.99885 7.09182 7.02802 7.51529 6.99885C8.09937 6.96968 8.65426 6.82385 9.17994 6.60511C9.38437 6.51761 9.5888 6.43011 9.77863 6.31345C9.79323 6.29887 9.80783 6.28428 9.83703 6.29887C9.83589 6.30342 9.83448 6.30763 9.83284 6.31151C9.82088 6.33985 9.79656 6.35148 9.77337 6.36257C9.75903 6.36943 9.74511 6.37609 9.73482 6.38636C9.16533 6.76552 8.53744 6.99885 7.86574 7.1301C7.48608 7.20301 7.10642 7.20301 6.72677 7.07177ZM9.04937 5.90513L9.04852 5.90513C8.9171 5.90513 8.82948 5.81763 8.82948 5.68638C8.82948 5.56972 8.9171 5.46764 9.03391 5.46764C9.16533 5.45306 9.26755 5.55514 9.26755 5.6718C9.26755 5.80273 9.16583 5.90463 9.04937 5.90513Z" fill="#FFFADE"></path>
    <path fill-rule="evenodd" clip-rule="evenodd" d="M6.20109 0.392763C9.29675 0.392763 11.7937 2.88645 11.7937 5.99263C11.7937 9.05505 9.26755 11.5779 6.15728 11.5633C3.14923 11.5342 0.623047 9.05505 0.623047 5.97804C0.623047 2.88645 3.10542 0.37818 6.20109 0.392763ZM2.01026 9.02588C1.98105 8.98213 1.95185 8.95297 1.95185 8.89464C1.86423 8.79255 1.80582 8.67589 1.71821 8.5884C1.38236 8.01966 1.16333 7.39259 1.07572 6.73636C1.03191 6.4447 1.0027 6.16762 1.01731 5.87596C1.06111 4.70932 1.42617 3.65935 2.17088 2.74062C2.82798 1.93856 3.6311 1.38441 4.60945 1.06358C5.20814 0.859418 5.83603 0.771921 6.46393 0.81567C7.88034 0.903168 9.07772 1.45732 10.0123 2.52188C10.7132 3.28019 11.1512 4.18434 11.2973 5.21973C11.4579 6.29887 11.2973 7.33426 10.8008 8.31132C10.2459 9.41962 9.38437 10.2217 8.2454 10.7175C7.89494 10.8633 7.54449 10.98 7.17943 11.0383C7.16483 11.0383 7.15023 11.0675 7.12103 11.0529C6.9458 11.1258 6.75597 11.1258 6.58074 11.155C6.2741 11.1987 5.95285 11.1842 5.6462 11.155C5.25194 11.1112 4.85768 11.0092 4.47803 10.8779C4.01076 10.7175 3.58729 10.4696 3.17843 10.2071C3.03241 10.105 2.90099 9.98836 2.76957 9.8717C2.47753 9.62379 2.22929 9.33213 2.01026 9.02588Z" fill="#FFFADE"></path>
    <path fill-rule="evenodd" clip-rule="evenodd" d="M5.47098 3.7031C4.91609 3.7031 4.46343 4.14059 4.46343 4.69474C4.46343 5.24889 4.90149 5.70097 5.45637 5.70097C4.91609 5.68638 4.46343 5.24889 4.46343 4.69474C4.46343 4.15517 4.91609 3.7031 5.47098 3.7031ZM6.46393 4.69474C6.46393 4.97321 6.34962 5.22221 6.16548 5.4029C6.3446 5.22084 6.45666 4.97042 6.46393 4.69474Z" fill="#FFFADE"></path>
    <path fill-rule="evenodd" clip-rule="evenodd" d="M9.86624 6.29887C9.88084 6.29887 9.89544 6.28429 9.89544 6.2697C9.88084 6.25512 9.86624 6.2697 9.86624 6.29887ZM9.93925 6.24054L9.89544 6.2697L9.88084 6.25512C9.91005 6.24054 9.92465 6.24054 9.93925 6.24054Z" fill="#FFFADE"></path>
    <path fill-rule="evenodd" clip-rule="evenodd" d="M9.93925 6.24054C9.96845 6.24054 9.95385 6.24054 9.93925 6.24054V6.24054Z" fill="#FFFADE"></path>
    <path fill-rule="evenodd" clip-rule="evenodd" d="M6.17188 4.70932C6.17188 5.08848 5.86524 5.40931 5.48558 5.40931H5.47098C5.09132 5.40931 4.77007 5.10306 4.77007 4.70932V4.69474C4.77007 4.301 5.09132 3.99476 5.47098 3.99476C5.85064 3.99476 6.17188 4.31558 6.17188 4.70932Z" fill="#FFFADE"></path>
    <path fill-rule="evenodd" clip-rule="evenodd" d="M6.2887 6.76552C6.36171 6.89677 6.53694 7.01343 6.72677 7.08635C7.09182 7.2176 7.48608 7.2176 7.86574 7.14468C8.53744 7.01343 9.16533 6.78011 9.73482 6.40095C9.74531 6.39396 9.75581 6.38781 9.7659 6.38189C9.79794 6.36312 9.82593 6.34672 9.83703 6.31345C9.8356 6.31274 9.83421 6.31209 9.83284 6.31151C9.82088 6.33985 9.79656 6.35148 9.77337 6.36257C9.75903 6.36943 9.74511 6.37609 9.73482 6.38636C9.16533 6.76552 8.53744 6.99885 7.86574 7.1301C7.48608 7.20301 7.10642 7.20301 6.72677 7.07177C6.53694 7.01343 6.37631 6.89677 6.2887 6.76552ZM7.16483 3.20728C6.85819 3.09061 6.53694 3.11978 6.23029 3.20728C6.72677 3.32394 7.20864 3.46977 7.6467 3.7031C7.57369 3.45519 7.39847 3.29478 7.16483 3.20728Z" fill="#FFFADE"></path>
  </symbol>
  <symbol fill="none" xmlns="http://www.w3.org/2000/svg" viewBox="0 0 29 24" id="mail">
    <g clip-path="url(#clip0_698_29273)">
      <path d="M1.12109 20.4795C1.12109 14.9764 1.12109 9.47595 1.12109 3.97283C1.12639 3.94371 1.13433 3.91459 1.13962 3.88548C1.17668 3.68695 1.2005 3.48313 1.25874 3.29255C1.59226 2.21786 2.62724 1.40788 3.89515 1.41053C11.0632 1.41847 18.2313 1.41582 25.3994 1.41318C25.6721 1.41318 25.9394 1.437 26.2015 1.51376C27.3979 1.86317 28.1682 2.90609 28.1682 4.17929C28.1682 9.54212 28.1682 14.905 28.1682 20.2678C28.1682 20.3922 28.1629 20.5192 28.1496 20.641C27.9961 21.9989 26.8473 23.0339 25.4841 23.0339C18.2631 23.0365 11.0394 23.0365 3.81839 23.0339C2.56636 23.0339 1.48109 22.1657 1.20315 20.9428C1.16345 20.7945 1.14756 20.6357 1.12109 20.4795ZM5.18954 8.22392C5.18954 12.2765 5.18954 16.3052 5.18954 20.334C11.5 20.334 17.7999 20.334 24.1077 20.334C24.1077 16.2999 24.1077 12.2712 24.1077 8.22392C24.06 8.25568 24.0256 8.2795 23.9912 8.30333C20.9074 10.4871 17.8237 12.6735 14.7426 14.8626C14.6711 14.9129 14.6261 14.9182 14.552 14.8652C11.4709 12.6735 8.38447 10.4871 5.29807 8.29803C5.2663 8.27421 5.23454 8.25303 5.18954 8.22392ZM5.18954 4.12371C5.18424 4.13165 5.1816 4.13959 5.1763 4.14753C5.20277 4.16871 5.22924 4.19253 5.25836 4.21371C8.3633 6.41601 11.4682 8.61832 14.5705 10.8206C14.6261 10.8603 14.6605 10.863 14.7188 10.8233C15.6002 10.1933 16.4869 9.56859 17.371 8.94125C19.5892 7.36893 21.8048 5.79397 24.023 4.22165C24.0547 4.19782 24.0838 4.16871 24.1394 4.12371C17.7999 4.12371 11.4947 4.12371 5.18954 4.12371Z" fill="#FFFADE"></path>
      <path d="M3.8941 1.88653C4.19831 1.88687 4.50252 1.88718 4.80673 1.88748L3.89537 0.934455L3.89209 1.88652L3.8941 1.88653Z" fill="#FFFADE"></path>
      <path d="M1.64305 3.76597C1.66438 3.63776 1.68088 3.53856 1.71317 3.4326C1.9847 2.55927 2.83327 1.88497 3.89209 1.88652L3.89537 0.934455C2.4196 0.931483 1.19927 1.87636 0.803567 3.15141L0.802954 3.1534C0.750857 3.3239 0.718473 3.51837 0.693269 3.66971C0.685309 3.71751 0.678065 3.761 0.671143 3.79809L0.670739 3.80028C0.670263 3.8029 0.669342 3.8073 0.665633 3.82361L0.665129 3.82583C0.662101 3.83914 0.656763 3.86259 0.65221 3.88763L0.644531 3.92987V20.5196L0.651225 20.559C0.655943 20.5869 0.661081 20.6215 0.666874 20.6605C0.683817 20.7747 0.706358 20.9266 0.740352 21.0566C1.07043 22.4911 2.34561 23.5098 3.81769 23.5099L3.82097 22.5578C3.81993 22.5578 3.8189 22.5578 3.81786 22.5578C2.78883 22.5578 1.89567 21.8441 1.66682 20.8372L1.66481 20.8283L1.66245 20.8196C1.6418 20.7425 1.63183 20.6745 1.61836 20.5827C1.61227 20.5411 1.60545 20.4947 1.59661 20.4403V4.02327C1.5996 4.00994 1.60364 3.99143 1.60722 3.97186C1.62172 3.89416 1.63293 3.8268 1.64305 3.76597Z" fill="#FFFADE"></path>
      <path d="M27.676 20.5885C27.5489 21.7078 26.6015 22.5578 25.4834 22.5578C25.1802 22.5579 24.8769 22.558 24.5736 22.5581L25.4838 23.5099C27.0916 23.5098 28.4417 22.2905 28.6221 20.6944L28.6224 20.6924C28.6379 20.5497 28.6437 20.4049 28.6437 20.2677V4.17926C28.6437 2.70067 27.7397 1.46736 26.3347 1.05688C26.0143 0.96303 25.698 0.937102 25.3987 0.937102C18.2306 0.939749 11.063 0.942396 3.89537 0.934455L4.80673 1.88748C11.671 1.89425 18.5353 1.89171 25.3991 1.88918C25.645 1.88919 25.8634 1.91091 26.0671 1.97056L26.0675 1.97067C27.0552 2.25912 27.6916 3.11156 27.6916 4.17926V20.2677C27.6916 20.379 27.6869 20.488 27.676 20.5885Z" fill="#FFFADE"></path>
      <path d="M3.81769 23.5099H25.4838L24.5736 22.5581C17.6568 22.5605 10.7376 22.5604 3.82097 22.5578L3.81769 23.5099Z" fill="#FFFADE"></path>
      <path fill-rule="evenodd" clip-rule="evenodd" d="M5.44762 7.82421L4.71298 7.34885V20.81H22.9019L21.9914 19.8579H5.66505V9.14224L7.1177 10.1723C9.50535 11.8653 11.8919 13.5576 14.2754 15.253L14.2748 15.2526L14.5515 14.8652L14.2754 15.253C14.3494 15.3058 14.4833 15.3844 14.6638 15.3784C14.8356 15.3726 14.9595 15.2916 15.016 15.2519L15.0178 15.2506C15.5274 14.8885 16.0372 14.5265 16.547 14.1645L15.8819 13.4691C15.4696 13.7618 15.0573 14.0547 14.645 14.3476C12.3218 12.6952 9.99557 11.0458 7.669 9.39609C6.97188 8.90179 6.27474 8.40746 5.57763 7.91303C5.53398 7.88059 5.49227 7.8531 5.44762 7.82421ZM14.4675 14.4736C14.4648 14.4756 14.4657 14.4746 14.4701 14.4719L14.4675 14.4736ZM14.2748 15.2526L14.2754 15.253L14.5515 14.8652L14.2748 15.2526Z" fill="#FFFADE"></path>
      <path d="M23.7176 7.91333L23.7156 7.9148C21.1039 9.76429 18.4921 11.6157 15.8819 13.4691L16.547 14.1645C18.9074 12.4886 21.2692 10.8142 23.6311 9.14127V19.8579H21.9914L22.9019 20.81H24.5832V7.33439L23.8431 7.82779C23.792 7.86184 23.7548 7.8876 23.7203 7.91149L23.7176 7.91333Z" fill="#FFFADE"></path>
      <path d="M24.4384 4.49367L25.4835 3.64763H6.48992L7.40037 4.59971H22.6663C21.9198 5.12927 21.1735 5.65902 20.4273 6.18873L20.4209 6.19323L20.4156 6.19705L20.4138 6.19833C19.3077 6.98346 18.2016 7.76863 17.095 8.55299C16.8014 8.76135 16.507 8.96976 16.2123 9.17835L16.212 9.1786C15.6896 9.54835 15.1665 9.91867 14.6454 10.2903C12.7762 8.96342 10.906 7.63652 9.03553 6.30963L12.5077 9.94056C13.1033 10.3632 13.6988 10.7859 14.2942 11.2086C14.3461 11.2456 14.4638 11.3227 14.6293 11.3275C14.8001 11.3325 14.9251 11.2584 14.9864 11.2165L14.9907 11.2136L14.995 11.2105C15.5818 10.7911 16.1703 10.3746 16.7597 9.95731L16.7606 9.95667C17.0555 9.74792 17.3507 9.539 17.646 9.32944C18.7545 8.54372 19.8623 7.75734 20.9699 6.97108L20.9717 6.96981L20.972 6.96959L20.9752 6.96735C22.0826 6.18126 23.1898 5.39528 24.2977 4.60998L24.3029 4.60628L24.3081 4.60244C24.3387 4.57942 24.3659 4.55568 24.3821 4.54151L24.3849 4.53913C24.4031 4.52325 24.4183 4.50999 24.4384 4.49367Z" fill="#FFFADE"></path>
      <path d="M4.97784 4.59866L4.98013 4.60032L4.98611 4.60456C7.49382 6.38326 10.0015 8.16192 12.5077 9.94056L9.03553 6.30963C8.23204 5.73965 7.42848 5.16968 6.62492 4.59971H7.40037L6.48992 3.64763H4.93424L4.79293 3.85961C4.7819 3.87615 4.7735 3.89075 4.7676 3.90157L4.5376 4.24657L4.8784 4.51922C4.88383 4.52356 4.88776 4.52685 4.8944 4.5324L4.91194 4.54701C4.92772 4.5601 4.95086 4.57903 4.97784 4.59866Z" fill="#FFFADE"></path>
    </g>
    <defs>
      <clipPath id="clip0_698_29273">
        <rect width="28" height="22.5816" fill="white" transform="translate(0.644531 0.934082)"></rect>
      </clipPath>
    </defs>
  </symbol>
  <symbol fill="none" xmlns="http://www.w3.org/2000/svg" viewBox="0 0 13 12" id="github">
    <g clip-path="url(#clip0_1186_228)">
      <path d="M6.42128 0.279175C3.33538 0.279175 0.835938 2.73672 0.835938 5.7677C0.835938 8.19314 2.43614 10.2499 4.65491 10.9751C4.93418 11.0268 5.03658 10.8569 5.03658 10.7112C5.03658 10.5809 5.03192 10.2355 5.0296 9.77798C3.47594 10.1089 3.14827 9.04165 3.14827 9.04165C2.89414 8.40817 2.5269 8.23875 2.5269 8.23875C2.02096 7.89851 2.566 7.90549 2.566 7.90549C3.12686 7.94366 3.42148 8.47101 3.42148 8.47101C3.91951 9.31021 4.72892 9.06771 5.04822 8.92761C5.09848 8.57248 5.24231 8.33091 5.40195 8.1936C4.16154 8.0563 2.85783 7.58434 2.85783 5.48145C2.85783 4.88243 3.07426 4.39278 3.43266 4.00879C3.36982 3.87008 3.18132 3.31202 3.48153 2.55613C3.48153 2.55613 3.9493 2.40905 5.0175 3.11886C5.46432 2.99691 5.93908 2.9364 6.41383 2.93361C6.88859 2.9364 7.36334 2.99691 7.81017 3.11886C8.87138 2.40905 9.33915 2.55613 9.33915 2.55613C9.63937 3.31202 9.45086 3.87008 9.39501 4.00879C9.75107 4.39278 9.9675 4.88243 9.9675 5.48145C9.9675 7.58992 8.66193 8.05397 7.41919 8.18895C7.61468 8.35372 7.7962 8.69023 7.7962 9.20455C7.7962 9.93902 7.78922 10.5292 7.78922 10.7075C7.78922 10.8513 7.88696 11.023 8.17321 10.9681C10.4078 10.2476 12.0066 8.18941 12.0066 5.7677C12.0066 2.73672 9.50578 0.279175 6.42128 0.279175Z" fill="#FFFADE"></path>
    </g>
    <defs>
      <clipPath id="clip0_1186_228">
        <rect width="11.1707" height="11.1707" fill="white" transform="translate(0.837891 0.0463867)"></rect>
      </clipPath>
    </defs>
  </symbol>
  <symbol fill="none" xmlns="http://www.w3.org/2000/svg" viewBox="0 0 13 12" id="telegram">
    <g clip-path="url(#clip0_1186_200)">
      <path d="M5.25037 7.165L5.06559 9.76405C5.32996 9.76405 5.44446 9.65048 5.58176 9.5141L6.82124 8.32955L9.38957 10.2104C9.8606 10.4729 10.1925 10.3347 10.3195 9.77708L12.0054 1.87755L12.0058 1.87708C12.1552 1.18078 11.754 0.908493 11.2951 1.07931L1.38578 4.87315C0.709484 5.13566 0.719724 5.51267 1.27081 5.68349L3.80423 6.47149L9.68885 2.78936C9.96579 2.60597 10.2176 2.70744 10.0105 2.89082L5.25037 7.165Z" fill="#FFFADE"></path>
    </g>
    <defs>
      <clipPath id="clip0_1186_200">
        <rect width="11.1707" height="11.1707" fill="white" transform="translate(0.865234 0.098999)"></rect>
      </clipPath>
    </defs>
  </symbol>
  <symbol fill="none" xmlns="http://www.w3.org/2000/svg" viewBox="0 0 13 12" id="reddit">
    <g clip-path="url(#clip0_1186_220)">
      <path d="M10.8416 4.66226C10.4888 4.66226 10.1784 4.81074 9.94982 5.04207C9.10969 4.45188 7.9768 4.07208 6.72149 4.03159L7.37358 1.04994L9.44993 1.52284C9.44993 2.03855 9.86418 2.45978 10.3724 2.45978C10.8905 2.45978 11.3071 2.02738 11.3071 1.5112C11.3071 0.995021 10.8933 0.562622 10.3729 0.562622C10.0103 0.562622 9.69755 0.784639 9.54163 1.08811L7.24838 0.572396C7.13295 0.541212 7.01985 0.624992 6.98913 0.742284L6.27327 4.02926C5.02774 4.08185 3.90695 4.46119 3.06403 5.05184C2.83549 4.81074 2.51294 4.66226 2.16013 4.66226C0.851301 4.66226 0.422626 6.44445 1.62115 7.05372C1.57879 7.24223 1.55971 7.4433 1.55971 7.64391C1.55971 9.64579 3.78221 11.2679 6.51111 11.2679C9.25165 11.2679 11.4742 9.64579 11.4742 7.64391C11.4742 7.4433 11.4532 7.23292 11.4015 7.04395C12.5759 6.43235 12.1435 4.66319 10.8416 4.66226ZM3.52296 7.18032C3.52296 6.65483 3.9372 6.23174 4.45757 6.23174C4.96584 6.23174 5.38055 6.65204 5.38055 7.18032C5.38055 7.6965 4.9663 8.11726 4.45757 8.11726C3.93953 8.11959 3.52296 7.6965 3.52296 7.18032ZM8.56792 9.41353C7.71103 10.283 5.29304 10.283 4.43569 9.41353C4.34121 9.32975 4.34121 9.18174 4.43569 9.08632C4.51808 9.00254 4.66423 9.00254 4.74661 9.08632C5.40103 9.76727 7.57186 9.7789 8.25467 9.08632C8.33706 9.00254 8.4832 9.00254 8.56559 9.08632C8.66194 9.1822 8.66194 9.33021 8.56792 9.41353ZM8.54883 8.11912C8.04057 8.11912 7.62632 7.69883 7.62632 7.18311C7.62632 6.65763 8.04057 6.23454 8.54883 6.23454C9.06687 6.23454 9.48345 6.65483 9.48345 7.18311C9.48112 7.6965 9.06687 8.11912 8.54883 8.11912Z" fill="#FFFADE"></path>
    </g>
    <defs>
      <clipPath id="clip0_1186_220">
        <rect width="11.1707" height="11.1707" fill="white" transform="translate(0.914062 0.329834)"></rect>
      </clipPath>
    </defs>
  </symbol>
  <symbol fill="none" xmlns="http://www.w3.org/2000/svg" viewBox="0 0 12 12" id="twitter">
    <g clip-path="url(#clip0_1186_236)">
      <path d="M11.9383 2.28346C11.5229 2.46569 11.0802 2.58647 10.6187 2.64512C11.0935 2.36166 11.4558 1.91623 11.6262 1.37934C11.1835 1.64324 10.6948 1.82966 10.174 1.93368C9.75369 1.48616 9.15467 1.20898 8.50118 1.20898C7.23331 1.20898 6.21259 2.23808 6.21259 3.49967C6.21259 3.6812 6.22795 3.85574 6.26565 4.0219C4.36175 3.92905 2.67707 3.01654 1.54534 1.62649C1.34776 1.96929 1.23186 2.36166 1.23186 2.78405C1.23186 3.57717 1.64029 4.28022 2.24909 4.68726C1.88116 4.68027 1.5202 4.57345 1.21441 4.4052C1.21441 4.41218 1.21441 4.42125 1.21441 4.43033C1.21441 5.54321 2.00822 6.46758 3.04919 6.68052C2.86278 6.73149 2.65961 6.75593 2.44877 6.75593C2.30215 6.75593 2.15414 6.74755 2.0152 6.71683C2.31192 7.62375 3.15392 8.2905 4.15509 8.31214C3.37593 8.92164 2.38663 9.28888 1.31564 9.28888C1.12783 9.28888 0.947705 9.2805 0.767578 9.25746C1.78202 9.91164 2.98426 10.2852 4.28076 10.2852C8.4949 10.2852 10.7989 6.79433 10.7989 3.76847C10.7989 3.66723 10.7954 3.56949 10.7905 3.47244C11.245 3.14989 11.6269 2.74705 11.9383 2.28346Z" fill="#FFFADE"></path>
    </g>
    <defs>
      <clipPath id="clip0_1186_236">
        <rect width="11.1707" height="11.1707" fill="white" transform="translate(0.769531 0.161743)"></rect>
      </clipPath>
    </defs>
  </symbol>
</svg>