<svg width="12" height="12" viewBox="0 0 12 12" fill="none" xmlns="http://www.w3.org/2000/svg">
<g clip-path="url(#clip0_1186_236)">
<path d="M11.9383 2.28346C11.5229 2.46569 11.0802 2.58647 10.6187 2.64512C11.0935 2.36166 11.4558 1.91623 11.6262 1.37934C11.1835 1.64324 10.6948 1.82966 10.174 1.93368C9.75369 1.48616 9.15467 1.20898 8.50118 1.20898C7.23331 1.20898 6.21259 2.23808 6.21259 3.49967C6.21259 3.6812 6.22795 3.85574 6.26565 4.0219C4.36175 3.92905 2.67707 3.01654 1.54534 1.62649C1.34776 1.96929 1.23186 2.36166 1.23186 2.78405C1.23186 3.57717 1.64029 4.28022 2.24909 4.68726C1.88116 4.68027 1.5202 4.57345 1.21441 4.4052C1.21441 4.41218 1.21441 4.42125 1.21441 4.43033C1.21441 5.54321 2.00822 6.46758 3.04919 6.68052C2.86278 6.73149 2.65961 6.75593 2.44877 6.75593C2.30215 6.75593 2.15414 6.74755 2.0152 6.71683C2.31192 7.62375 3.15392 8.2905 4.15509 8.31214C3.37593 8.92164 2.38663 9.28888 1.31564 9.28888C1.12783 9.28888 0.947705 9.2805 0.767578 9.25746C1.78202 9.91164 2.98426 10.2852 4.28076 10.2852C8.4949 10.2852 10.7989 6.79433 10.7989 3.76847C10.7989 3.66723 10.7954 3.56949 10.7905 3.47244C11.245 3.14989 11.6269 2.74705 11.9383 2.28346Z" fill="#FFFADE"/>
</g>
<defs>
<clipPath id="clip0_1186_236">
<rect width="11.1707" height="11.1707" fill="white" transform="translate(0.769531 0.161743)"/>
</clipPath>
</defs>
</svg>
